<?xml version="1.0" encoding="iso-8859-1"?>
<!-- Uploaded to: SVG Repo, www.svgrepo.com, Generator: SVG Repo Mixer Tools -->
<svg fill="#000000" height="800px" width="800px" version="1.1" id="Layer_1" xmlns="http://www.w3.org/2000/svg" xmlns:xlink="http://www.w3.org/1999/xlink" 
	 viewBox="0 0 504 504" xml:space="preserve">
<g>
	<g>
		<path d="M424.032,272H376V132h20.248c6.256,0,11.752-5.732,11.752-11.992V9.568C408,3.308,402.508,0,396.248,0h-289.64
			C100.352,0,96,3.308,96,9.568v110.44c0,6.26,4.352,11.992,10.608,11.992H128v140H78.828C72.572,272,68,278.968,68,285.228v27.976
			C68,319.464,72.572,324,78.828,324H104v180h52V376h192v128h52V324h24.032c6.264,0,11.968-4.536,11.968-10.796v-27.976
			C436,278.968,430.296,272,424.032,272z M268,132h72v140h-72V132z M164,132h68v140h-68V132z M348,368H156v-44h192V368z"/>
	</g>
</g>
</svg>