<?xml version="1.0" encoding="iso-8859-1"?>
<!-- Uploaded to: SVG Repo, www.svgrepo.com, Generator: SVG Repo Mixer Tools -->
<!DOCTYPE svg PUBLIC "-//W3C//DTD SVG 1.1//EN" "http://www.w3.org/Graphics/SVG/1.1/DTD/svg11.dtd">
<svg fill="#000000" version="1.1" id="Capa_1" xmlns="http://www.w3.org/2000/svg" xmlns:xlink="http://www.w3.org/1999/xlink" 
	 viewBox="0 0 297 297" xml:space="preserve">
<g>
	<path d="M287.116,222.412H9.884c-5.458,0-9.884,4.425-9.884,9.884v32.616c0,5.458,4.425,9.884,9.884,9.884s9.884-4.425,9.884-9.884
		v-22.732h257.466v22.732c0,5.458,4.425,9.884,9.884,9.884c5.458,0,9.884-4.425,9.884-9.884v-32.616
		C297,226.837,292.575,222.412,287.116,222.412z"/>
	<path d="M29.961,91.426H185v-9.982c0-4.062,3.293-7.355,7.355-7.355s7.355,3.293,7.355,7.355v9.982h51.021
		c1.994,0,3.615-1.621,3.615-3.615c0-1.295-0.698-2.497-1.821-3.139l-106.85-61.058c-1.644-0.94-3.486-1.409-5.328-1.409
		c-1.843,0-3.685,0.469-5.327,1.408L28.167,84.672c-1.124,0.641-1.821,1.844-1.821,3.139C26.346,89.804,27.967,91.426,29.961,91.426
		z"/>
	<rect x="130.463" y="105.786" width="19.767" height="67.949"/>
	<path d="M21.991,206.351h165.314c0.559,0,1.11-0.09,1.638-0.265l87.708-29.236h0.001c2.121-0.707,3.547-2.685,3.547-4.922v-7.091
		c0-1.688-0.786-3.223-2.155-4.209c-1.368-0.986-3.072-1.248-4.674-0.713l-80.047,26.682c-1.94,0.648-3.966,0.977-6.017,0.977
		H21.991c-2.861,0-5.189,2.328-5.189,5.189v8.401C16.802,204.023,19.13,206.351,21.991,206.351z"/>
</g>
</svg>