<?xml version="1.0" encoding="iso-8859-1"?>
<!-- Uploaded to: SVG Repo, www.svgrepo.com, Generator: SVG Repo Mixer Tools -->
<svg fill="#000000" height="800px" width="800px" version="1.1" id="Layer_1" xmlns="http://www.w3.org/2000/svg" xmlns:xlink="http://www.w3.org/1999/xlink" 
	 viewBox="0 0 512.006 512.006" xml:space="preserve">
<g>
	<g>
		<g>
			<path d="M149.336,341.333H42.669v-128c0-11.782-9.551-21.333-21.333-21.333c-11.782,0-21.333,9.551-21.333,21.333v149.333v128
				C0.003,502.449,9.554,512,21.336,512c11.782,0,21.333-9.551,21.333-21.333V384h42.667v106.667
				c0,11.782,9.551,21.333,21.333,21.333c11.782,0,21.333-9.551,21.333-21.333V384h21.333c11.782,0,21.333-9.551,21.333-21.333
				S161.118,341.333,149.336,341.333z"/>
			<path d="M490.669,192c-11.782,0-21.333,9.551-21.333,21.333v128H362.669c-11.782,0-21.333,9.551-21.333,21.333
				S350.887,384,362.669,384h21.333v106.667c0,11.782,9.551,21.333,21.333,21.333c11.782,0,21.333-9.551,21.333-21.333V384h42.667
				v106.667c0,11.782,9.551,21.333,21.333,21.333s21.333-9.551,21.333-21.333v-128V213.333C512.003,201.551,502.452,192,490.669,192
				z"/>
			<path d="M284.675,298.667h56.661c35.355,0,64-28.645,64-64c0-31.054-22.101-56.923-51.435-62.76l27.85-55.699
				c7.092-14.185-3.222-30.874-19.081-30.874h-21.333C341.336,38.351,302.985,0,256.003,0s-85.333,38.351-85.333,85.333h-21.333
				c-15.859,0-26.173,16.689-19.081,30.874l27.85,55.699c-29.334,5.837-51.435,31.706-51.435,62.76c0,35.355,28.645,64,64,64h56.661
				l-55.761,185.87c-3.385,11.285,3.018,23.178,14.304,26.564c11.285,3.385,23.178-3.018,26.564-14.304l43.566-145.221
				l43.566,145.221c3.386,11.285,15.279,17.689,26.564,14.304c11.285-3.386,17.689-15.279,14.304-26.564L284.675,298.667z
				 M183.854,128h144.297l-21.333,42.667h-101.63L183.854,128z M256.003,42.667c23.418,0,42.667,19.249,42.667,42.667h-85.333
				C213.336,61.915,232.585,42.667,256.003,42.667z M149.336,234.667c0-11.791,9.542-21.333,21.333-21.333h21.333h128h21.333
				c11.791,0,21.333,9.542,21.333,21.333S353.127,256,341.336,256h-84.982c-0.117-0.002-0.234-0.001-0.352-0.001
				c-0.117,0-0.234-0.001-0.352,0.001h-84.982C158.878,256,149.336,246.458,149.336,234.667z"/>
		</g>
	</g>
</g>
</svg>