<?xml version="1.0" encoding="iso-8859-1"?>
<!-- Uploaded to: SVG Repo, www.svgrepo.com, Generator: SVG Repo Mixer Tools -->
<svg fill="#000000" height="800px" width="800px" version="1.1" id="Layer_1" xmlns="http://www.w3.org/2000/svg" xmlns:xlink="http://www.w3.org/1999/xlink" 
	 viewBox="0 0 512 512" xml:space="preserve">
<g>
	<g>
		<path d="M301.176,301.176h-22.588l16.358-76.344c-2.833,0.681-5.787,1.051-8.829,1.051c-12.317,0-23.249-5.915-30.118-15.059
			c-6.87,9.144-17.803,15.059-30.119,15.059c-3.043,0-5.995-0.37-8.828-1.051l16.358,76.344h-22.588l22.588,105.412h-22.588
			L233.412,512h45.177l22.588-105.412h-22.588L301.176,301.176z"/>
	</g>
</g>
<g>
	<g>
		<path d="M396.682,99.977c-20.006-15.005-40.008-24.314-58.395-29.961c28.189-8.111,65.304-8.257,112.503,11.038
			c0,0-52.756-105.511-167.191-75.77c-10.508,2.73-19.647,6.646-27.6,11.312c-7.953-4.667-17.092-8.581-27.598-11.312
			C113.967-24.457,61.209,81.054,61.209,81.054c47.199-19.295,84.314-19.149,112.503-11.038
			c-18.387,5.647-38.389,14.956-58.395,29.961C5.442,182.38,62.563,328.582,62.563,328.582
			c28.491-85.474,82.62-119.644,126.393-133.009c-0.47-2.373-0.721-4.825-0.721-7.337c0-20.793,16.855-37.647,37.646-37.647
			c12.317,0,23.249,5.915,30.119,15.059c6.868-9.144,17.801-15.059,30.118-15.059c20.792,0,37.647,16.854,37.647,37.647
			c0,2.512-0.251,4.963-0.721,7.337c43.771,13.365,97.903,47.535,126.393,133.009C449.437,328.582,506.558,182.38,396.682,99.977z"
			/>
	</g>
</g>
</svg>