<?xml version="1.0" encoding="iso-8859-1"?>
<!-- Uploaded to: SVG Repo, www.svgrepo.com, Generator: SVG Repo Mixer Tools -->
<svg height="800px" width="800px" version="1.1" id="Layer_1" xmlns="http://www.w3.org/2000/svg" xmlns:xlink="http://www.w3.org/1999/xlink" 
	 viewBox="0 0 437.34 437.34" xml:space="preserve">
<g>
	<path style="fill:#3E81C8;" d="M0,353.436v59c0,1.36,0.34,2.73,1.07,3.99c1.48,2.57,4.17,4.01,6.93,4.01v-8
		c0.41-0.25,46.64-26.95,128.51-37.53c1.05-0.14,2.13-0.28,3.21-0.41l6.111-0.832l2.36,4.934c1.043,2.225,2.02,4.311,3.069,6.499
		h81.23c1.75,0,3.17-1.42,3.17-3.17v-10.26l8.61,0.65c58.24,4.42,118.03,18.09,177.71,40.64l14.012,5.292
		c0.875-1.1,1.348-2.49,1.348-3.892v-60.92L0,353.436L0,353.436z"/>
	<path style="fill:#F5C525;" d="M435.99,418.246c-1.01,1.3-2.6,2.19-4.67,2.19H8v-8c0.41-0.25,46.64-26.95,128.51-37.53
		c1.05-0.14,2.13-0.28,3.21-0.41l6.111-0.832l2.36,4.934c1.13,2.14,1.879,4.389,3.069,6.499h81.23c1.75,0,3.17-1.42,3.17-3.17
		v-10.26l8.61,0.65c58.24,4.42,118.03,18.09,177.71,40.64L435.99,418.246z"/>
	<path style="fill:#3E81C8;" d="M335.828,184.247c-16.113-28.393-44.872-49.387-85.472-62.393
		c13.154-23.026,35.356-36.056,65.989-38.729l37.395-0.575l-35.881-15.084c-10.394-2.987-21.526-4.501-33.089-4.501
		c-35.524,0-64.146,14.077-67.259,15.665l-0.147,0.083C195.02,66.22,173.13,59.886,152.301,59.886
		c-16.594,0-32.319,3.958-46.739,11.765L81.92,84.449l26.793,2.21c17.078,1.408,42.747,9.978,68.065,42.803
		c0,0-0.708-0.016-1.208-0.016c-7.397,0-45.45,1.374-68.137,28.498c-11.866,14.19-17.59,33.186-17.012,56.461l0.574,23.093
		c0,0,20.527-26.866,24.217-30.632c20.343-20.751,46.453-31.72,75.506-31.719c0.287,0.208,28.733,21.433,34.521,79.68l2.645,26.614
		l12.404-23.695c13.775-26.314,25.384-63.326,2.441-90.22c2.096,0.299,51.676,7.582,82.984,29.922l25.276,21.603
		C350.99,219.051,336.404,185.266,335.828,184.247z"/>
	<path style="fill:#F8A805;" d="M223.509,371.46c-6.2-6.248-11.74-13.021-16.466-20.132c-4.883-7.348-13.904-28.42-17.172-38.421
		c-5.065-15.499-3.561-50.787-1.684-67.583c3.051-27.296,16.985-53.647,16.985-53.647l-2.348-3.294
		c-3.882-5.447-7.332-9.027-9.544-11.071l-2.384-2.204l-13.638,0.813c0,0-12.984,11.415-20.81,23.272
		c-5.933,8.99-18.107,30.645-20.874,37.693c-5.138,13.055-8.482,26.576-9.94,40.188l-0.855,16.896
		c0.104,19.212,3.901,38.98,11.286,58.755l15.17,32.371h85.804L223.509,371.46z"/>
	<g>
		<path d="M418.989,302.928c-1.178,0-2.374-0.261-3.504-0.813c-11.39-5.561-23.857-5.935-35.39-1.121
			c-1.413,1.214-3.245,1.932-5.214,1.932h-0.773c-1.969,0-3.801-0.718-5.214-1.932c-11.533-4.814-24.001-4.44-35.39,1.121
			c-3.969,1.938-8.761,0.291-10.698-3.679c-1.938-3.97-0.292-8.76,3.679-10.699c15.448-7.542,32.339-8.124,48.01-1.743
			c15.671-6.38,32.563-5.799,48.01,1.743c3.971,1.939,5.617,6.729,3.679,10.699C424.797,301.276,421.95,302.928,418.989,302.928z"/>
		<path d="M109.989,38.224c-1.178,0-2.374-0.261-3.504-0.813c-11.39-5.561-23.856-5.935-35.391-1.121
			c-1.412,1.214-3.244,1.932-5.213,1.932h-0.773c-1.969,0-3.801-0.718-5.213-1.932c-11.534-4.814-24.001-4.44-35.391,1.121
			c-3.968,1.937-8.76,0.291-10.698-3.679s-0.292-8.76,3.679-10.699c15.447-7.542,32.339-8.123,48.01-1.743
			c15.672-6.38,32.563-5.799,48.01,1.743c3.971,1.939,5.617,6.729,3.679,10.699C115.797,36.573,112.95,38.224,109.989,38.224z"/>
		<path d="M109.5,201.266c-4.32,4.41-8,8.82-11.08,12.94c-0.53-21.3,4.53-38.43,15.15-51.13c20.4-24.39,55.23-25.63,62-25.63
			c0.54,0,0.85,0.01,0.9,0.01c3.11,0.12,5.98-1.57,7.4-4.33s1.12-6.09-0.77-8.55c-26.45-34.31-53.72-44.24-73.73-45.89
			c10.64-5.76,25.07-10.8,42.93-10.8c19.44,0,40.02,5.99,61.16,17.81c2.36,1.32,5.23,1.35,7.63,0.09
			c0.28-0.14,28.62-14.82,63.68-14.82c10.85,0,21.17,1.4,30.88,4.19c-25.22,2.2-54.73,12.08-72.24,42.73
			c-1.2,2.09-1.38,4.61-0.51,6.86c0.87,2.25,2.72,3.99,5.01,4.72c38.63,12.38,65.87,32.14,80.96,58.73
			c0.52,0.92,1.02,1.83,1.49,2.74c-32.92-23.49-83.63-30.92-86.5-31.33c-3.29-0.46-6.53,1.16-8.13,4.07
			c-1.6,2.92-1.23,6.52,0.93,9.05c20.49,24.03,8.24,58.96-3.46,81.31c-6.13-61.7-36.34-84.32-37.79-85.37
			c-1.37-0.99-3.01-1.52-4.69-1.52C159.46,167.146,131.38,178.946,109.5,201.266z M155.99,377.096c-2.03-3.73-3.91-7.45-5.67-11.17
			h21.67c4.42,0,8-3.58,8-8c0-0.75-0.1-1.48-0.3-2.17c-0.23-0.84-0.6-1.62-1.07-2.32c-1.44-2.12-3.87-3.51-6.63-3.51h-28.43
			c-7.08-18.96-10.68-37.65-10.78-56h21.21c4.42,0,8-3.58,8-8s-3.58-8-8-8h-20.4c1.38-12.89,4.51-25.61,9.43-38.11
			c2.85-7.26,6.12-13.9,9.52-19.89h13.45c4.42,0,8-3.58,8-8s-3.58-8-8-8h-3.09c7.91-10.78,15.02-17.74,17.79-20.29
			c2.36-0.22,4.74-0.39,7.16-0.45c1.85,1.71,4.94,4.9,8.46,9.84c-0.01,0.03-0.03,0.05-0.04,0.08c-0.52,1.02-10.76,21.54-15.96,50.82
			h-18.32c-4.41,0-8,3.58-8,8c0,4.42,3.59,8,8,8h16.15c-0.05,0.54-0.11,1.07-0.15,1.62c-1.61,18.91-0.19,36.78,4.14,53.38h-21.14
			c-4.41,0-8,3.58-8,8s3.59,8,8,8h26.38c3.12,7.86,6.96,15.36,11.51,22.51c0.49,0.78,0.99,1.55,1.5,2.32
			c5.01,7.54,10.84,14.68,17.45,21.34L155.99,377.096L155.99,377.096z M437.03,412.436c-0.5-1.54-1.65-2.91-3.53-3.64
			c-69.26-27.12-138.28-42.41-205.62-45.5c-0.38-0.02-0.76,0-1.13,0.04c-2.33-2.47-4.55-4.99-6.63-7.58
			c-0.62-0.77-1.23-1.54-1.82-2.32c-19.09-24.78-27.29-54.93-24.41-90.03c1.84-22.43,7.98-41.64,12.27-52.79
			c6.81,15.54,12.6,38.13,12.09,69.72c-0.06,3.45,2.11,6.55,5.37,7.69c0.86,0.29,1.75,0.44,2.62,0.44c2.45,0,4.82-1.13,6.37-3.15
			c2.07-2.72,45.42-60.4,26.33-106.55c28.88,6.7,72.52,22.1,81.55,48.46c1.26,3.67,4.98,5.92,8.82,5.31
			c3.83-0.61,6.68-3.88,6.75-7.76c0.02-0.81,0.21-20.18-12.74-43.52c-10.95-19.74-33.73-46.18-80.55-63.58
			c17.32-22.11,44.37-27.04,65.03-27.04c13.58,0,23.47,2.2,23.56,2.22c0.7,0.16,1.41,0.22,2.11,0.19c4.27-0.16,7.69-3.68,7.69-7.99
			c0-2.79-1.43-5.24-3.59-6.67c-20.87-15.54-45.37-23.42-72.8-23.42c-31.39,0-57.52,10.37-67.18,14.76
			c-22.29-11.84-44.24-17.84-65.29-17.84c-48.81,0-75.74,31.78-76.87,33.13c-2.37,2.87-2.48,7-0.23,9.96s6.21,3.99,9.61,2.48
			c0.07-0.03,7.16-3.04,18.12-3.04c14.55,0,35.54,5.23,57.47,28.21c-16.47,2.37-41.74,9.42-59.11,30.19
			c-17.38,20.79-22.82,50.12-16.15,87.19c0.62,3.48,3.47,6.13,6.98,6.53c3.51,0.39,6.88-1.58,8.26-4.83
			c0.06-0.15,6.5-15.06,20.96-29.66c9.49-9.57,20.07-16.77,31.64-21.6c-8.14,10.48-17.43,24.87-24.57,42.8
			c-9.3,23.35-13.01,47.85-11.02,72.82c1.25,15.65,4.76,31.47,10.5,47.37c0.27,0.77,0.55,1.55,0.84,2.32
			c1.43,3.82,2.98,7.65,4.66,11.48c-81.1,10.81-127.38,37.11-129.4,38.27c-2.56,1.48-3.99,4.17-3.99,6.93
			c0,1.36,0.34,2.73,1.07,3.99c1.48,2.57,4.17,4.01,6.93,4.01c1.36,0,2.74-0.35,4-1.08c0.15-0.08,5.03-2.86,14.24-6.92
			c19.3-8.51,57.62-22.66,111.3-29.6c1.05-0.14,2.1-0.27,3.16-0.4c1.87,3.55,3.85,7.11,5.94,10.66h85.85c6.17,0,11.17-5,11.17-11.17
			v-1.63c50.33,3.82,101.61,14.58,153.2,32.14c7.42,2.52,14.85,5.19,22.29,8h12.17c3.82,0,6.02-3.03,6.02-6.08
			C437.34,413.706,437.24,413.056,437.03,412.436z"/>
	</g>
</g>
</svg>