<svg xmlns="http://www.w3.org/2000/svg" width="430" height="430" viewBox="0 0 430 430" role="img" aria-label="LidoPro mark">
  <title>LidoPro mark</title>
  <g shape-rendering="geometricPrecision" transform="translate(0 430) scale(.05 -.05)">
    <g fill="#075c5a" stroke="#03383d" stroke-width="10" stroke-linejoin="round" stroke-linecap="round">
      <path d="M4278 7840 c-143 -11 -331 -36 -418 -56 -270 -62 -408 -104 -585
-174 -99 -39 -147 -61 -250 -111 -148 -72 -237 -124 -400 -233 -66 -43 -167
-117 -225 -164 -58 -47 -181 -162 -275 -256 -93 -94 -208 -220 -255 -280 -47
-59 -124 -167 -172 -238 -48 -72 -119 -190 -157 -263 -73 -135 -156 -315 -184
-395 -9 -25 -26 -72 -38 -105 -24 -67 -51 -156 -79 -260 -26 -96 -61 -277 -70
-355 -4 -36 -13 -108 -20 -160 -6 -52 -12 -201 -12 -330 1 -129 6 -280 12
-335 7 -55 15 -129 20 -165 14 -124 58 -336 100 -480 22 -80 51 -172 62 -205
11 -33 26 -63 31 -67 6 -4 15 -4 20 -1 6 3 7 46 4 102 -3 53 -2 128 2 166 5
39 16 113 26 165 35 194 114 383 218 518 22 30 78 88 123 130 45 43 110 94
145 115 35 20 74 37 86 37 17 0 23 -6 23 -22 0 -16 -17 -35 -56 -63 -31 -22
-92 -78 -136 -124 -44 -46 -102 -116 -130 -155 -53 -75 -101 -165 -136 -256
-12 -30 -30 -89 -41 -130 -11 -41 -25 -113 -32 -160 -6 -47 -11 -143 -10 -215
0 -71 6 -164 12 -205 6 -41 22 -118 36 -170 13 -52 36 -124 50 -160 38 -97
123 -261 196 -381 35 -59 89 -140 119 -180 80 -108 192 -242 292 -347 95 -99
273 -259 372 -335 76 -57 221 -154 323 -214 118 -71 345 -184 461 -231 58 -23
148 -55 200 -72 52 -16 115 -37 140 -45 44 -14 188 -48 280 -65 130 -24 261
-40 406 -50 114 -8 213 -8 340 0 165 10 332 29 429 50 195 42 360 91 545 162
58 23 173 75 255 118 83 42 195 106 251 142 55 36 144 98 198 137 131 98 356
307 356 332 0 10 -6 19 -13 19 -7 0 -38 -22 -68 -48 -29 -27 -91 -76 -137
-110 -45 -34 -124 -87 -175 -118 -50 -31 -148 -85 -217 -120 -69 -34 -170 -80
-225 -102 -55 -22 -145 -54 -200 -71 -113 -36 -340 -90 -430 -102 -33 -4 -91
-13 -130 -19 -38 -5 -165 -13 -282 -17 -139 -4 -265 -2 -365 6 -84 7 -191 20
-238 28 -214 38 -216 38 -472 107 -51 14 -282 99 -383 141 -68 29 -305 150
-399 204 -49 28 -145 90 -213 137 -68 47 -168 121 -222 164 -54 44 -167 150
-252 237 -85 87 -187 202 -227 255 -40 54 -100 141 -134 194 -33 54 -83 142
-110 196 -27 53 -66 151 -88 215 -21 65 -46 165 -56 222 -13 80 -15 139 -11
265 4 119 11 181 27 239 11 43 36 112 55 155 28 64 38 78 59 80 20 3 26 -1 26
-16 0 -11 -7 -37 -16 -58 -35 -83 -64 -204 -75 -309 -9 -90 -8 -129 4 -215 9
-58 20 -125 26 -150 19 -85 52 -175 101 -276 27 -56 74 -138 105 -183 31 -45
64 -92 73 -104 9 -12 60 -66 112 -120 52 -55 145 -137 207 -184 62 -47 161
-114 220 -150 59 -35 171 -95 248 -132 77 -38 194 -90 260 -116 128 -51 317
-111 455 -145 47 -12 130 -30 184 -41 101 -19 194 -32 366 -52 52 -5 212 -10
355 -10 146 -1 302 5 355 11 125 16 277 41 315 52 17 5 73 19 125 31 52 12
142 37 200 55 58 17 150 50 205 72 55 22 148 63 207 90 58 28 146 74 195 102
48 29 130 82 182 118 51 35 132 97 180 137 47 40 125 113 172 161 72 74 117
127 187 219 68 89 177 296 210 400 13 39 28 107 34 152 9 61 9 102 1 154 -7
39 -25 99 -42 133 -16 33 -46 80 -66 103 -19 23 -62 55 -95 71 -33 17 -78 33
-100 37 -34 6 -40 11 -40 31 0 22 4 24 48 24 27 0 74 -9 105 -19 31 -11 76
-33 99 -49 24 -17 55 -43 70 -59 15 -15 39 -54 54 -86 14 -32 32 -82 40 -110
8 -29 14 -96 14 -149 0 -53 -5 -121 -11 -150 -17 -80 -48 -173 -89 -268 -21
-47 -63 -127 -94 -179 -32 -51 -81 -126 -111 -167 -30 -40 -98 -118 -152 -175
-54 -56 -136 -134 -183 -174 -84 -71 -231 -174 -363 -254 -69 -42 -249 -135
-322 -166 -119 -51 -273 -106 -405 -143 -58 -17 -157 -42 -220 -56 -63 -14
-216 -37 -340 -52 -194 -22 -251 -25 -415 -20 -104 2 -235 9 -290 15 -105 10
-374 53 -460 73 -84 19 -316 86 -392 113 -151 53 -283 109 -438 185 -88 43
-191 99 -229 124 -38 25 -75 46 -82 46 -25 0 -15 -27 20 -56 102 -86 176 -145
254 -201 48 -34 143 -96 212 -137 69 -40 180 -101 247 -135 114 -57 324 -145
418 -176 66 -22 238 -73 265 -79 177 -39 270 -57 345 -66 50 -6 108 -17 130
-23 27 -8 141 -12 340 -12 198 0 319 4 355 12 30 7 102 19 159 28 58 9 157 30
220 46 64 16 162 45 218 65 57 19 147 53 200 76 54 23 141 64 193 91 52 28
139 78 193 111 54 34 146 98 205 144 59 45 163 137 230 205 68 67 157 163 198
214 125 155 256 380 328 565 25 63 53 142 61 174 34 128 47 203 52 304 3 58 1
141 -5 185 -6 44 -20 109 -32 145 -11 36 -44 100 -72 143 -28 43 -72 96 -96
118 -25 22 -79 56 -121 77 -75 37 -75 37 -208 37 -130 0 -133 0 -133 21 0 18
9 24 53 35 28 7 93 13 142 13 69 0 105 -5 155 -23 36 -13 92 -42 125 -64 33
-22 84 -68 113 -102 28 -35 66 -93 84 -131 57 -125 62 -159 62 -389 0 -166 -3
-226 -17 -285 -26 -107 -55 -203 -90 -295 -16 -44 -56 -134 -88 -201 -58 -122
-166 -303 -242 -404 -22 -30 -74 -94 -114 -142 -40 -47 -73 -94 -73 -102 0 -9
3 -16 6 -16 18 0 52 30 121 108 43 48 92 105 108 126 17 22 48 62 71 90 57 72
154 216 212 316 48 85 134 278 167 375 32 96 64 241 76 339 6 55 9 160 6 240
-3 97 -11 165 -25 218 -12 42 -39 114 -61 160 -22 46 -65 113 -96 150 -30 36
-83 88 -117 113 -35 26 -83 57 -108 70 -25 12 -76 31 -115 41 -43 12 -102 19
-155 19 -47 -1 -112 -6 -145 -12 -33 -7 -98 -31 -144 -55 -48 -24 -110 -66
-143 -96 -32 -30 -78 -84 -102 -120 -24 -37 -52 -89 -61 -117 -9 -27 -20 -88
-22 -136 -4 -62 -1 -100 11 -140 8 -31 32 -77 51 -102 20 -26 44 -47 55 -47
12 0 26 16 40 45 12 25 36 57 54 70 18 13 49 31 69 40 20 8 54 15 75 15 22 0
54 -5 73 -11 19 -7 48 -22 64 -34 17 -13 44 -49 60 -81 25 -50 29 -71 29 -139
0 -56 -6 -100 -23 -149 -12 -38 -36 -96 -53 -130 -17 -34 -52 -92 -78 -131
-27 -38 -73 -99 -104 -135 -32 -36 -103 -107 -159 -158 -56 -52 -161 -133
-233 -181 -73 -48 -193 -118 -268 -155 -147 -73 -298 -132 -358 -142 -35 -6
-38 -5 -38 18 0 14 7 31 15 38 8 7 36 42 62 78 25 36 60 97 77 136 25 60 31
87 34 176 3 95 1 112 -22 174 -15 39 -38 86 -53 105 -14 20 -41 52 -58 71 -30
31 -35 47 -53 155 -39 232 -58 303 -102 392 -32 65 -60 104 -109 152 -37 36
-90 78 -118 93 -27 15 -113 50 -191 77 -78 28 -155 57 -171 66 -17 8 -37 25
-45 38 -7 12 -17 38 -20 58 -3 20 0 70 8 112 17 88 67 240 102 309 14 28 36
54 54 63 16 8 45 15 65 15 20 0 91 -7 158 -16 76 -10 153 -14 205 -10 64 4 94
11 126 30 24 14 55 41 70 61 15 19 34 56 43 81 13 38 13 54 3 111 -13 67 -13
67 17 92 17 14 35 36 42 48 6 12 11 47 11 77 0 31 4 56 8 56 4 0 15 13 25 29
9 16 17 42 17 58 -1 15 -7 39 -15 53 -8 14 -14 36 -14 50 -1 21 11 31 66 60
36 19 74 46 84 60 11 14 23 39 28 56 6 20 4 43 -4 67 -7 19 -37 63 -67 98 -31
34 -77 98 -104 142 -48 80 -49 82 -48 161 1 45 3 129 5 187 4 98 7 109 32 139
16 18 36 49 47 69 10 20 26 63 35 96 13 44 16 79 12 139 -3 46 -15 104 -27
135 -11 30 -34 73 -50 96 -16 24 -51 64 -76 90 -26 25 -72 63 -103 84 -31 20
-81 47 -112 60 -31 12 -89 28 -130 36 -50 9 -106 29 -174 64 -55 28 -134 62
-175 76 -41 14 -107 32 -145 41 -39 9 -108 22 -155 29 -47 8 -159 14 -250 14
-152 0 -259 -11 -383 -38 -94 -21 -263 -83 -362 -133 -55 -28 -120 -64 -145
-81 -72 -49 -172 -127 -213 -166 -22 -20 -64 -67 -96 -106 -31 -38 -76 -101
-100 -140 -25 -38 -59 -101 -76 -140 -18 -39 -42 -104 -55 -145 -12 -41 -27
-88 -33 -103 -10 -28 -10 -28 -76 -22 -36 4 -95 2 -130 -4 -35 -6 -78 -20 -96
-32 -18 -13 -40 -38 -50 -56 -10 -18 -18 -53 -18 -77 1 -28 10 -57 26 -82 13
-22 47 -59 75 -84 60 -54 64 -57 125 -98 31 -22 47 -40 47 -54 0 -11 -10 -37
-22 -57 -12 -20 -40 -55 -61 -78 -22 -23 -67 -55 -101 -71 -33 -17 -85 -35
-114 -41 -29 -6 -133 -11 -231 -11 -97 0 -204 -5 -237 -11 -32 -5 -86 -19
-119 -31 -33 -11 -95 -38 -137 -61 -42 -22 -112 -70 -155 -107 -43 -37 -103
-99 -133 -138 -40 -52 -61 -72 -77 -72 -13 0 -23 6 -23 14 0 18 37 211 50 256
5 19 23 82 40 140 30 101 78 238 117 330 10 25 48 106 85 181 36 75 96 185
133 245 146 237 290 420 479 610 78 77 162 156 187 175 25 19 100 75 166 125
106 80 210 149 347 230 23 14 104 56 181 94 190 93 392 172 583 226 48 14 128
34 177 45 50 11 151 30 225 42 111 17 188 22 435 25 176 2 314 -1 335 -7 19
-5 87 -17 151 -25 64 -9 168 -30 230 -46 63 -16 155 -43 204 -60 50 -18 128
-48 175 -68 47 -20 127 -58 178 -84 52 -27 127 -71 168 -98 42 -28 79 -48 85
-45 5 4 9 12 9 20 0 7 -30 36 -67 63 -38 27 -111 76 -163 109 -87 54 -216 121
-331 172 -69 30 -240 88 -332 111 -45 12 -98 25 -117 30 -138 36 -355 60 -590
65 -107 2 -248 0 -312 -5z m132 -825 c0 -23 -3 -25 -50 -25 -47 0 -50 2 -50
25 0 23 3 25 50 25 47 0 50 -2 50 -25z m-120 -10 c0 -21 -5 -25 -30 -25 -25 0
-30 4 -30 25 0 21 5 25 30 25 25 0 30 -4 30 -25z m-260 -60 c0 -14 -5 -25 -11
-25 -6 0 -25 -6 -42 -14 -87 -38 -138 -56 -156 -56 -15 0 -21 6 -21 24 0 20
12 28 93 59 50 20 102 36 115 37 17 0 22 -6 22 -25z m1427 -497 c15 -21 50
-117 71 -198 11 -41 23 -101 27 -132 3 -32 1 -110 -6 -173 -10 -93 -10 -125
-1 -163 7 -26 31 -78 53 -117 22 -38 69 -106 104 -150 36 -44 65 -90 65 -102
0 -12 -9 -27 -19 -33 -11 -5 -31 -10 -44 -10 -13 0 -50 -13 -83 -29 -32 -16
-67 -31 -76 -34 -10 -4 -18 -15 -18 -26 0 -13 12 -26 34 -36 31 -15 35 -22 41
-68 6 -43 4 -53 -11 -65 -32 -24 -107 -55 -148 -61 -22 -4 -44 -14 -50 -24 -9
-15 -7 -21 11 -35 12 -9 40 -28 63 -42 39 -24 41 -27 35 -60 -4 -19 -7 -53 -7
-75 -1 -22 3 -66 7 -97 6 -41 5 -58 -4 -58 -6 0 -11 -6 -11 -13 0 -8 -10 -19
-22 -25 -13 -6 -42 -16 -65 -23 -31 -9 -53 -9 -85 -1 -24 6 -80 16 -126 23
-45 6 -85 15 -88 20 -3 5 -22 9 -42 9 -38 1 -108 16 -199 44 -82 26 -275 106
-304 127 -15 10 -34 19 -43 19 -9 0 -16 -6 -16 -14 0 -8 21 -40 47 -73 25 -32
75 -88 109 -124 35 -36 66 -79 71 -95 4 -16 7 -60 8 -99 0 -50 -8 -94 -28
-155 -15 -47 -32 -116 -38 -155 -6 -38 -9 -110 -7 -160 4 -66 12 -109 33 -162
20 -54 32 -73 46 -73 10 0 21 5 24 10 3 6 17 10 31 10 14 0 37 -6 52 -14 15
-7 84 -33 154 -55 112 -37 136 -49 203 -103 64 -51 80 -70 111 -134 19 -40 41
-100 47 -133 7 -33 16 -63 20 -67 4 -4 7 -18 7 -31 0 -16 -6 -23 -19 -23 -10
0 -43 11 -73 25 -31 14 -71 25 -97 25 -31 0 -53 7 -75 24 -17 13 -51 34 -76
46 -34 18 -67 25 -133 28 -52 3 -105 0 -131 -8 -36 -10 -52 -9 -96 4 -30 9
-74 16 -99 16 -25 0 -66 -5 -91 -11 -25 -5 -70 -25 -100 -43 -46 -28 -68 -34
-132 -39 -61 -4 -90 -12 -138 -38 -34 -18 -79 -53 -101 -77 -21 -25 -39 -50
-39 -56 0 -7 -17 -18 -37 -25 -21 -8 -58 -27 -83 -44 -25 -17 -55 -42 -68 -56
-13 -14 -36 -53 -53 -86 -22 -46 -29 -74 -29 -120 0 -40 -6 -69 -16 -84 -21
-30 -54 -138 -53 -176 0 -34 21 -121 32 -131 4 -4 7 -18 7 -31 0 -18 -5 -23
-25 -23 -24 0 -92 39 -204 117 -30 21 -91 74 -136 118 -45 45 -104 116 -133
160 -28 43 -65 110 -81 149 -16 39 -37 109 -47 156 -12 62 -15 111 -11 190 3
58 13 132 22 165 9 33 28 87 44 120 15 34 44 83 64 111 20 27 60 72 89 99 29
27 76 64 103 84 28 19 97 59 155 89 58 30 141 75 185 100 44 26 113 78 154
117 40 38 93 97 117 131 24 33 63 103 88 155 25 52 56 130 67 174 12 44 28
116 35 160 7 44 13 147 13 228 1 131 3 148 19 153 69 23 135 54 196 94 39 26
101 79 138 118 47 50 79 97 107 154 22 46 47 112 56 148 21 85 51 173 74 219
11 20 38 60 61 89 30 38 81 78 174 139 72 47 164 118 205 157 40 39 95 104
122 144 26 40 51 82 54 92 4 12 15 20 29 20 13 0 28 -6 33 -12z m-3257 -1333
c0 -18 -5 -25 -19 -25 -11 0 -62 -14 -113 -31 -51 -17 -133 -55 -183 -84 -49
-29 -115 -76 -147 -104 -31 -28 -66 -51 -77 -51 -15 0 -21 6 -21 24 0 16 18
40 57 76 31 28 70 62 87 74 45 34 112 69 190 100 70 28 133 43 194 45 28 1 32
-2 32 -24z m690 -727 c0 -19 -14 -29 -77 -58 -81 -36 -205 -113 -263 -163 -62
-53 -165 -173 -202 -237 -21 -34 -50 -96 -67 -138 -16 -42 -35 -104 -42 -137
-9 -38 -13 -121 -13 -225 1 -136 4 -179 22 -242 12 -43 33 -106 48 -140 14
-35 28 -75 31 -90 5 -24 2 -28 -19 -28 -20 0 -31 13 -65 78 -23 42 -52 109
-66 147 -13 39 -30 112 -37 163 -8 57 -11 136 -7 205 3 63 15 147 27 192 11
44 36 112 54 151 19 40 51 98 71 130 21 33 72 94 114 137 42 43 105 98 141
122 69 45 210 119 270 141 19 7 45 13 58 13 16 1 22 -5 22 -21z M5255 6093
c-58 -13 -117 -42 -177 -86 -38 -27 -68 -53 -68 -58 0 -18 31 -21 63 -6 18 9
53 21 77 28 25 6 78 14 118 16 60 4 84 1 129 -18 56 -23 56 -23 74 0 11 13 19
31 19 40 0 10 -11 28 -24 40 -13 12 -45 29 -71 37 -47 14 -99 16 -140 7z
M5357 5853 c-3 -4 -11 -34 -18 -65 -14 -58 -14 -58 -69 -58 -30 0 -80 7 -110
15 -30 8 -70 15 -87 15 -26 0 -33 -4 -33 -20 0 -11 24 -39 61 -70 33 -28 76
-57 96 -65 19 -8 62 -15 95 -15 62 0 152 21 182 43 11 8 15 19 10 30 -3 9 -12
17 -19 17 -25 0 -50 43 -60 108 -8 48 -16 68 -27 70 -9 2 -18 -1 -21 -5z" />
    </g>
    <g fill="#f2f5ed" stroke="#064f52" stroke-width="4" stroke-linejoin="round" stroke-linecap="round">
      <path d="M3492 6428 c-19 -21 -51 -86 -114 -228 -14 -30 -30 -71 -37 -90 -20
-55 -32 -82 -49 -120 -15 -30 -23 -35 -55 -38 -21 -2 -80 4 -130 13 -126 23
-254 38 -300 37 -21 -1 -46 -6 -57 -12 -11 -6 -20 -19 -20 -28 0 -10 12 -30
28 -44 27 -26 163 -117 287 -193 58 -36 65 -43 65 -72 0 -18 -9 -49 -21 -70
-12 -21 -25 -42 -29 -48 -4 -5 -18 -28 -31 -50 -104 -182 -138 -248 -140 -272
-2 -15 0 -34 5 -41 13 -22 64 -4 146 51 85 57 135 95 200 151 25 21 58 45 74
53 15 8 39 12 52 9 13 -4 51 -41 86 -84 125 -154 204 -240 241 -262 37 -21 39
-21 58 -4 10 9 19 27 19 40 0 24 -18 98 -43 174 -8 25 -20 65 -27 90 -8 25
-17 50 -20 55 -4 6 -15 37 -25 69 -13 42 -15 67 -9 85 5 14 20 31 34 38 24 13
105 47 145 63 32 12 64 26 167 74 53 25 102 54 107 65 6 11 8 26 5 34 -12 31
-54 37 -273 37 -191 0 -220 2 -232 17 -11 12 -16 76 -21 255 -5 159 -11 245
-19 254 -6 8 -19 14 -28 14 -10 0 -27 -10 -39 -22z m51 -89 c8 -13 6 -24 -6
-43 -10 -14 -26 -26 -36 -26 -10 0 -22 7 -25 16 -10 26 -7 62 7 68 21 9 50 2
60 -15z m-31 -114 c8 -19 8 -31 0 -50 -8 -17 -20 -25 -37 -25 -18 0 -26 7 -31
26 -4 14 -2 36 5 50 6 14 19 24 31 24 12 0 25 -10 32 -25z m-20 -130 c9 -19 8
-29 -6 -50 -9 -14 -23 -25 -30 -25 -33 0 -46 13 -46 44 0 18 5 37 12 44 7 7
22 12 35 12 15 0 27 -9 35 -25z m-38 -111 c22 -8 21 -72 -1 -96 -9 -10 -24
-18 -34 -18 -19 0 -49 36 -49 59 0 18 39 61 56 61 7 0 19 -3 28 -6z m-563 -24
c11 -6 19 -21 19 -35 0 -18 -7 -26 -25 -31 -15 -4 -32 -1 -40 6 -15 13 -20 51
-8 63 9 10 31 9 54 -3z m119 -45 c7 -8 10 -25 6 -40 -4 -17 -13 -25 -28 -25
-24 0 -58 26 -58 45 0 18 22 35 46 35 12 0 27 -7 34 -15z m118 -68 c3 -38 3
-38 -35 -35 -36 3 -38 5 -41 41 -3 38 -3 38 35 35 36 -3 38 -5 41 -41z m880 0
c2 -18 -2 -29 -12 -33 -9 -3 -27 -3 -41 0 -15 4 -25 14 -25 24 0 10 6 24 12
30 7 7 24 12 38 10 19 -2 26 -10 28 -31z m-114 17 c9 -4 16 -18 16 -34 0 -16
-7 -30 -16 -34 -9 -3 -27 -6 -40 -6 -20 0 -24 5 -24 30 0 17 7 33 18 39 9 6
20 11 24 11 3 0 13 -3 22 -6z m-642 -31 c10 -9 18 -23 18 -31 0 -23 -30 -52
-54 -52 -12 0 -29 7 -38 14 -10 7 -18 24 -18 38 0 13 5 29 12 36 7 7 23 12 37
12 13 0 33 -7 43 -17z m522 1 c9 -4 16 -18 16 -34 0 -16 -7 -30 -16 -34 -25
-10 -59 -7 -72 6 -7 7 -12 20 -12 30 0 19 25 37 52 38 9 0 23 -3 32 -6z m-119
-44 c3 -11 4 -29 0 -40 -4 -12 -19 -22 -42 -26 -20 -4 -43 -2 -52 3 -9 6 -17
20 -19 32 -2 12 2 29 8 37 8 8 30 14 56 14 34 0 44 -4 49 -20z m-371 -196 c10
-26 7 -47 -11 -66 -9 -10 -30 -18 -50 -18 -32 0 -33 2 -33 38 0 21 5 43 12 50
7 7 26 12 44 12 20 0 34 -6 38 -16z m248 -31 c10 -9 18 -25 18 -36 0 -11 -7
-29 -17 -39 -9 -10 -23 -18 -31 -18 -27 0 -52 32 -52 66 0 18 6 35 13 37 24
10 51 7 69 -10z m-354 -65 c7 -7 12 -23 12 -36 0 -14 -8 -31 -17 -38 -10 -7
-28 -14 -39 -14 -22 0 -34 17 -34 48 0 21 29 52 50 52 9 0 21 -5 28 -12z m420
-60 c7 -7 12 -29 12 -50 0 -35 -2 -38 -30 -38 -20 0 -35 8 -46 25 -10 16 -14
34 -10 50 5 19 13 25 34 25 15 0 33 -5 40 -12z m-500 -70 c3 -22 -2 -30 -23
-40 -21 -10 -29 -9 -42 5 -14 13 -15 21 -5 42 10 21 18 26 40 23 21 -2 28 -9
30 -30z m557 -73 c0 -27 -3 -30 -30 -30 -27 0 -30 4 -33 33 -3 32 -2 33 30 30
29 -3 33 -6 33 -33z m-627 -11 c2 -11 -6 -28 -17 -38 -11 -10 -28 -16 -38 -14
-19 3 -29 38 -19 64 4 10 17 14 38 12 24 -2 34 -8 36 -24z m686 -60 c3 -9 6
-24 6 -35 0 -11 -9 -21 -24 -25 -14 -3 -30 -3 -35 1 -12 7 -15 58 -4 68 3 4
16 7 29 7 12 0 25 -7 28 -16z" />
    </g>
    <g fill="#c4ddd7" stroke="#064f52" stroke-width="4" stroke-linejoin="round" stroke-linecap="round">
      <path d="M4398 7043 c37 -4 42 -7 42 -29 0 -23 -2 -24 -70 -24 -68 0 -70 1
-70 25 0 14 -4 25 -8 25 -5 0 -7 -13 -4 -29 3 -25 0 -29 -28 -35 -18 -3 -43
-6 -56 -6 -17 0 -24 7 -27 28 -4 25 -4 25 -6 -5 -1 -27 -6 -34 -28 -38 -40 -8
-153 -44 -188 -60 -72 -32 -109 -45 -126 -45 -11 0 -19 -4 -19 -10 0 -5 -9
-10 -20 -10 -11 0 -20 -4 -20 -10 0 -5 -16 -10 -35 -10 -30 0 -35 4 -35 23 -1
19 -2 20 -13 7 -7 -9 -23 -21 -37 -27 -14 -6 -19 -12 -12 -12 18 -1 15 -48 -4
-55 -28 -11 -54 -6 -54 9 0 14 -2 14 -23 0 -18 -12 -23 -22 -19 -45 2 -17 7
-30 10 -30 3 0 38 20 78 45 81 51 160 88 224 105 24 6 70 24 104 39 34 15 81
33 106 40 25 7 55 17 68 22 13 5 35 9 50 9 16 0 32 4 38 9 5 5 41 12 79 16 99
9 347 10 430 1 39 -4 79 -11 90 -16 11 -5 34 -11 50 -15 85 -17 117 -28 200
-65 11 -5 35 -12 53 -15 18 -4 36 -13 39 -21 3 -8 11 -14 17 -14 7 0 31 -16
53 -35 23 -19 44 -35 47 -35 3 0 6 6 6 14 0 7 -9 16 -21 19 -11 3 -23 14 -25
25 -6 22 -53 52 -83 52 -12 0 -21 6 -21 15 0 8 -9 15 -20 15 -11 0 -20 3 -20
8 0 4 -15 13 -32 20 -18 7 -41 18 -50 23 -12 6 -18 6 -18 -1 0 -5 -11 -10 -25
-10 -17 0 -25 5 -25 18 0 11 -12 21 -35 28 -19 6 -35 7 -35 3 0 -5 -11 -9 -25
-9 -15 0 -25 6 -25 14 0 8 -7 17 -16 20 -9 3 -18 6 -20 6 -2 0 -4 -7 -4 -15 0
-9 -9 -15 -25 -15 -18 0 -28 7 -35 25 -5 14 -16 25 -25 25 -8 0 -15 -9 -15
-20 0 -15 -7 -20 -25 -20 -20 0 -25 5 -25 24 0 22 -4 23 -82 29 -46 4 -108 6
-138 5 -50 -1 -51 -2 -12 -5z M3487 6433 c-24 -28 -109 -203 -103 -216 3 -9 5
-8 5 1 1 6 12 12 26 12 21 0 25 -5 26 -32 2 -31 2 -31 6 -5 4 22 9 27 34 27
24 0 29 4 29 23 0 13 5 28 12 35 7 7 22 12 35 12 22 0 23 4 22 63 -1 34 -4 50
-6 35 -4 -24 -9 -28 -39 -28 -31 0 -34 3 -34 29 0 29 14 41 51 41 11 0 17 5
14 10 -10 16 -61 11 -78 -7z m43 -113 c0 -25 -4 -30 -25 -30 -21 0 -25 5 -25
30 0 25 4 30 25 30 21 0 25 -5 25 -30z M3322 6076 c-12 -32 -22 -59 -22 -61 0
-2 9 -1 20 2 11 3 20 9 20 14 0 5 16 9 36 9 35 0 36 -1 32 -35 -3 -31 -1 -35
18 -35 13 0 34 -4 48 -10 21 -7 26 -6 26 5 0 8 -4 15 -10 15 -5 0 -10 14 -10
30 0 27 -3 30 -30 30 -27 0 -30 3 -31 33 -1 17 -3 24 -6 15 -3 -11 -14 -18
-27 -18 -17 0 -25 8 -32 32 -10 32 -10 32 -32 -26z M2798 6003 c32 -4 32 -5
32 -58 0 -47 -3 -54 -21 -57 -18 -3 -15 -8 25 -36 l46 -33 0 35 c0 31 3 36 23
36 13 0 32 -9 42 -19 10 -12 33 -21 59 -23 38 -3 41 -5 44 -35 3 -32 3 -32
-48 -35 l-52 -3 64 -36 63 -37 5 42 c3 22 9 47 13 54 5 6 19 12 32 12 16 0 26
-8 31 -22 7 -21 9 -19 14 12 4 31 9 36 40 41 31 6 30 7 -16 8 -43 1 -54 5 -68
26 -9 13 -16 38 -16 55 0 26 4 30 28 31 15 1 3 5 -27 10 -30 5 -60 7 -65 5 -6
-2 -1 -5 12 -5 12 -1 22 -7 22 -16 0 -8 5 -15 10 -15 6 0 10 -11 10 -25 0 -22
-4 -25 -33 -25 -18 0 -38 5 -45 12 -9 9 -12 7 -12 -10 0 -18 -6 -22 -30 -22
-25 0 -30 4 -30 24 0 19 6 26 28 29 16 2 9 5 -20 6 -46 1 -48 2 -48 31 0 26 4
30 28 31 44 3 -68 17 -123 17 -34 -1 -39 -3 -17 -5z m322 -153 c0 -27 -3 -30
-30 -30 -27 0 -30 3 -30 30 0 27 3 30 30 30 27 0 30 -3 30 -30z M3720 5906 c0
-10 -14 -16 -42 -19 l-43 -4 43 -1 c38 -2 42 -5 42 -27 0 -20 5 -25 25 -25 23
0 25 4 25 40 0 40 0 40 45 40 41 0 45 -2 45 -24 0 -13 -6 -27 -12 -29 -7 -3 2
-6 20 -6 27 -1 32 -5 32 -24 0 -20 4 -23 35 -19 32 4 35 2 35 -22 0 -14 3 -26
6 -26 3 0 30 12 60 26 30 14 54 32 54 40 0 8 -7 14 -15 14 -8 0 -15 -4 -15
-10 0 -5 -11 -10 -24 -10 -21 0 -25 6 -31 50 l-7 50 -139 0 c-114 0 -139 -3
-139 -14z M3072 5566 c-11 -25 -10 -26 18 -26 25 0 30 -4 30 -25 0 -21 5 -25
31 -25 27 0 30 -3 27 -27 -2 -23 -8 -29 -35 -31 -30 -3 -33 -1 -33 25 0 22 -2
25 -10 13 -5 -8 -10 -27 -10 -42 0 -26 -3 -28 -39 -28 -36 0 -40 3 -43 28 -3
23 -10 14 -55 -68 -49 -88 -51 -95 -32 -98 11 -2 29 -12 39 -22 10 -10 20 -28
22 -40 3 -21 6 -20 68 22 61 40 63 43 38 46 -22 3 -28 9 -28 27 0 14 9 29 20
35 14 8 20 21 20 45 0 32 3 35 29 35 17 0 33 5 36 10 3 6 17 10 31 10 14 0 24
6 24 14 0 8 6 21 13 28 7 7 16 21 20 31 5 14 1 17 -23 17 -27 0 -30 3 -30 34
0 29 -3 33 -20 29 -11 -3 -20 -12 -20 -19 0 -9 -11 -14 -30 -14 -22 0 -33 6
-38 21 -8 20 -8 20 -20 -5z m18 -201 c0 -20 -5 -25 -25 -25 -20 0 -25 5 -25
25 0 20 5 25 25 25 20 0 25 -5 25 -25z M3646 5493 c-7 -46 -11 -53 -30 -53
-19 0 -21 -4 -18 -40 4 -38 3 -40 -24 -41 -24 -1 -25 -2 -6 -6 19 -4 22 -11
22 -49 0 -44 0 -44 -36 -44 -36 0 -36 0 27 -72 55 -61 64 -68 67 -50 3 16 11
22 30 23 24 2 24 2 5 6 -16 3 -23 11 -23 29 0 19 5 24 25 24 20 0 25 -5 25
-25 0 -21 5 -25 31 -25 34 0 34 -9 -2 110 -18 59 -24 69 -27 48 -3 -22 -9 -28
-28 -28 -13 0 -24 5 -24 10 0 6 -11 16 -25 22 -18 8 -25 19 -25 40 0 18 5 28
15 28 8 0 15 5 15 10 0 6 11 10 25 10 14 0 25 6 24 13 0 6 -9 35 -18 62 l-18
50 -7 -52z m4 -198 c0 -20 -5 -25 -25 -25 -20 0 -25 5 -25 25 0 20 5 25 25 25
20 0 25 -5 25 -25z M2644 5218 c-3 -4 -14 -8 -25 -8 -12 0 -19 -7 -19 -20 0
-16 -7 -20 -30 -20 -16 0 -30 4 -30 8 0 5 -13 7 -30 4 -17 -2 -30 -10 -30 -18
0 -8 -12 -19 -26 -24 -14 -6 -43 -10 -65 -10 -32 0 -39 3 -39 20 0 16 -7 20
-33 20 -32 0 -33 -2 -29 -30 4 -28 2 -30 -26 -30 -17 0 -41 -4 -54 -9 -13 -5
-43 -14 -68 -21 -50 -14 -142 -46 -180 -63 -14 -7 -57 -31 -96 -54 -40 -24
-104 -73 -143 -109 -39 -36 -71 -70 -71 -76 0 -6 35 21 78 59 71 64 102 86
187 135 51 30 119 61 150 69 17 4 55 15 85 24 61 17 217 45 295 52 28 3 55 9
60 13 6 4 30 10 55 14 47 7 143 47 154 64 3 6 -10 12 -30 14 -19 2 -37 0 -40
-4z M3390 4600 c0 -5 -6 -10 -14 -10 -8 0 -34 -10 -58 -21 -23 -12 -52 -25
-63 -29 -11 -4 -31 -12 -45 -18 -22 -9 -41 -14 -127 -37 -16 -4 -23 -14 -23
-31 0 -17 -5 -24 -20 -24 -11 0 -20 -4 -20 -10 0 -5 -16 -10 -35 -10 -29 0
-35 4 -35 21 0 12 -5 19 -12 16 -8 -2 -12 -16 -10 -35 3 -24 -1 -34 -15 -39
-10 -3 -55 -23 -100 -44 -44 -20 -122 -64 -171 -98 -50 -33 -93 -65 -97 -71
-12 -19 13 -10 43 15 17 14 34 25 40 25 5 0 15 7 22 15 21 25 119 79 210 115
47 18 90 36 95 40 6 4 39 17 75 29 36 12 74 26 85 30 24 9 236 115 284 141 19
11 39 24 45 30 7 7 0 10 -22 10 -18 0 -32 -4 -32 -10z M2452 4065 c-63 -67
-116 -145 -148 -215 -19 -44 -51 -143 -65 -205 -18 -78 -18 -342 -1 -410 23
-89 55 -190 64 -200 12 -14 9 15 -7 60 -8 22 -15 50 -15 62 0 12 -4 24 -9 27
-18 11 -35 152 -33 274 0 68 5 129 10 135 5 7 12 28 15 47 10 71 38 157 79
238 25 51 70 116 116 168 40 47 72 87 69 90 -2 3 -36 -29 -75 -71z M6653 4003
c-18 -8 -33 -19 -33 -23 0 -4 -9 -10 -20 -13 -12 -3 -20 -14 -20 -26 0 -16 -6
-21 -25 -21 -18 0 -25 -5 -25 -19 0 -10 -9 -21 -20 -24 -15 -4 -20 -14 -20
-41 0 -28 -4 -36 -18 -36 -15 0 -18 -6 -14 -30 3 -24 1 -30 -14 -30 -12 0 -15
-3 -8 -8 7 -4 13 -15 15 -25 3 -15 11 -11 46 22 23 23 51 41 62 41 32 0 51 11
51 31 0 12 9 21 28 24 15 4 35 10 44 16 29 15 120 10 174 -10 59 -21 127 -66
165 -108 14 -15 36 -46 47 -68 12 -22 30 -69 42 -104 15 -49 20 -91 20 -175
-1 -61 -7 -136 -14 -166 -22 -91 -65 -210 -108 -298 -22 -46 -38 -85 -36 -88
5 -4 88 139 88 151 0 4 15 39 34 78 18 40 37 92 41 117 3 25 11 60 16 78 7 20
17 32 29 32 9 0 23 7 30 15 10 12 10 19 2 27 -7 7 -12 20 -12 30 0 10 -7 18
-15 18 -8 0 -15 2 -15 4 0 2 -7 42 -15 90 -8 48 -19 94 -25 104 -5 9 -16 40
-25 67 -11 37 -32 66 -80 115 -43 42 -65 72 -65 88 0 20 -4 22 -32 17 -18 -3
-67 3 -108 13 -72 18 -75 20 -78 50 -3 28 0 31 34 38 49 9 196 -1 222 -15 13
-7 22 -21 22 -36 0 -13 5 -27 11 -30 5 -4 32 -7 58 -7 41 1 53 -4 80 -30 21
-20 31 -40 31 -60 0 -32 20 -58 44 -58 15 0 47 -39 60 -75 19 -50 36 -130 36
-168 -1 -23 -7 -53 -15 -67 -8 -14 -14 -33 -15 -42 0 -13 8 -18 25 -18 24 0
25 -2 25 -70 0 -38 -4 -79 -9 -92 -5 -13 -14 -59 -21 -103 -6 -44 -14 -91 -17
-104 -4 -15 -2 -22 4 -18 6 4 13 21 16 39 3 18 13 67 22 108 11 49 18 124 18
220 1 89 -3 166 -11 200 -8 30 -17 64 -22 75 -4 11 -14 36 -21 55 -19 52 -107
177 -152 216 -43 36 -142 88 -192 100 -38 9 -198 9 -247 -1 -34 -7 -37 -5 -40
19 -3 25 -3 25 -35 9z m27 -118 c0 -20 -5 -25 -25 -25 -20 0 -25 5 -25 25 0
20 5 25 25 25 20 0 25 -5 25 -25z M1536 3779 c-2 -8 -7 -25 -11 -39 -3 -14
-11 -41 -16 -60 -23 -85 -39 -234 -39 -364 0 -77 5 -167 11 -200 11 -62 34
-167 49 -221 8 -30 8 -30 9 7 1 20 -3 40 -9 43 -5 3 -10 25 -10 49 0 23 -4 46
-9 52 -5 5 -12 41 -17 79 -11 103 -8 382 6 440 6 28 15 70 20 95 4 25 13 62
20 83 6 22 9 41 6 44 -3 3 -7 0 -10 -8z M2530 2111 c0 -10 19 -34 41 -52 23
-19 45 -35 49 -37 4 -2 26 -21 49 -42 23 -22 50 -44 61 -50 17 -9 20 -8 20 14
0 19 6 25 28 28 26 3 26 4 -13 23 -22 10 -42 22 -45 25 -3 4 -20 13 -37 21
-18 8 -33 17 -33 21 0 5 -11 8 -25 8 -16 0 -25 6 -25 15 0 8 -6 15 -14 15 -8
0 -16 7 -20 15 -8 21 -36 19 -36 -4z M3282 1759 c9 -5 61 -23 115 -40 94 -30
128 -39 218 -59 22 -5 60 -14 85 -20 61 -14 266 -49 360 -60 41 -5 159 -14
262 -21 139 -8 221 -8 325 0 76 6 161 15 188 21 41 7 36 8 -30 3 -44 -4 -190
-7 -325 -7 -230 0 -360 8 -525 35 -38 6 -95 15 -125 19 -53 8 -91 16 -190 39
-99 23 -227 59 -291 81 -60 22 -96 27 -67 9z" />
    </g>
    <g fill="#98c9c1" stroke="#064f52" stroke-width="4" stroke-linejoin="round" stroke-linecap="round">
      <path d="M5790 7536 c0 -15 -7 -26 -17 -29 -16 -3 -16 -5 2 -11 11 -5 52 -23
90 -42 70 -34 70 -34 73 -8 2 15 0 30 -5 34 -4 5 -38 25 -75 44 -68 36 -68 36
-68 12z M4720 6997 c0 -23 0 -23 -177 -24 -98 0 -209 -4 -248 -8 -38 -3 -74
-11 -79 -16 -6 -5 -22 -9 -38 -9 -15 0 -37 -4 -50 -9 -13 -5 -43 -15 -68 -22
-25 -7 -72 -25 -106 -40 -34 -15 -80 -33 -104 -39 -63 -17 -145 -55 -217 -100
-34 -22 -69 -40 -78 -40 -8 0 -15 -4 -15 -10 0 -5 -11 -10 -25 -10 -17 0 -25
6 -25 18 -1 14 -3 14 -19 -5 -11 -13 -23 -23 -28 -24 -4 0 -32 -28 -60 -61
-29 -33 -53 -69 -53 -79 0 -11 -6 -19 -14 -19 -8 0 -28 -22 -45 -48 -17 -27
-31 -52 -31 -56 0 -3 -16 -40 -35 -80 -19 -41 -35 -79 -35 -85 0 -6 -4 -19 -9
-29 -5 -9 -15 -30 -22 -47 -7 -16 -15 -33 -17 -37 -2 -5 12 -8 30 -8 28 0 35
5 46 33 7 17 18 41 25 52 19 33 87 175 87 181 0 8 80 126 104 152 12 13 39 33
60 44 31 16 51 19 90 14 38 -4 56 -12 77 -36 15 -16 30 -39 34 -50 3 -11 10
-20 14 -20 3 0 31 25 61 55 37 38 49 55 37 55 -12 0 -17 8 -17 25 0 21 9 30
43 45 23 11 54 20 70 20 19 0 27 -5 28 -17 0 -11 3 -13 6 -5 2 6 12 12 20 12
9 0 63 18 122 39 100 37 243 71 297 71 18 0 24 -5 24 -22 0 -20 -14 -28 -108
-62 -59 -21 -145 -61 -192 -89 -96 -57 -188 -127 -241 -184 -57 -60 -119 -154
-119 -180 0 -12 2 -23 5 -23 3 0 16 12 29 27 18 20 37 29 82 35 32 5 87 11
122 14 60 6 62 6 62 -17 0 -14 -18 -42 -43 -69 -24 -25 -60 -70 -80 -102 l-36
-56 87 -7 c79 -6 122 -13 205 -31 24 -6 34 0 72 41 43 45 46 47 87 41 24 -3
63 -7 86 -8 33 -2 46 1 53 14 6 11 4 18 -7 22 -9 3 -27 6 -40 6 -22 0 -25 4
-22 28 2 19 9 28 26 30 12 2 22 8 22 14 0 13 37 44 80 67 19 10 96 39 171 64
75 26 175 65 222 87 58 26 112 62 161 105 50 43 84 65 100 65 20 0 27 -7 33
-31 9 -31 9 -31 35 17 14 27 33 77 42 110 9 34 16 67 16 74 0 19 -78 88 -116
102 -19 6 -34 15 -34 19 0 14 -225 103 -312 123 -25 6 -28 4 -28 -19 0 -21 -5
-25 -30 -25 -25 0 -30 4 -30 24 0 15 7 26 18 29 10 3 6 5 -10 6 -23 1 -28 -3
-28 -22z m380 -251 c0 -16 -20 -44 -58 -83 -60 -61 -139 -115 -234 -158 -30
-14 -89 -34 -130 -44 -42 -11 -127 -27 -191 -36 -63 -8 -137 -22 -164 -30 -26
-8 -56 -15 -65 -15 -27 0 -23 44 5 58 32 16 170 62 252 82 97 25 179 53 183
62 2 4 15 8 28 8 13 0 32 4 42 9 9 5 51 26 92 45 42 20 103 56 135 81 33 25
70 45 83 45 17 0 22 -6 22 -24z M5531 6678 c13 -18 26 -35 29 -38 3 -3 12 -25
19 -50 7 -25 24 -79 37 -120 13 -41 24 -86 24 -100 0 -14 4 -31 9 -38 7 -11
10 -10 15 3 3 9 6 56 6 105 0 87 0 87 -48 161 -27 41 -61 82 -75 92 -14 9 -29
17 -32 17 -4 0 4 -15 16 -32z M3443 6373 c-13 -23 -23 -43 -23 -47 0 -3 9 -6
21 -6 11 0 28 -9 37 -21 11 -13 23 -18 35 -14 9 4 17 11 17 16 0 5 11 9 24 9
18 0 26 -7 29 -22 2 -13 4 4 4 37 0 33 -2 50 -4 38 -2 -13 -11 -23 -19 -23 -8
0 -32 6 -54 12 -30 10 -40 18 -42 37 -3 22 -5 20 -25 -16z M3944 5859 c-4 -7
-22 -9 -49 -4 -37 5 -45 3 -58 -16 -12 -16 -23 -20 -41 -17 -23 5 -26 2 -26
-24 0 -17 4 -27 10 -23 6 3 10 13 10 21 0 17 41 19 57 3 12 -12 53 -3 53 12 0
5 18 9 41 9 41 0 76 21 64 40 -8 13 -52 13 -61 -1z M4499 5742 c-44 -33 -99
-61 -194 -97 -38 -14 -87 -37 -107 -51 -21 -13 -42 -24 -48 -24 -14 0 -100
-86 -100 -100 0 -5 7 -10 15 -10 11 0 15 -11 15 -36 0 -35 1 -35 33 -29 17 4
46 13 64 20 17 7 72 41 121 74 61 41 101 76 123 108 18 27 35 50 39 53 9 7 76
93 84 108 4 6 4 12 -1 12 -4 0 -24 -13 -44 -28z M2758 5288 c-13 -13 -31 -23
-73 -45 -68 -36 -139 -53 -256 -62 -76 -7 -83 -8 -36 -10 53 -1 57 -3 57 -25
0 -19 -6 -24 -37 -30 -21 -3 -53 -6 -71 -6 -18 0 -40 -4 -50 -9 -9 -5 -57 -18
-107 -30 -49 -12 -104 -26 -122 -30 -43 -11 -126 -54 -230 -117 -47 -29 -211
-177 -212 -191 -1 -7 -10 -22 -21 -33 -11 -11 -20 -27 -20 -35 0 -9 -9 -15
-24 -15 -15 0 -26 7 -29 18 -3 15 -5 15 -11 -3 -4 -11 -11 -29 -15 -40 -22
-56 -28 -85 -20 -85 5 0 9 -16 9 -35 0 -28 -4 -35 -19 -35 -11 0 -21 -9 -24
-22 -3 -13 -9 -51 -13 -85 -3 -35 -4 -63 0 -63 4 0 14 17 22 38 9 20 43 84 77
141 40 66 79 117 109 142 41 35 52 39 93 37 46 -1 50 1 93 51 25 29 81 76 126
105 45 29 91 58 102 64 12 6 77 30 144 52 68 22 143 40 166 40 66 0 184 23
184 35 0 14 63 66 108 89 17 9 32 21 32 27 0 5 11 20 24 32 13 13 34 49 45 82
11 32 19 60 17 62 -2 2 -10 -2 -18 -9z M2973 5020 c-42 -22 -118 -53 -168 -69
-57 -19 -171 -41 -314 -61 -128 -18 -245 -40 -275 -51 -72 -29 -207 -95 -230
-113 -11 -9 -18 -18 -15 -20 2 -2 45 7 94 20 78 21 114 24 270 25 144 1 173 4
143 12 -33 9 -38 15 -38 39 0 26 2 28 43 28 24 0 66 -7 93 -15 27 -8 58 -15
70 -15 11 0 34 6 50 14 16 8 64 19 107 25 43 5 90 17 105 26 15 10 46 33 69
52 31 24 44 44 49 70 4 21 16 45 28 55 12 9 16 17 9 18 -7 0 -47 -18 -90 -40z
M3792 4935 c-21 -7 -76 -54 -143 -123 -61 -62 -113 -112 -117 -112 -4 0 -18
-10 -32 -23 -33 -30 -199 -115 -280 -143 -36 -13 -55 -23 -42 -23 16 -1 22 -7
22 -25 0 -17 -8 -27 -32 -36 -18 -7 -42 -16 -53 -20 -11 -5 -49 -19 -85 -31
-36 -12 -69 -25 -75 -29 -5 -4 -48 -22 -95 -40 -86 -34 -170 -79 -203 -108 -9
-8 -25 -20 -35 -26 -60 -36 -87 -60 -159 -144 -51 -58 -96 -123 -122 -175 -22
-45 -48 -109 -57 -142 -31 -116 -40 -144 -44 -149 -3 -2 -4 -77 -4 -166 2
-154 5 -172 35 -232 5 -10 9 -26 9 -35 1 -25 33 -116 69 -195 17 -37 31 -76
31 -87 0 -13 -8 -21 -22 -23 -21 -3 -21 -5 16 -45 21 -24 45 -43 52 -43 8 0
14 -5 14 -10 0 -6 14 -26 32 -45 17 -19 39 -35 48 -35 10 0 20 -8 22 -18 4
-15 57 -56 132 -104 6 -4 47 -24 91 -44 44 -19 97 -44 118 -55 22 -10 44 -19
50 -19 6 0 -9 17 -34 37 -24 20 -66 59 -93 87 -57 60 -181 222 -218 286 -41
71 -115 264 -134 347 -10 45 -17 124 -18 199 0 68 -2 119 -4 114 -2 -6 -15
-10 -28 -10 -18 0 -24 5 -24 21 0 33 56 191 96 271 20 40 54 97 77 126 32 42
41 62 41 95 1 38 4 42 28 45 18 2 27 -2 30 -13 2 -13 17 -6 67 34 48 39 58 51
42 51 -16 0 -21 6 -21 25 0 21 5 25 30 25 23 0 30 -4 30 -20 0 -11 3 -20 6
-20 11 0 169 85 172 93 2 4 13 7 25 7 25 0 149 44 247 87 102 45 162 74 173
85 7 6 11 24 9 38 -3 20 3 33 24 49 20 16 39 21 67 19 32 -2 45 3 68 26 17 18
29 40 29 56 0 14 5 31 12 38 7 7 20 12 29 12 10 0 34 23 55 51 21 28 55 97 76
152 21 55 37 101 35 102 -1 1 -17 -4 -35 -10z M3897 4565 c-22 -44 -153 -195
-209 -241 -83 -70 -173 -120 -358 -201 -95 -42 -160 -75 -160 -83 0 -5 -8 -11
-17 -13 -14 -4 -12 -5 5 -6 12 0 22 -7 22 -14 0 -7 12 -28 28 -46 l27 -33 55
32 c30 18 57 36 58 41 2 5 12 9 23 9 10 0 19 5 19 10 0 6 8 10 18 10 9 0 46
14 82 31 71 34 173 104 205 139 18 20 18 22 2 31 -11 7 -17 22 -17 44 0 33 2
35 35 35 30 0 35 -3 35 -22 0 -22 0 -22 19 -3 10 11 39 50 64 88 25 37 48 82
52 100 4 17 13 47 21 65 9 18 14 38 11 45 -2 7 -11 -2 -20 -18z M2238 4540
c-54 -10 -103 -20 -110 -23 -7 -3 -3 -6 10 -6 17 -1 22 -7 22 -26 0 -20 -5
-25 -24 -25 -13 0 -26 -3 -28 -7 -4 -11 -86 -63 -98 -63 -5 0 -10 -3 -10 -7 0
-5 -17 -19 -38 -33 -48 -32 -200 -184 -232 -232 -14 -21 -28 -38 -32 -38 -5 0
-8 -4 -8 -9 0 -5 -17 -38 -38 -72 -41 -69 -80 -159 -111 -254 -11 -33 -27 -98
-35 -145 -22 -121 -33 -294 -24 -364 5 -34 10 -87 12 -118 3 -32 7 -61 9 -65
2 -5 8 -29 11 -55 4 -26 11 -50 17 -53 5 -4 9 -18 9 -32 0 -41 68 -217 131
-340 32 -62 67 -126 78 -142 12 -16 21 -32 21 -35 0 -9 100 -157 122 -180 10
-11 18 -15 18 -9 0 7 -6 18 -13 25 -29 30 -157 232 -157 249 0 4 -13 30 -29
57 -16 27 -32 59 -36 71 -3 12 -4 35 0 51 6 26 11 30 40 30 58 0 135 -21 155
-42 10 -12 27 -37 36 -56 9 -19 33 -53 53 -76 20 -23 54 -65 76 -93 21 -29 43
-53 48 -53 8 0 -8 25 -52 80 -12 14 -21 30 -21 37 0 6 -4 13 -9 15 -12 4 -113
162 -143 223 -14 28 -37 70 -52 95 -14 25 -35 72 -45 105 -11 33 -27 78 -36
99 -24 56 -52 213 -60 331 -4 55 -2 146 4 203 6 56 18 132 27 170 20 78 88
230 133 296 23 33 39 46 56 46 14 0 25 -7 28 -17 3 -14 7 -12 18 11 14 31 43
66 120 151 26 27 48 59 50 70 3 13 14 21 32 23 15 2 27 8 27 13 0 5 4 9 10 9
12 0 117 67 125 80 4 6 -5 10 -19 10 -22 0 -26 5 -26 30 0 19 7 33 19 40 11 5
31 10 45 10 21 0 26 -5 26 -25 0 -14 5 -25 10 -25 6 0 31 11 57 24 25 14 51
36 58 50 11 21 11 25 -2 30 -27 11 -127 4 -225 -14z m-88 -152 c0 -27 -8 -38
-40 -61 -26 -18 -50 -27 -68 -25 -21 2 -28 9 -30 30 -3 21 5 32 40 57 24 16
55 30 71 31 24 0 27 -4 27 -32z M6760 3953 c-8 -3 -18 -10 -21 -16 -4 -5 -28
-12 -53 -14 -37 -5 -56 -14 -89 -44 -22 -22 -47 -39 -54 -39 -7 0 -13 -4 -13
-10 0 -15 -47 -12 -53 3 -3 6 -8 -3 -12 -20 -4 -18 -11 -33 -15 -33 -4 0 -10
-9 -13 -20 -3 -11 -1 -20 4 -20 5 0 9 -11 9 -25 0 -15 -6 -25 -14 -25 -14 0
-26 -21 -26 -47 0 -8 20 7 45 35 25 28 67 61 93 74 33 16 73 24 137 29 l90 6
-97 1 c-95 2 -98 3 -98 25 0 15 9 26 28 33 49 20 139 37 168 31 16 -3 58 -11
94 -18 59 -12 69 -18 115 -68 28 -30 62 -66 77 -79 15 -14 34 -48 43 -76 9
-28 20 -59 25 -68 13 -24 40 -181 40 -235 0 -24 -5 -53 -10 -63 -6 -10 -17
-53 -24 -94 -8 -41 -22 -85 -30 -98 -8 -13 -24 -47 -35 -76 -12 -29 -42 -90
-68 -135 -48 -83 -162 -256 -194 -292 -9 -11 -34 -40 -56 -65 -74 -86 -254
-260 -269 -260 -6 0 -20 -10 -32 -22 -11 -13 -31 -31 -44 -41 -152 -116 -344
-232 -524 -318 -77 -37 -192 -84 -255 -105 -63 -20 -122 -41 -131 -45 -19 -9
-310 -87 -376 -100 -75 -15 -354 -52 -427 -57 -108 -7 -318 -7 -435 -1 -107 6
-478 58 -560 79 -25 7 -81 20 -125 30 -109 25 -369 110 -469 153 -21 9 -42 17
-45 17 -4 0 -36 14 -72 31 -215 104 -280 138 -332 176 -31 24 -61 43 -66 43
-5 0 -11 6 -14 13 -3 8 -7 6 -12 -6 -9 -21 4 -33 168 -154 128 -94 243 -168
401 -258 97 -55 222 -115 341 -165 139 -58 231 -92 281 -104 34 -9 94 -27 135
-40 41 -13 101 -30 134 -36 33 -7 69 -16 80 -21 34 -14 197 -41 275 -46 41 -2
82 -7 90 -10 16 -7 222 -17 335 -17 124 1 253 9 261 17 4 4 40 7 80 7 40 0 83
4 96 9 13 5 55 14 93 21 39 6 79 15 90 20 11 5 54 16 95 26 69 15 196 54 245
74 11 4 36 13 55 20 19 7 63 25 98 41 35 16 69 29 75 29 7 0 17 4 22 9 6 5 54
32 107 59 53 28 117 64 142 81 24 17 47 31 50 31 10 0 171 117 185 134 8 9 20
16 27 16 8 0 14 5 14 10 0 6 8 14 18 17 19 7 54 44 48 50 -2 3 -12 -2 -23 -11
-123 -100 -307 -227 -395 -274 -29 -16 -71 -39 -92 -51 -22 -13 -80 -41 -130
-63 -79 -35 -144 -60 -321 -123 -22 -8 -50 -15 -63 -15 -12 0 -30 -4 -40 -9
-24 -13 -122 -37 -222 -55 -47 -8 -132 -19 -190 -26 -58 -6 -148 -16 -201 -22
-53 -6 -128 -8 -165 -4 -38 3 -131 11 -207 16 -171 12 -296 27 -335 41 -19 6
-32 19 -36 35 -4 13 -13 24 -21 24 -8 0 -15 -7 -15 -15 0 -11 -11 -15 -37 -15
-52 0 -103 20 -103 41 0 30 12 49 30 49 10 0 20 7 24 15 3 9 18 15 37 15 18 0
61 -5 96 -11 40 -7 63 -16 63 -24 0 -23 19 -28 44 -12 18 12 75 16 287 20 181
4 278 10 308 19 l45 14 -42 13 c-36 12 -42 18 -42 42 0 25 4 28 47 35 25 4 86
4 135 0 71 -5 88 -3 88 8 0 16 8 19 185 70 50 14 100 26 113 26 13 0 22 -6 22
-15 0 -10 10 -15 34 -15 32 0 35 3 38 33 3 28 7 32 36 35 18 2 40 -2 48 -9 8
-6 14 -25 14 -41 0 -16 6 -31 14 -34 16 -6 85 26 133 62 17 13 38 24 45 24 17
1 120 35 150 51 36 19 81 59 93 83 9 17 20 21 55 21 34 0 56 8 91 32 40 28 45
35 41 62 -3 21 2 34 17 47 12 10 21 28 21 41 0 12 10 29 22 37 12 9 34 16 49
16 27 0 39 -15 39 -51 0 -10 4 -19 10 -19 5 0 35 21 67 46 32 26 63 52 68 58
6 6 26 22 46 36 48 33 209 204 242 257 15 23 41 52 57 65 17 12 47 47 67 78
20 30 48 69 63 85 15 17 39 49 54 73 17 27 33 42 47 42 11 0 34 -7 51 -16 27
-14 30 -19 25 -50 -3 -19 -15 -47 -27 -64 -11 -16 -26 -44 -32 -62 -6 -18 -24
-50 -39 -70 -16 -21 -38 -57 -48 -80 -10 -24 -45 -77 -78 -118 -32 -41 -67
-87 -77 -102 -11 -17 -14 -28 -7 -28 6 0 11 3 11 8 0 4 12 21 28 38 32 35 132
172 132 180 0 3 8 18 19 32 42 59 135 242 172 337 21 55 39 106 39 113 0 7 4
20 9 30 23 42 42 115 52 193 6 46 13 123 16 172 4 73 2 88 -11 93 -13 5 -15
18 -10 73 4 44 1 84 -9 121 -8 30 -20 68 -26 84 -7 16 -29 46 -50 66 -21 20
-41 48 -44 62 -4 14 -21 40 -39 57 -18 17 -50 37 -73 43 -22 7 -47 19 -55 28
-8 9 -26 23 -40 30 -15 8 -67 15 -125 17 -55 1 -107 0 -115 -4z M2838 3706
c-16 -27 -28 -54 -28 -62 0 -7 -4 -16 -10 -19 -5 -3 -10 -17 -10 -30 0 -13 -4
-27 -10 -30 -5 -3 -10 -20 -10 -36 0 -18 4 -28 10 -24 6 3 10 15 10 26 0 13 7
19 24 19 18 0 27 -8 35 -32 6 -17 13 -29 15 -27 8 8 86 164 86 172 0 4 -11 7
-23 7 -13 0 -31 8 -40 18 -8 9 -17 28 -19 42 -3 23 -6 20 -30 -24z M4520 3198
c-20 -5 -48 -19 -64 -31 l-27 -22 49 -125 c48 -122 61 -158 137 -400 20 -63
41 -119 46 -124 5 -6 9 6 9 31 0 41 0 41 46 48 34 5 49 3 55 -7 5 -7 9 -31 10
-53 1 -26 5 -12 11 40 7 55 6 121 -2 210 -12 130 -33 249 -65 359 -15 50 -22
60 -51 72 -37 16 -101 17 -154 2z M4822 3191 c-12 -7 -11 -22 2 -87 8 -44 20
-113 25 -154 16 -115 31 -333 31 -444 0 -73 3 -97 11 -89 6 6 14 32 16 57 5
40 9 46 29 46 13 0 24 -4 24 -10 0 -5 6 -10 14 -10 8 0 19 -12 24 -27 10 -26
10 -26 11 -5 1 12 7 33 15 45 14 21 38 162 52 302 4 39 6 124 5 189 -1 107 -3
122 -22 142 -12 13 -42 30 -67 38 -49 17 -149 21 -170 7z M4206 3100 c-22 -11
-48 -28 -59 -37 -10 -10 -25 -30 -33 -46 -11 -21 -12 -32 -3 -49 6 -11 41 -67
78 -124 36 -56 93 -150 126 -209 33 -58 70 -120 82 -138 12 -18 29 -47 39 -65
9 -18 20 -35 25 -38 5 -3 9 6 9 19 0 18 8 28 30 37 16 7 39 10 50 7 16 -4 20
0 20 17 0 12 -7 48 -15 79 -28 106 -117 351 -165 453 -43 92 -50 101 -80 107
-18 4 -40 7 -49 7 -9 -1 -34 -10 -55 -20z M5176 3088 c-3 -7 -7 -67 -10 -133
-4 -112 -26 -270 -61 -442 -8 -40 -15 -84 -15 -98 0 -14 5 -25 10 -25 6 0 10
13 10 28 0 15 5 33 12 40 7 7 24 12 38 12 14 0 35 -7 47 -15 16 -11 23 -12 31
-2 20 25 76 165 103 259 15 54 33 131 39 171 11 64 10 78 -4 105 -9 17 -35 44
-59 60 -42 29 -97 52 -124 52 -7 0 -15 -6 -17 -12z M3992 2922 c-39 -12 -94
-63 -113 -107 -33 -74 -23 -92 144 -265 82 -85 155 -158 162 -162 8 -5 32 3
57 17 23 14 53 25 66 25 15 0 22 -6 22 -20 0 -11 5 -20 10 -20 6 0 10 -7 10
-16 0 -18 28 -49 37 -40 4 3 -3 23 -14 44 -12 20 -41 76 -66 124 -48 90 -228
366 -266 406 -12 12 -23 22 -24 21 -1 -1 -12 -4 -25 -7z M5451 2796 c-12 -52
-47 -154 -77 -227 -31 -74 -58 -142 -61 -152 -4 -12 8 -30 38 -57 24 -21 49
-39 56 -40 6 0 24 17 40 38 53 68 131 200 149 250 17 47 17 53 1 111 -10 34
-28 79 -42 99 -14 21 -37 45 -53 54 -28 17 -28 17 -51 -76z M3819 2588 c-7
-13 -12 -48 -13 -78 0 -35 8 -72 21 -102 12 -25 41 -65 65 -89 23 -23 63 -55
87 -70 l44 -28 41 52 c22 29 45 55 51 60 6 4 -47 63 -128 142 -76 74 -142 135
-147 135 -5 0 -15 -10 -21 -22z M6643 1763 c-60 -54 -79 -69 -146 -118 -53
-39 -63 -51 -47 -53 12 -2 20 -11 20 -23 0 -19 0 -19 22 1 12 11 25 20 30 20
4 0 8 7 8 15 0 8 4 15 10 15 9 0 24 13 127 104 23 21 43 45 43 52 0 23 -34 16
-67 -13z" />
    </g>
    <g fill="#68ada5" stroke="#064f52" stroke-width="4" stroke-linejoin="round" stroke-linecap="round">
      <path d="M5600 7613 c0 -17 -6 -23 -22 -24 -22 0 -22 -1 -3 -9 11 -4 70 -28
130 -51 61 -24 144 -61 185 -82 41 -22 85 -45 97 -51 13 -6 23 -14 23 -18 0
-5 5 -8 10 -8 6 0 28 -11 50 -25 38 -24 80 -33 80 -17 0 4 -14 16 -30 27 -16
11 -30 23 -30 28 0 4 -6 7 -13 7 -7 0 -22 8 -33 18 -11 9 -31 23 -43 30 -66
38 -100 57 -146 82 -27 15 -66 36 -85 47 -19 11 -52 25 -72 32 -21 7 -38 16
-38 21 0 4 -13 10 -30 12 -26 4 -30 1 -30 -19z M4377 6785 c-54 -8 -104 -16
-110 -19 -7 -2 -2 -5 11 -5 17 -1 22 -7 22 -26 0 -14 2 -25 4 -25 2 0 23 7 47
15 24 9 86 23 139 31 52 8 105 18 118 21 12 3 22 9 22 14 0 13 -138 9 -253 -6z
M3840 6671 c-75 -36 -75 -36 -72 -74 2 -21 -2 -44 -8 -52 -15 -18 -91 -20
-108 -3 -7 7 -12 22 -12 34 0 21 -3 21 -67 17 -38 -3 -72 -9 -78 -14 -5 -6 3
-7 22 -3 17 3 47 1 67 -6 33 -11 65 -41 92 -86 10 -18 17 -14 82 43 38 35 105
82 149 105 60 33 73 44 56 46 -13 2 -23 7 -23 12 0 20 -31 15 -100 -19z M4721
6631 c-51 -5 -67 -11 -79 -29 -8 -12 -21 -22 -28 -22 -8 0 -14 -4 -14 -10 0
-5 -13 -10 -30 -10 -16 0 -30 -4 -30 -10 0 -5 -20 -10 -45 -10 -37 0 -45 -3
-45 -19 0 -14 -19 -24 -87 -46 -49 -16 -100 -37 -115 -47 -14 -10 -29 -18 -32
-18 -4 0 -42 -24 -84 -52 -84 -57 -59 -52 -299 -74 -71 -6 -71 -6 -75 22 -3
29 -3 29 -27 -9 -22 -37 -23 -44 -17 -140 4 -56 8 -102 9 -103 1 -1 49 -4 107
-7 58 -3 95 -3 83 0 -15 3 -23 12 -23 25 0 11 10 37 22 57 33 56 109 130 158
155 25 12 72 36 105 53 33 18 98 43 145 57 47 14 77 25 68 25 -12 1 -18 9 -18
25 0 26 -9 22 180 72 52 13 122 34 155 46 64 22 139 57 133 62 -10 9 -61 12
-117 7z M5080 6539 c-55 -51 -100 -82 -166 -113 -50 -24 -153 -65 -230 -91
-76 -27 -152 -54 -167 -62 -16 -8 -54 -33 -85 -56 -31 -23 -70 -49 -87 -57
-16 -9 -34 -26 -40 -38 -5 -12 -17 -22 -26 -22 -8 0 -30 -18 -48 -40 -28 -35
-37 -40 -74 -41 l-42 0 35 -16 c19 -8 43 -19 53 -24 21 -11 54 7 61 34 4 17
11 19 44 13 26 -4 66 1 113 13 281 74 370 102 419 133 35 23 35 23 8 26 -21 2
-28 9 -28 25 0 17 9 25 42 35 23 7 80 34 126 60 60 33 103 67 150 117 61 66
102 121 102 138 0 4 -11 7 -24 7 -13 0 -29 7 -36 15 -7 8 -15 15 -19 15 -3 -1
-40 -32 -81 -71z m-370 -354 c0 -21 -5 -25 -30 -25 -25 0 -30 4 -30 25 0 21 5
25 30 25 25 0 30 -4 30 -25z M3178 6284 c-4 -5 -20 -47 -36 -91 -17 -45 -28
-84 -24 -87 3 -3 22 -6 42 -6 40 0 36 -5 87 117 3 7 -7 13 -24 15 -22 2 -29 9
-33 33 -3 17 -8 25 -12 19z M4499 5752 c-24 -16 -71 -41 -104 -58 -54 -26 -57
-29 -33 -32 29 -3 35 -15 40 -77 3 -29 5 -27 59 45 71 95 99 137 99 144 0 12
-17 6 -61 -22z M2774 5302 c-10 -9 -32 -24 -49 -32 -30 -14 -30 -14 -2 -18 22
-3 27 -8 27 -32 0 -19 -11 -40 -30 -60 -16 -17 -30 -35 -30 -40 0 -5 -15 -18
-33 -27 -54 -30 -116 -77 -117 -89 0 -7 -21 -15 -47 -20 -27 -4 -40 -9 -31
-11 9 -2 42 0 73 6 84 16 186 48 223 71 33 20 33 22 18 45 -10 15 -16 46 -16
79 0 56 12 97 38 129 9 9 11 17 5 17 -5 0 -18 -8 -29 -18z M3235 5179 c-44
-34 -123 -82 -175 -107 -80 -39 -91 -47 -67 -50 23 -3 27 -8 27 -37 0 -28 -8
-40 -42 -68 -24 -19 -55 -42 -70 -52 -15 -9 -62 -21 -105 -26 -43 -6 -91 -17
-107 -25 -16 -8 -39 -14 -50 -14 -12 0 -43 7 -70 15 -27 8 -71 15 -98 15 -45
0 -48 -2 -48 -25 0 -14 -4 -25 -10 -25 -5 0 -10 -7 -10 -15 0 -12 -19 -15
-110 -15 l-110 0 -6 40 c-6 35 -9 40 -28 34 -11 -3 -48 -19 -81 -35 -61 -29
-144 -93 -134 -103 3 -3 33 3 67 13 34 11 93 25 131 31 67 12 130 12 516 -6
108 -5 159 -3 225 10 58 10 115 31 179 62 77 38 112 64 187 136 67 65 102 108
129 160 l37 70 -38 39 c-21 21 -43 39 -49 39 -5 0 -46 -28 -90 -61z M3650
4649 c-19 -23 -44 -56 -55 -75 -15 -25 -34 -39 -75 -55 -30 -11 -70 -34 -87
-52 -18 -17 -33 -39 -33 -49 0 -11 -7 -18 -20 -18 -11 0 -20 -4 -20 -9 0 -5
-22 -11 -49 -15 -31 -4 -58 -15 -75 -31 -15 -14 -36 -25 -47 -25 -12 0 -19 -7
-19 -19 0 -12 -11 -23 -32 -30 -17 -6 -29 -14 -26 -17 3 -2 59 16 124 42 120
49 248 126 336 203 26 23 70 72 97 109 28 37 51 70 51 75 0 4 -8 7 -17 7 -10
-1 -34 -19 -53 -41z M2303 4553 c22 -6 24 -53 1 -53 -9 0 -29 -8 -45 -17 -21
-12 -29 -25 -29 -44 0 -27 -15 -39 -51 -39 -11 0 -19 7 -19 16 0 13 -7 15 -30
10 -17 -3 -52 -20 -77 -38 -26 -18 -51 -36 -56 -39 -6 -4 -1 -18 9 -33 12 -16
29 -25 47 -26 23 0 27 -4 27 -27 0 -27 0 -27 33 4 63 62 77 73 87 73 6 0 10 5
10 10 0 6 6 10 13 10 8 0 40 17 73 38 32 21 86 51 119 66 33 16 91 37 130 48
38 10 74 23 79 28 7 7 -9 10 -46 10 -30 0 -70 3 -87 6 -24 5 -31 3 -31 -10 0
-10 -9 -16 -25 -16 -14 0 -25 -4 -25 -10 0 -5 -18 -10 -40 -10 -36 0 -40 3
-40 25 0 20 -5 25 -22 24 -17 -1 -19 -2 -5 -6z M3767 4415 c-15 -19 -57 -59
-93 -88 l-66 -52 36 -8 c34 -8 36 -11 36 -48 0 -21 2 -39 5 -39 2 0 26 23 52
51 51 55 113 137 113 151 0 4 -11 8 -24 8 -20 0 -25 6 -28 30 l-3 30 -28 -35z
M2748 4169 c-10 -5 -18 -20 -18 -32 0 -12 -11 -34 -24 -49 -17 -21 -33 -28
-58 -28 -21 0 -41 -7 -51 -18 -10 -10 -17 -24 -17 -30 0 -7 -6 -30 -12 -52
-10 -31 -18 -40 -35 -40 -13 0 -23 5 -23 10 0 16 -19 11 -28 -7 -5 -11 -4 -38
3 -67 l11 -48 52 70 c29 39 81 96 115 127 34 31 96 77 137 103 75 47 75 47 40
50 -19 2 -39 8 -44 13 -6 5 -15 9 -20 9 -6 0 -19 -5 -28 -11z M3470 4093 c-13
-3 -29 -12 -35 -20 -6 -8 -30 -17 -54 -20 -33 -5 -54 -16 -88 -49 -46 -46 -86
-57 -97 -28 -3 9 -6 31 -6 50 0 19 -4 34 -8 34 -14 0 -105 -61 -158 -106 -28
-23 -76 -73 -106 -111 -30 -37 -71 -97 -91 -133 -19 -36 -47 -103 -62 -150
-24 -73 -27 -103 -28 -210 -1 -86 4 -142 15 -181 23 -79 88 -229 100 -229 6 0
7 10 4 23 -4 12 -12 58 -17 102 -12 86 -6 242 12 327 6 29 31 95 55 147 24 51
64 121 88 155 41 57 125 138 206 198 19 14 103 61 185 103 83 43 154 82 160
86 5 6 3 9 -7 9 -9 0 -22 2 -30 4 -7 2 -24 1 -38 -1z m-570 -483 c0 -60 0 -60
-35 -60 -31 0 -35 3 -41 37 -5 25 -3 38 5 41 6 2 11 12 11 23 0 14 7 19 30 19
30 0 30 0 30 -60z M2397 3580 c-20 -66 -39 -197 -32 -220 4 -12 14 -15 39 -12
33 4 33 4 39 90 4 48 9 99 13 115 5 23 3 27 -14 27 -15 0 -22 8 -24 28 -3 23
-6 19 -21 -28z M7083 2754 c-10 -14 -33 -44 -50 -67 -18 -23 -53 -71 -77 -107
-25 -36 -59 -76 -75 -88 -17 -13 -43 -42 -58 -65 -31 -50 -191 -221 -236 -254
-18 -12 -39 -28 -47 -35 -66 -59 -95 -78 -116 -78 -14 0 -30 10 -40 25 -9 14
-23 25 -31 25 -14 0 -65 -31 -90 -56 -7 -7 -13 -20 -13 -28 0 -11 -9 -16 -31
-16 -17 0 -45 -10 -62 -22 -43 -30 -61 -48 -48 -48 6 0 11 -13 11 -30 0 -22
-5 -30 -18 -30 -10 0 -28 -10 -40 -23 -12 -13 -22 -27 -22 -31 0 -12 -40 -44
-82 -66 -40 -21 -78 -26 -78 -10 0 6 -9 10 -20 10 -11 0 -20 -4 -20 -10 0 -5
-7 -10 -15 -10 -8 0 -22 -12 -31 -26 -20 -30 -110 -84 -140 -84 -14 0 -24 8
-28 23 -3 12 -6 35 -6 51 0 25 -3 28 -26 22 -40 -10 -104 -40 -104 -48 0 -5
-19 -8 -42 -8 -24 0 -83 -12 -133 -26 -49 -14 -102 -28 -118 -31 -15 -3 -30
-9 -33 -14 -3 -5 -23 -9 -44 -9 -21 0 -42 -5 -46 -11 -3 -6 -22 -9 -43 -6 -42
6 -251 -24 -251 -35 0 -4 7 -8 15 -8 22 0 55 -37 55 -60 0 -19 -7 -20 -102
-22 -57 -1 -174 -2 -261 -3 -107 -1 -161 -5 -169 -13 -17 -17 -58 -15 -58 2 0
8 -6 16 -14 19 -7 3 -50 9 -95 12 -69 7 -82 5 -87 -9 -3 -9 -14 -16 -23 -16
-9 0 -22 -9 -29 -20 -8 -13 -24 -20 -45 -21 -19 -1 -24 -3 -12 -6 11 -2 29 -8
40 -12 11 -5 33 -14 48 -20 15 -6 49 -11 75 -11 27 0 52 -4 58 -9 18 -19 122
-39 264 -50 80 -6 195 -17 257 -23 63 -6 141 -8 180 -4 37 4 115 10 173 12 57
3 109 9 115 14 6 5 37 9 69 9 32 0 63 4 69 10 6 6 20 11 32 11 28 0 185 38
207 50 10 6 28 10 40 10 13 0 41 7 63 15 177 63 242 88 321 123 50 22 108 50
130 63 21 12 63 35 92 51 29 15 96 57 150 93 87 59 131 92 267 198 53 41 234
224 271 273 16 21 55 73 88 114 32 41 67 94 77 118 10 23 32 59 48 80 15 20
33 52 39 70 6 18 21 46 32 62 12 17 24 45 27 63 5 31 2 36 -32 55 -20 12 -40
22 -45 22 -5 0 -17 -12 -27 -26z M1650 2681 c0 -12 4 -21 9 -21 4 0 11 -15 14
-33 3 -18 19 -56 36 -85 17 -29 31 -57 31 -61 0 -14 112 -195 152 -246 50 -64
88 -115 88 -119 0 -3 10 -16 23 -30 12 -13 33 -37 48 -53 14 -15 34 -43 44
-60 11 -18 23 -33 27 -33 4 0 43 -36 85 -80 43 -44 82 -80 87 -80 6 0 -4 15
-22 33 -20 21 -32 43 -32 60 0 22 -5 27 -24 27 -14 0 -32 7 -40 16 -9 8 -16
26 -16 40 0 20 5 24 29 24 17 0 33 -5 37 -11 5 -8 31 -10 84 -6 73 6 80 5 104
-18 15 -14 31 -25 35 -25 4 0 13 -11 19 -25 9 -20 19 -25 45 -25 25 0 48 -11
86 -42 28 -23 51 -45 51 -50 0 -4 7 -8 16 -8 8 0 45 -21 80 -46 36 -26 67 -44
70 -41 3 2 -23 24 -58 49 -35 24 -75 51 -89 60 -14 9 -32 23 -40 30 -8 7 -27
24 -44 36 -110 85 -361 329 -443 432 -29 36 -58 72 -65 80 -8 8 -29 35 -48 60
-18 25 -50 63 -70 86 -20 23 -44 57 -53 76 -9 19 -25 44 -35 54 -9 11 -20 27
-24 37 -7 19 -27 23 -27 6 0 -7 -11 -9 -32 -4 -18 3 -57 9 -85 12 -49 4 -53 3
-53 -16z M4868 2433 c-7 -191 -18 -318 -44 -470 -4 -25 -1 -33 11 -33 8 0 15
5 15 11 0 8 13 9 40 5 35 -6 43 -3 66 24 15 17 37 30 50 30 12 0 24 -5 26 -12
3 -8 15 -6 41 10 71 42 223 171 291 249 67 75 68 78 44 83 -13 3 -39 17 -55
31 -17 14 -33 37 -35 50 -2 19 -16 1 -62 -83 -49 -90 -63 -108 -82 -108 -16 0
-24 6 -24 18 0 9 23 62 50 117 48 97 49 100 27 103 -12 2 -43 10 -69 19 -43
15 -48 20 -49 47 0 17 -16 -30 -34 -104 -19 -74 -39 -146 -44 -160 -5 -14 -16
-46 -26 -72 -14 -39 -21 -48 -41 -48 -15 0 -24 6 -24 15 0 8 20 86 45 172 25
87 48 166 51 176 5 14 -1 17 -38 17 -24 0 -53 7 -64 15 -10 8 -27 15 -36 15
-13 0 -18 11 -20 53 -2 28 -6 -48 -10 -170z m252 -318 c0 -20 -5 -25 -25 -25
-20 0 -25 5 -25 25 0 20 5 25 25 25 20 0 25 -5 25 -25z M4801 2608 c-1 -27 -3
-28 -63 -30 -35 -1 -75 -2 -90 -2 -16 -1 -28 -2 -28 -4 0 -2 9 -36 20 -75 18
-68 60 -287 60 -314 0 -7 -11 -13 -25 -13 -17 0 -25 6 -25 18 0 22 -78 343
-85 350 -3 3 -5 -8 -5 -24 0 -22 -7 -34 -29 -47 -37 -22 -91 -23 -91 -2 0 9
-9 15 -21 15 -15 0 -19 -4 -15 -16 3 -9 6 -24 6 -35 0 -10 6 -19 13 -19 15 0
97 -161 97 -190 0 -14 -7 -20 -24 -20 -19 0 -30 14 -65 84 -22 47 -41 94 -41
105 0 12 -6 21 -14 21 -7 0 -19 14 -26 30 -13 30 -30 40 -30 18 0 -7 -28 -26
-63 -43 -34 -16 -64 -31 -66 -32 -2 -1 17 -27 43 -57 51 -60 60 -96 23 -96
-14 0 -42 20 -75 53 -29 29 -52 58 -52 64 0 6 -7 13 -15 17 -11 4 -15 -2 -15
-20 0 -15 -14 -43 -30 -64 -20 -25 -41 -40 -58 -42 -23 -3 -14 -11 73 -64 95
-58 366 -204 379 -204 3 0 6 7 6 15 0 27 43 16 82 -22 l38 -37 0 32 c0 27 4
32 23 32 17 0 27 -9 38 -32 8 -18 19 -31 24 -28 6 3 9 12 7 20 -1 8 -5 45 -9
83 -6 67 -6 67 20 67 24 0 26 -4 33 -67 3 -38 11 -79 16 -92 5 -14 12 -20 17
-15 17 17 43 278 48 474 3 107 3 204 0 215 -4 15 -5 14 -6 -7z m-413 -450 c7
-7 12 -22 12 -35 0 -17 -6 -23 -23 -23 -13 0 -28 5 -35 12 -7 7 -12 22 -12 35
0 17 6 23 23 23 13 0 28 -5 35 -12z M2760 2586 c0 -16 5 -26 15 -26 9 0 15 -9
15 -24 0 -18 -6 -26 -22 -29 -17 -3 2 -16 76 -51 55 -27 110 -52 123 -57 13
-5 23 -5 23 0 0 5 -17 21 -37 37 -21 16 -73 62 -115 103 -72 68 -78 72 -78 47z
M7263 2565 c-6 -11 -30 -56 -53 -100 -23 -44 -64 -112 -91 -152 -27 -40 -49
-77 -49 -83 0 -5 -4 -10 -8 -10 -4 0 -15 -13 -25 -29 -9 -15 -32 -46 -52 -67
-19 -21 -35 -42 -35 -46 0 -4 -16 -23 -35 -44 -19 -20 -35 -43 -35 -50 0 -8 3
-14 6 -14 3 0 28 18 55 41 27 22 54 55 61 75 7 21 19 34 30 34 10 0 18 5 18
11 0 5 23 38 50 72 28 34 50 67 50 74 0 6 4 13 9 15 9 3 115 155 144 205 9 17
17 36 17 42 0 6 -9 11 -19 11 -11 0 -21 8 -23 18 -4 15 -5 15 -15 -3z M6613
1731 c-40 -41 -143 -117 -253 -186 -73 -47 -89 -61 -72 -63 14 -2 22 -10 22
-23 0 -10 3 -19 7 -19 7 0 104 74 168 128 79 67 195 177 195 184 0 5 -9 8 -19
8 -11 0 -33 -13 -48 -29z" />
    </g>
    <g fill="#064f52">
      <path d="M2144 6834 c-63 -64 -157 -166 -208 -228 -51 -61 -137 -176 -190
-254 l-96 -144 1 -226 c0 -125 4 -216 8 -202 10 31 118 246 142 280 9 14 27
43 39 65 13 22 31 55 41 73 30 51 175 249 252 342 39 47 144 158 233 248 l163
162 -135 0 -135 0 -115 -116z M3516 6915 c-26 -19 -48 -35 -51 -35 -8 0 -45
-32 -128 -110 -76 -72 -124 -132 -194 -244 -18 -28 -48 -82 -67 -121 -18 -38
-44 -104 -56 -145 -12 -41 -28 -93 -35 -115 l-13 -40 -123 0 c-94 -1 -131 -5
-154 -17 -16 -9 -40 -27 -51 -40 -12 -12 -24 -36 -28 -51 -4 -15 -2 -46 5 -69
7 -30 28 -59 69 -98 31 -32 92 -78 134 -105 45 -28 76 -54 76 -64 0 -28 -55
-114 -107 -166 -27 -27 -69 -60 -94 -72 -24 -13 -71 -32 -104 -43 -44 -14 -86
-19 -160 -19 -55 0 -124 4 -153 8 -29 4 -55 4 -57 1 -2 -4 -46 -12 -97 -19
-51 -6 -111 -17 -133 -23 -22 -7 -83 -34 -135 -60 -52 -27 -121 -71 -152 -99
l-58 -51 0 -106 c0 -86 2 -103 13 -90 6 8 42 40 78 71 37 30 109 75 160 99 52
25 103 48 114 51 11 4 58 13 105 22 47 8 153 19 235 25 83 6 161 14 175 19 14
5 45 15 70 22 25 7 66 23 92 36 26 13 63 36 81 53 19 16 37 30 41 30 13 0 5
-29 -18 -71 -14 -24 -28 -61 -31 -81 -5 -28 -2 -48 15 -82 12 -25 18 -51 14
-57 -12 -19 -105 -56 -199 -77 -49 -12 -137 -26 -195 -32 -66 -7 -145 -23
-215 -45 -89 -28 -133 -49 -218 -105 -71 -47 -115 -83 -133 -110 -15 -23 -51
-55 -83 -74 -31 -19 -66 -37 -78 -41 -22 -6 -23 -10 -23 -141 l0 -134 36 0
c29 0 50 11 107 58 40 32 97 72 127 88 30 17 82 40 115 53 33 13 69 27 80 32
11 4 40 14 65 21 30 8 117 12 263 11 120 0 221 -4 224 -7 4 -3 2 -11 -3 -16
-6 -6 -53 -22 -104 -36 -93 -24 -223 -86 -327 -154 -29 -19 -53 -38 -53 -42 0
-5 85 -8 189 -8 188 0 189 0 242 28 30 16 70 38 89 49 19 10 62 30 95 42 33
13 69 27 80 32 11 4 56 18 100 30 173 46 284 84 365 126 47 24 99 51 116 61
62 36 160 122 224 196 36 41 70 76 75 76 6 0 27 9 48 20 20 11 40 20 43 20 11
0 -6 -67 -41 -156 -19 -48 -55 -118 -79 -155 -25 -37 -73 -97 -107 -134 -35
-37 -92 -88 -128 -113 -36 -26 -97 -63 -135 -84 l-71 -37 170 -1 170 0 42 33
c22 18 75 70 117 116 45 49 95 117 123 169 34 62 49 81 51 67 3 -10 -1 -42 -7
-70 -19 -83 -68 -204 -106 -262 l-36 -54 103 3 102 3 31 63 c18 34 42 93 54
130 25 78 51 211 57 297 3 33 9 69 14 80 11 25 18 195 8 195 -5 0 -8 7 -8 15
0 9 10 19 23 24 12 5 47 19 79 31 31 12 81 37 112 57 l56 35 0 176 0 176 -33
-36 c-18 -19 -67 -58 -110 -86 -43 -28 -103 -60 -133 -71 -30 -12 -59 -21 -65
-21 -5 0 -32 -11 -59 -25 -27 -14 -58 -25 -70 -25 -13 0 -20 7 -20 18 0 11 26
58 58 106 40 60 76 100 117 131 33 25 96 59 140 76 44 18 101 43 128 56 l47
23 0 145 c0 118 -3 145 -14 145 -13 0 -93 -26 -183 -60 -28 -10 -35 -9 -60 9
-15 11 -54 27 -87 35 -32 9 -129 20 -215 26 -86 6 -162 13 -168 15 -9 3 -13
35 -13 115 l0 110 54 73 c29 39 75 92 102 117 27 25 74 64 104 87 30 22 92 62
136 87 45 26 140 67 210 92 71 24 120 44 109 44 -11 0 -62 -7 -113 -15 -50 -8
-136 -29 -190 -46 -53 -17 -135 -51 -182 -76 -76 -41 -114 -69 -214 -157 -16
-14 -32 -23 -37 -20 -5 3 -16 21 -25 40 -9 20 -28 43 -42 52 -14 9 -45 16 -72
16 -34 0 -58 -7 -82 -24 -19 -12 -50 -46 -70 -74 -20 -28 -68 -121 -108 -206
-40 -85 -77 -161 -82 -168 -7 -8 -23 -10 -47 -6 -20 4 -40 10 -44 14 -5 4 3
39 17 78 14 39 46 112 72 164 25 51 66 123 90 159 25 36 88 109 142 162 53 54
129 119 167 145 39 26 108 67 155 91 47 24 87 45 89 47 2 2 -59 4 -137 4
l-140 0 -46 -35z m37 -446 c14 -6 30 -21 35 -33 6 -12 13 -122 17 -251 3 -131
9 -233 15 -239 6 -6 97 -10 229 -11 207 0 221 -1 248 -21 17 -13 29 -32 31
-50 2 -21 -4 -36 -20 -51 -13 -11 -59 -39 -103 -61 -44 -22 -127 -59 -185 -82
-58 -23 -115 -48 -127 -56 -13 -8 -23 -24 -23 -37 0 -12 14 -60 31 -107 33
-93 49 -144 80 -262 18 -69 19 -79 5 -112 -9 -23 -23 -38 -39 -41 -14 -4 -37
0 -54 8 -16 9 -64 53 -107 99 -43 46 -92 101 -110 122 -70 88 -109 126 -130
126 -20 0 -43 -16 -157 -109 -30 -24 -93 -70 -141 -102 -70 -47 -95 -59 -126
-59 -24 0 -45 6 -53 16 -7 9 -13 30 -12 48 0 17 11 50 23 71 12 22 26 45 30
50 5 6 22 35 38 65 40 77 71 131 91 160 29 42 51 97 46 112 -3 8 -31 29 -63
48 -31 19 -103 65 -158 102 -56 37 -116 84 -133 105 -17 21 -31 42 -31 49 0 6
11 21 25 34 19 18 40 25 83 28 50 3 110 -4 293 -38 26 -5 71 -10 100 -11 54
-3 54 -3 75 37 12 23 32 70 44 105 38 106 99 241 133 291 17 26 40 51 52 57
11 5 21 10 22 10 1 1 13 -4 26 -10z m367 -895 c0 -3 -5 -15 -12 -27 -7 -12
-22 -51 -33 -87 -12 -36 -27 -65 -35 -65 -7 0 -19 20 -26 45 -8 25 -14 55 -14
68 0 18 11 28 53 47 28 13 55 24 60 24 4 1 7 -2 7 -5z m-541 -356 c22 -24 41
-51 41 -62 0 -32 -61 -126 -129 -199 -67 -71 -155 -139 -227 -175 -22 -11 -69
-30 -105 -41 -35 -11 -103 -24 -150 -30 -64 -7 -127 -6 -245 4 -88 8 -208 15
-267 15 -60 0 -142 -7 -185 -16 -42 -9 -103 -25 -136 -35 -32 -11 -61 -17 -65
-13 -3 3 22 32 55 63 52 47 80 63 180 103 97 38 142 49 245 62 231 30 319 45
407 72 96 29 334 151 415 212 80 60 111 81 119 82 4 0 25 -19 47 -42z M3467
6214 c-4 -4 -7 -14 -7 -21 0 -8 8 -13 18 -11 9 2 17 10 17 17 0 16 -18 25 -28
15z M3441 6086 c-8 -10 -9 -21 -4 -31 8 -14 11 -14 26 3 15 16 15 21 4 31 -11
9 -17 8 -26 -3z M3405 5940 c-3 -11 -3 -24 0 -30 3 -5 12 -10 20 -10 16 0 29
35 20 50 -10 17 -33 11 -40 -10z M3075 5861 c-3 -6 -3 -15 0 -21 3 -5 13 -10
21 -10 9 0 14 7 12 17 -2 9 -8 18 -15 20 -6 2 -14 -1 -18 -6z M3185 5810 c-4
-6 -5 -13 -3 -15 2 -3 15 -6 29 -7 16 -2 24 2 24 12 0 18 -40 26 -50 10z
M3724 5809 c-3 -6 -1 -16 4 -21 8 -8 16 -7 27 2 13 11 13 15 3 21 -7 5 -16 9
-20 9 -4 0 -10 -5 -14 -11z M3570 5775 c-10 -12 -9 -16 3 -21 25 -9 51 0 55
19 3 12 -3 17 -21 17 -14 0 -30 -7 -37 -15z M3220 5575 c-7 -8 -10 -22 -6 -30
3 -8 9 -15 14 -15 5 0 15 7 22 15 7 8 10 22 6 30 -3 8 -9 15 -14 15 -5 0 -15
-7 -22 -15z M3484 5546 c-3 -9 -3 -23 0 -32 3 -9 12 -14 19 -11 6 2 12 14 12
27 0 13 -6 25 -12 27 -7 3 -16 -2 -19 -11z M3125 5470 c-3 -5 -3 -14 0 -20 3
-5 12 -10 20 -10 14 0 27 24 18 34 -10 9 -31 7 -38 -4z M3550 5411 c0 -11 5
-23 11 -27 6 -3 16 -1 21 4 8 8 7 16 -2 27 -7 8 -16 15 -21 15 -5 0 -9 -9 -9
-19z M4355 6451 c-73 -26 -148 -62 -142 -67 3 -3 43 6 88 20 46 14 95 26 109
28 14 2 26 11 28 21 2 11 -3 17 -15 16 -10 0 -40 -8 -68 -18z" />
    </g>
  </g>
</svg>
