<svg xmlns="http://www.w3.org/2000/svg" width="1300" height="435" viewBox="0 0 1300 435" role="img" aria-label="LidoPro logo">
  <title>LidoPro logo</title>
  <g shape-rendering="geometricPrecision" transform="translate(0 435) scale(.05 -.05)">
    <g fill="#ffffff" stroke="#ffffff" stroke-width="10" stroke-linejoin="round" stroke-linecap="round">
      <path d="M4447 7584 c-5 -5 -66 -12 -135 -16 -70 -4 -156 -11 -192 -16 -108
-14 -318 -61 -445 -98 -133 -39 -276 -91 -375 -136 -87 -39 -182 -87 -255
-128 -103 -57 -247 -150 -330 -213 -44 -33 -115 -90 -158 -126 -94 -79 -257
-238 -309 -301 -20 -25 -49 -58 -63 -75 -15 -16 -64 -79 -109 -140 -78 -104
-156 -222 -207 -310 -54 -96 -154 -305 -193 -408 -78 -202 -138 -420 -167
-607 -25 -161 -33 -279 -33 -505 -1 -227 8 -358 33 -515 19 -121 53 -272 90
-400 21 -74 45 -153 53 -175 9 -29 19 -40 33 -40 17 0 20 6 18 40 -6 119 -5
168 5 245 6 47 16 108 21 135 14 76 58 201 98 280 20 39 49 90 66 115 17 25
62 78 101 119 39 40 99 93 132 117 34 24 71 44 83 44 15 0 21 -6 21 -23 0 -16
-16 -35 -50 -61 -27 -21 -73 -63 -102 -95 -28 -31 -71 -83 -96 -116 -24 -33
-63 -98 -87 -145 -23 -47 -52 -112 -63 -145 -11 -33 -28 -94 -37 -135 -9 -41
-18 -145 -22 -230 -4 -115 -1 -179 11 -250 8 -52 27 -136 41 -185 14 -50 53
-146 85 -213 33 -68 83 -163 112 -210 63 -106 147 -225 223 -318 104 -127 229
-256 345 -359 63 -55 160 -133 215 -172 55 -39 148 -101 207 -137 121 -74 307
-169 430 -220 46 -19 132 -51 191 -70 59 -20 162 -50 230 -66 253 -61 437 -83
687 -83 102 0 230 6 285 12 145 16 276 39 389 67 54 14 152 43 217 65 65 21
155 55 201 75 129 55 315 154 429 230 57 38 137 95 179 128 93 73 300 265 300
277 0 5 -7 12 -15 15 -9 4 -39 -16 -77 -51 -35 -31 -121 -96 -193 -143 -123
-81 -302 -179 -425 -231 -95 -41 -281 -101 -405 -132 -66 -16 -181 -38 -255
-50 -176 -27 -492 -36 -682 -20 -139 12 -326 40 -418 62 -64 16 -247 68 -295
84 -22 7 -106 39 -185 71 -80 32 -197 84 -260 117 -63 33 -168 91 -233 131
-66 39 -176 113 -245 165 -83 62 -186 153 -298 265 -94 94 -205 217 -247 273
-42 56 -105 151 -140 210 -35 59 -80 146 -100 193 -20 47 -47 121 -61 165 -14
44 -33 123 -42 175 -12 71 -15 129 -11 230 4 105 11 155 32 225 14 50 29 98
32 108 3 10 15 17 29 17 17 0 24 -6 24 -20 0 -11 -10 -58 -22 -103 -18 -68
-22 -108 -21 -232 1 -127 5 -165 26 -245 13 -52 39 -131 56 -175 17 -44 53
-118 80 -163 28 -46 75 -116 105 -155 30 -40 93 -109 138 -153 46 -45 123
-112 172 -148 49 -37 138 -96 197 -132 60 -36 169 -94 243 -129 74 -35 184
-82 244 -105 60 -22 160 -56 222 -76 62 -19 176 -47 254 -63 78 -16 193 -36
256 -45 63 -8 198 -20 300 -26 131 -8 232 -8 345 0 88 6 192 15 230 21 101 15
268 48 355 70 178 47 366 117 554 209 67 32 175 94 241 138 66 43 161 112 210
154 50 42 131 118 181 170 50 52 119 132 152 177 34 45 86 128 116 184 30 56
66 137 80 180 15 43 31 110 36 150 6 39 8 92 4 117 -3 25 -13 66 -21 92 -8 26
-32 71 -52 100 -20 29 -56 67 -80 85 -24 19 -63 39 -87 45 -36 10 -44 16 -44
35 0 19 5 23 30 23 16 0 54 -9 85 -21 30 -11 78 -39 106 -61 39 -30 59 -57 85
-111 25 -55 36 -96 45 -169 10 -88 9 -108 -10 -205 -12 -60 -37 -145 -55 -190
-18 -44 -60 -130 -95 -190 -34 -59 -89 -142 -122 -183 -32 -41 -96 -113 -142
-159 -45 -46 -121 -117 -170 -157 -139 -117 -311 -228 -489 -316 -187 -92
-347 -150 -578 -208 -85 -21 -184 -44 -220 -49 -176 -27 -348 -41 -518 -41
-103 0 -248 7 -322 15 -74 8 -189 24 -255 35 -66 11 -167 32 -225 46 -122 30
-340 102 -456 150 -44 18 -125 53 -179 79 -106 49 -267 138 -289 160 -7 7 -21
15 -31 17 -10 2 -20 -2 -22 -9 -4 -12 6 -22 106 -107 66 -55 205 -153 326
-227 50 -31 142 -83 205 -115 63 -33 165 -81 227 -107 62 -26 168 -66 235 -88
68 -22 168 -51 223 -64 137 -33 309 -62 439 -74 60 -6 189 -11 287 -11 97 0
223 5 280 11 57 5 142 17 189 25 47 8 137 28 202 44 64 17 165 47 225 69 59
21 157 62 217 90 60 28 161 82 225 120 64 38 159 101 211 141 52 39 155 130
228 202 73 72 163 170 199 217 113 145 211 316 275 475 22 56 46 119 53 141 8
22 23 87 34 144 14 70 21 142 21 225 0 91 -5 140 -20 196 -11 41 -26 86 -32
100 -29 59 -91 141 -139 183 -28 25 -74 56 -103 70 -28 14 -76 28 -106 32 -30
3 -63 9 -72 11 -11 3 -18 15 -18 31 0 26 0 26 78 20 44 -3 106 -16 138 -28 32
-12 79 -36 104 -52 25 -17 65 -54 90 -84 25 -29 62 -86 82 -126 21 -42 44
-109 54 -157 13 -67 16 -117 11 -235 -2 -82 -9 -161 -15 -175 -5 -14 -15 -54
-22 -89 -6 -35 -25 -105 -42 -155 -17 -50 -52 -138 -78 -196 -26 -58 -70 -144
-98 -191 -27 -47 -73 -121 -102 -165 -50 -75 -142 -192 -189 -241 -12 -12 -21
-29 -21 -38 0 -8 6 -15 13 -15 32 0 244 252 367 437 48 72 107 173 132 225 25
51 62 136 82 189 19 53 46 139 60 191 13 52 29 129 35 172 6 42 11 121 11 174
0 53 -6 133 -14 177 -14 81 -38 149 -82 240 -13 28 -47 78 -74 112 -28 34 -76
80 -106 103 -31 23 -84 55 -118 70 -34 16 -88 33 -121 39 -32 6 -86 11 -119
11 -34 -1 -90 -7 -124 -14 -35 -8 -94 -29 -130 -47 -45 -22 -93 -59 -144 -110
-56 -55 -86 -95 -108 -141 -16 -35 -35 -91 -41 -123 -6 -33 -9 -85 -5 -116 3
-32 11 -70 18 -85 7 -16 25 -48 41 -71 19 -29 35 -43 50 -43 16 1 28 12 42 43
12 24 37 54 62 71 30 21 58 31 97 34 29 2 70 -1 89 -7 19 -7 46 -23 60 -37 14
-14 34 -44 46 -68 11 -24 23 -66 27 -93 4 -32 0 -72 -11 -118 -10 -39 -34
-106 -55 -150 -20 -44 -65 -118 -100 -164 -34 -47 -106 -127 -159 -179 -53
-52 -136 -125 -186 -161 -49 -37 -124 -88 -165 -114 -41 -25 -128 -71 -192
-102 -126 -60 -247 -105 -285 -105 -16 0 -23 6 -23 20 0 11 24 55 54 98 29 42
65 110 80 150 35 97 35 180 1 283 -20 60 -38 90 -79 135 -42 46 -55 69 -60
104 -21 134 -57 310 -69 346 -22 60 -53 119 -90 167 -18 24 -51 59 -74 77 -23
19 -60 44 -82 56 -21 13 -98 44 -169 70 -72 25 -145 55 -162 65 -17 11 -35 31
-41 47 -18 46 -2 158 43 291 30 90 50 132 73 157 27 29 39 34 77 34 24 0 95
-7 158 -16 66 -9 141 -14 177 -10 34 3 80 14 102 25 21 11 55 39 74 61 22 26
37 56 41 82 4 22 4 66 0 98 -6 52 -4 58 19 76 13 11 31 33 39 49 9 18 13 45
11 67 -4 29 1 44 21 71 14 19 26 41 26 49 0 9 -7 32 -15 51 -8 20 -15 45 -15
57 0 14 14 26 46 42 26 12 61 36 79 54 18 17 35 44 37 58 3 14 3 37 1 50 -3
13 -27 50 -54 83 -27 32 -69 87 -93 123 -24 36 -49 82 -56 103 -7 23 -9 59 -6
90 4 29 9 96 12 150 5 76 10 103 24 117 10 10 33 48 51 86 32 64 34 75 34 169
0 94 -3 105 -36 176 -23 47 -56 96 -90 131 -30 31 -79 72 -109 91 -58 36 -139
67 -230 87 -30 7 -100 34 -155 60 -55 26 -137 59 -181 73 -45 14 -121 34 -170
44 -70 14 -135 18 -304 18 -196 -1 -225 -3 -325 -27 -60 -14 -157 -45 -215
-67 -58 -23 -134 -58 -170 -78 -75 -41 -166 -104 -250 -174 -33 -27 -85 -81
-116 -120 -31 -39 -76 -103 -100 -141 -24 -39 -58 -105 -75 -147 -18 -42 -40
-105 -49 -141 -17 -65 -17 -65 -126 -70 -90 -4 -116 -9 -150 -28 -37 -21 -62
-55 -78 -106 -3 -10 -1 -37 5 -60 8 -29 28 -58 72 -101 34 -34 86 -76 115 -95
41 -26 52 -39 52 -59 0 -15 -7 -38 -16 -51 -27 -40 -97 -111 -124 -125 -14 -7
-47 -21 -75 -31 -39 -14 -97 -19 -265 -24 -153 -5 -232 -12 -275 -24 -33 -9
-96 -35 -140 -56 -44 -22 -111 -63 -148 -91 -38 -29 -92 -80 -120 -115 -36
-46 -57 -64 -74 -64 -19 0 -23 5 -23 31 0 50 48 254 91 382 21 64 55 156 74
203 47 114 136 290 198 394 28 47 76 121 106 165 30 44 88 123 130 175 42 52
132 151 201 220 69 70 168 160 220 202 104 82 286 208 390 268 118 68 233 126
355 177 66 28 167 67 225 86 122 42 319 94 405 107 33 5 103 17 155 26 71 13
158 17 340 18 151 0 279 -5 335 -12 137 -20 309 -57 418 -91 53 -17 143 -49
199 -71 56 -23 145 -64 198 -91 52 -26 122 -67 155 -89 33 -22 66 -40 73 -40
6 0 12 9 12 19 0 29 -215 168 -395 256 -82 40 -197 89 -255 108 -113 38 -272
78 -385 96 -38 7 -81 14 -95 17 -26 6 -180 18 -360 30 -58 3 -109 2 -113 -2z
m951 -1291 c5 -16 19 -53 31 -83 11 -30 28 -84 37 -120 13 -54 15 -93 9 -226
-6 -149 -5 -165 13 -207 23 -53 82 -141 141 -212 22 -27 41 -60 41 -72 0 -12
-9 -27 -19 -33 -11 -5 -29 -10 -41 -10 -19 0 -42 -10 -127 -54 -18 -10 -33
-22 -33 -27 0 -6 13 -17 29 -27 18 -10 33 -30 40 -53 6 -20 11 -43 11 -51 0
-7 -24 -26 -52 -41 -29 -15 -73 -31 -98 -35 -35 -6 -46 -12 -48 -28 -2 -15 10
-28 46 -51 49 -31 49 -31 48 -158 -1 -128 -1 -128 -29 -149 -24 -17 -42 -21
-105 -20 -135 1 -395 61 -572 131 -63 25 -127 54 -142 65 -14 10 -33 18 -42
18 -9 0 -16 -7 -16 -15 0 -8 26 -45 57 -82 31 -38 63 -72 69 -78 7 -5 28 -29
47 -52 28 -34 36 -55 42 -102 5 -42 2 -75 -9 -113 -52 -182 -58 -215 -57 -307
1 -52 4 -106 7 -120 3 -14 15 -52 26 -83 15 -43 25 -58 39 -58 11 0 19 5 19
10 0 6 10 10 22 10 19 0 134 -38 274 -92 29 -11 61 -28 72 -39 12 -10 24 -19
27 -19 3 0 24 -18 46 -40 22 -21 51 -65 65 -96 24 -55 54 -162 54 -196 0 -11
-8 -18 -19 -18 -10 0 -38 9 -62 20 -24 11 -62 20 -83 20 -27 0 -50 8 -74 26
-19 15 -56 35 -83 45 -32 12 -75 19 -124 19 -41 0 -85 -5 -99 -11 -20 -10 -37
-8 -82 6 -41 13 -74 16 -118 12 -33 -3 -77 -13 -96 -21 -19 -8 -48 -24 -65
-36 -20 -13 -47 -20 -80 -20 -27 0 -73 -9 -102 -18 -28 -10 -72 -34 -96 -53
-25 -19 -55 -50 -66 -70 -13 -23 -31 -39 -48 -44 -14 -3 -49 -21 -77 -40 -52
-35 -100 -99 -123 -164 -7 -20 -13 -55 -13 -77 0 -23 -12 -67 -26 -98 -14 -31
-28 -80 -31 -110 -4 -37 0 -69 11 -102 9 -26 16 -56 16 -66 0 -12 -7 -18 -23
-18 -12 0 -70 31 -127 69 -58 38 -136 99 -173 136 -37 37 -86 94 -109 127 -22
33 -55 92 -73 131 -17 40 -40 99 -50 132 -13 43 -18 92 -18 170 0 118 14 187
57 281 14 29 39 75 57 101 33 49 121 139 170 174 15 11 92 54 171 95 79 42
170 96 204 119 33 24 92 77 130 118 45 48 86 106 117 165 26 50 57 117 68 149
11 32 27 87 35 123 8 37 18 142 21 241 6 175 6 175 67 198 33 13 91 43 127 67
37 24 96 75 132 113 39 42 77 95 95 133 17 35 40 101 52 148 13 47 36 113 51
148 16 35 44 85 63 111 19 26 62 66 95 89 32 23 64 42 70 42 6 0 11 5 11 10 0
6 11 10 25 10 20 0 25 -5 25 -25 0 -14 -5 -25 -11 -25 -14 0 -48 -41 -49 -57
0 -7 4 -13 10 -13 5 0 43 11 84 25 50 17 97 25 142 25 39 0 87 -7 111 -16 23
-9 49 -14 57 -11 9 4 18 18 22 32 4 18 1 32 -12 46 -10 11 -34 27 -53 35 -18
8 -57 14 -85 14 -28 0 -73 -7 -100 -15 -27 -8 -57 -15 -68 -15 -12 0 -18 7
-18 23 1 14 21 39 58 72 32 28 77 73 101 100 23 28 57 76 74 107 23 42 38 58
53 58 14 0 25 -9 32 -27z m-3038 -1208 c0 -14 -5 -25 -11 -25 -20 0 -143 -53
-200 -86 -32 -19 -67 -34 -78 -34 -14 0 -21 -6 -21 -20 0 -15 -7 -20 -25 -20
-20 0 -25 5 -25 25 0 20 5 25 25 25 17 0 25 6 25 18 0 9 19 29 43 43 23 15 74
40 112 57 39 16 77 32 85 35 8 3 27 6 43 6 22 1 27 -3 27 -24z m530 -727 c0
-17 -16 -33 -63 -63 -34 -22 -96 -75 -138 -118 -42 -43 -94 -109 -117 -147
-22 -37 -54 -106 -71 -153 -16 -47 -34 -119 -40 -162 -6 -42 -11 -109 -11
-148 0 -40 7 -106 15 -147 7 -41 23 -102 34 -135 11 -33 21 -68 21 -77 0 -12
-8 -18 -24 -18 -17 0 -28 9 -39 33 -38 79 -59 147 -74 232 -21 123 -13 271 21
388 14 48 41 118 60 155 19 37 55 95 81 129 25 35 74 87 108 117 96 85 175
135 215 136 16 0 22 -6 22 -22z m3740 -253 c0 -20 -5 -25 -25 -25 -20 0 -25 5
-25 25 0 20 5 25 25 25 20 0 25 -5 25 -25z M5291 5743 c-6 -21 -11 -48 -11
-59 0 -12 -7 -25 -16 -28 -9 -3 -26 -6 -40 -6 -13 0 -60 9 -104 21 -44 12 -87
19 -95 15 -8 -3 -15 -13 -15 -23 0 -10 24 -37 53 -59 28 -23 66 -48 84 -58 19
-9 56 -16 90 -16 73 0 177 30 181 53 2 9 -8 22 -26 31 -16 8 -32 22 -35 29 -3
8 -9 36 -12 63 -7 48 -20 74 -36 74 -4 0 -13 -17 -18 -37z" />
    </g>
    <g fill="#ffffff" stroke="#ffffff" stroke-width="5" stroke-linejoin="round" stroke-linecap="round">
      <path d="M8436 5741 c-24 -46 -5 -71 88 -115 45 -21 89 -46 99 -54 9 -8 28
-38 41 -66 13 -28 32 -82 41 -121 14 -63 16 -185 13 -1245 -3 -1175 -3 -1175
-37 -1235 -36 -65 -88 -125 -107 -125 -6 0 -17 -7 -24 -15 -7 -8 -21 -15 -30
-15 -10 0 -32 -12 -49 -26 -21 -17 -31 -35 -31 -53 0 -15 8 -35 18 -44 17 -16
113 -17 1168 -17 1150 0 1150 0 1175 28 13 15 30 37 37 49 6 13 12 31 12 41 0
10 4 22 9 28 11 12 41 132 41 167 0 14 5 29 10 32 6 3 10 17 10 30 0 13 4 26
9 29 5 3 11 20 14 38 3 18 10 52 16 76 23 91 30 129 31 168 0 31 -6 46 -28 67
-15 15 -33 27 -38 27 -12 0 -84 -72 -84 -84 0 -5 -12 -24 -27 -42 -16 -19 -40
-49 -55 -68 -16 -18 -28 -37 -28 -42 0 -13 -113 -124 -126 -124 -6 0 -19 -9
-29 -20 -10 -11 -24 -20 -30 -20 -7 0 -18 -7 -25 -15 -20 -24 -111 -64 -162
-71 -27 -4 -51 -11 -54 -15 -3 -5 -25 -9 -49 -9 -24 0 -47 -4 -50 -10 -4 -6
-133 -10 -354 -10 -191 0 -351 3 -355 7 -4 5 -26 12 -49 18 -35 9 -45 17 -68
60 -15 28 -28 60 -28 72 -1 12 -5 25 -11 28 -7 4 -10 398 -10 1151 0 756 3
1144 10 1144 6 0 10 17 10 38 0 23 13 64 34 106 19 37 42 76 52 87 9 11 43 31
75 45 31 14 71 41 89 59 31 32 32 36 20 64 -12 31 -12 31 -591 31 -578 0 -578
0 -593 -29z M14475 5730 c-3 -5 -16 -10 -29 -10 -12 0 -26 -4 -31 -8 -6 -5
-44 -19 -85 -32 -41 -13 -79 -27 -85 -31 -5 -4 -28 -10 -50 -14 -22 -4 -47
-14 -56 -22 -9 -7 -34 -16 -55 -19 -22 -3 -48 -9 -59 -14 -11 -4 -36 -13 -55
-20 -52 -18 -83 -33 -102 -49 -24 -19 -24 -83 0 -104 10 -10 26 -17 34 -17 22
0 100 -45 124 -72 11 -13 30 -40 42 -61 21 -37 22 -47 22 -408 0 -296 -3 -369
-13 -369 -7 0 -17 4 -23 10 -5 5 -45 28 -89 50 -43 22 -106 45 -139 51 -34 6
-69 15 -78 20 -23 12 -385 12 -392 0 -3 -4 -34 -11 -68 -15 -68 -7 -127 -24
-151 -44 -8 -7 -31 -16 -51 -19 -20 -3 -41 -12 -47 -19 -6 -8 -17 -14 -23 -14
-18 0 -136 -79 -143 -96 -3 -8 -9 -14 -15 -14 -14 0 -198 -173 -198 -186 0 -6
-7 -17 -15 -24 -9 -7 -25 -33 -35 -56 -11 -24 -24 -45 -29 -49 -12 -7 -41 -64
-41 -80 0 -7 -11 -33 -25 -59 -14 -26 -25 -60 -25 -76 0 -16 -4 -32 -10 -35
-5 -3 -10 -30 -10 -60 0 -30 -4 -57 -10 -60 -6 -4 -10 -68 -10 -161 0 -96 4
-154 10 -154 6 0 10 -20 10 -44 0 -25 5 -48 10 -51 6 -3 10 -19 10 -34 0 -34
31 -134 58 -188 12 -22 28 -45 36 -52 9 -8 16 -19 16 -26 0 -6 9 -20 20 -30
11 -10 20 -23 20 -29 0 -13 201 -216 214 -216 5 0 17 -6 25 -14 25 -23 131
-76 151 -76 11 0 22 -4 25 -10 3 -5 17 -10 30 -10 13 0 27 -4 30 -10 3 -5 21
-10 40 -10 19 0 37 -4 40 -10 4 -6 78 -10 190 -10 112 0 186 4 190 10 3 5 21
10 40 10 19 0 37 5 40 10 3 6 21 10 40 10 18 0 35 4 37 8 2 4 46 29 98 56 52
26 105 54 118 61 13 7 38 26 55 42 37 34 81 63 97 63 6 0 10 -34 10 -87 0 -81
2 -89 27 -115 27 -28 27 -28 363 -28 314 0 338 1 353 18 10 10 17 28 17 40 0
12 -15 36 -32 52 -18 16 -38 30 -45 30 -7 0 -32 14 -57 31 -31 20 -52 45 -66
76 -11 25 -20 60 -20 79 0 18 -4 36 -10 39 -7 4 -10 466 -10 1354 0 1347 0
1347 -33 1379 -26 26 -41 32 -74 32 -23 0 -45 -4 -48 -10z m-795 -1330 c0 -5
15 -10 34 -10 19 0 38 -4 41 -10 3 -5 14 -10 24 -10 22 0 116 -47 131 -65 7
-8 18 -15 24 -15 23 0 87 -78 122 -145 34 -69 34 -69 34 -523 0 -316 -3 -460
-11 -475 -6 -12 -21 -32 -32 -44 -11 -12 -25 -32 -31 -44 -6 -13 -36 -40 -66
-61 -30 -21 -80 -51 -110 -66 -54 -26 -60 -27 -229 -27 -131 0 -175 3 -179 13
-2 6 -12 12 -21 12 -21 0 -78 27 -86 40 -3 5 -23 17 -43 26 -41 19 -132 101
-132 120 0 6 -7 17 -15 24 -16 13 -75 130 -75 149 0 6 -9 30 -19 54 -21 45
-30 79 -38 142 -3 22 -9 44 -14 50 -12 13 -11 192 1 200 6 3 10 33 10 65 0 32
5 62 10 65 6 3 10 19 10 36 0 16 4 37 9 47 5 9 17 44 27 77 17 59 53 115 129
201 35 40 70 68 167 127 15 9 36 17 47 17 11 0 23 5 26 10 3 6 21 10 40 10 19
0 37 5 40 10 3 6 44 10 91 10 49 0 84 -4 84 -10z M17647 5722 c-10 -10 -17
-32 -17 -49 0 -29 6 -34 90 -77 50 -26 90 -53 90 -60 0 -7 9 -21 20 -31 11
-10 20 -24 20 -32 0 -7 5 -13 10 -13 6 0 10 -15 10 -34 0 -19 5 -38 10 -41 6
-3 10 -30 10 -60 0 -30 5 -57 10 -60 7 -4 10 -380 10 -1095 0 -715 -3 -1091
-10 -1095 -5 -3 -10 -28 -10 -55 0 -27 -4 -52 -10 -55 -5 -3 -10 -19 -10 -36
0 -16 -6 -39 -12 -52 -27 -48 -86 -101 -141 -127 -31 -15 -64 -33 -72 -40 -8
-7 -15 -25 -15 -40 0 -15 8 -34 18 -43 17 -15 70 -17 551 -17 533 0 533 0 552
23 10 12 18 29 19 38 0 9 -8 22 -17 30 -10 8 -40 26 -68 39 -27 14 -65 36 -82
50 -18 14 -33 31 -33 38 0 6 -4 12 -9 12 -12 0 -41 57 -41 81 0 10 -4 21 -10
24 -5 3 -10 30 -10 60 0 30 -4 57 -10 60 -7 4 -10 400 -10 1155 0 755 3 1151
10 1155 6 3 10 21 10 40 0 27 8 40 37 64 38 31 38 31 270 31 144 0 234 -4 238
-10 3 -5 21 -10 40 -10 19 0 37 -4 40 -10 3 -5 17 -10 31 -10 13 0 24 -4 24
-10 0 -5 9 -10 20 -10 11 0 20 -4 20 -10 0 -5 9 -10 20 -10 11 0 20 -4 20 -10
0 -5 9 -10 20 -10 11 0 20 -4 20 -10 0 -5 6 -10 13 -10 14 0 147 -130 147
-144 0 -5 6 -17 14 -25 24 -28 76 -132 76 -151 0 -10 5 -22 10 -25 6 -3 10
-21 10 -40 0 -19 5 -37 10 -40 6 -3 10 -28 10 -55 0 -27 5 -52 10 -55 6 -3 10
-50 10 -105 0 -55 -4 -102 -10 -105 -5 -3 -10 -33 -10 -65 0 -32 -4 -62 -10
-65 -5 -3 -10 -21 -10 -40 0 -19 -4 -37 -10 -40 -5 -3 -10 -16 -10 -29 0 -12
-16 -54 -35 -92 -20 -38 -42 -80 -49 -93 -19 -33 -138 -151 -152 -151 -6 0
-17 -7 -24 -15 -15 -19 -68 -45 -90 -45 -9 0 -20 -4 -26 -10 -17 -17 -156 -33
-297 -35 -135 -1 -139 -2 -173 -28 -25 -21 -34 -36 -34 -58 0 -20 8 -38 23
-50 12 -11 44 -31 71 -45 37 -19 69 -27 137 -31 49 -3 89 -10 89 -14 0 -12
217 -12 224 0 3 4 47 11 98 14 51 3 107 10 123 16 17 6 55 17 86 26 31 9 65
23 75 30 11 8 26 15 35 15 21 0 115 48 129 65 7 8 16 15 21 15 19 0 80 52 169
143 52 54 96 105 98 113 2 8 8 14 13 14 5 0 20 22 34 49 13 27 29 52 34 55 5
4 19 39 31 79 12 39 25 82 31 95 5 13 9 33 9 45 0 13 4 27 9 32 10 11 19 80
27 204 4 53 2 87 -5 94 -6 6 -11 37 -11 68 0 32 -4 61 -10 64 -5 3 -10 19 -10
35 0 16 -4 32 -10 35 -5 3 -10 14 -10 24 0 10 -7 32 -15 47 -8 16 -15 39 -15
50 0 12 -7 27 -16 35 -8 7 -24 30 -35 50 -10 21 -29 53 -41 71 -35 51 -207
207 -262 236 -72 40 -86 48 -99 61 -6 6 -19 11 -29 11 -9 0 -34 7 -55 16 -60
26 -76 32 -108 39 -16 4 -48 9 -70 12 -22 3 -44 9 -49 14 -6 5 -34 9 -62 9
-29 0 -56 5 -59 10 -4 7 -283 10 -804 10 -760 0 -799 -1 -814 -18z M11562
5613 c-65 -32 -132 -87 -132 -108 0 -7 -9 -20 -20 -30 -11 -10 -20 -28 -20
-41 0 -13 -4 -26 -10 -29 -6 -3 -10 -50 -10 -105 0 -55 4 -102 10 -105 6 -3
10 -16 10 -29 0 -13 9 -31 20 -41 11 -10 20 -23 20 -29 0 -12 50 -66 62 -66 4
0 27 -13 50 -30 26 -19 53 -30 74 -30 18 0 45 -5 59 -12 19 -9 28 -9 37 0 7 7
31 12 54 12 25 0 47 6 54 15 7 8 17 15 22 15 21 0 138 95 138 112 0 5 10 23
23 39 20 28 22 42 22 142 0 75 -5 124 -14 147 -8 19 -40 61 -70 92 -30 32 -73
68 -95 79 -29 15 -68 24 -130 28 -86 6 -91 5 -154 -26z M11795 4610 c-3 -5
-15 -10 -25 -10 -22 0 -225 -65 -252 -80 -10 -6 -27 -10 -37 -10 -11 0 -23 -4
-26 -10 -3 -5 -22 -10 -41 -10 -19 0 -34 -4 -34 -10 0 -5 -11 -10 -24 -10 -14
0 -28 -4 -31 -10 -3 -5 -16 -10 -29 -10 -12 0 -34 -13 -49 -28 -16 -16 -27
-39 -27 -55 0 -20 10 -33 40 -52 22 -14 48 -25 59 -25 10 0 24 -7 31 -15 7 -8
19 -15 26 -15 8 0 14 -6 14 -14 0 -7 7 -19 15 -26 9 -7 23 -29 33 -49 16 -33
17 -88 17 -638 0 -468 -3 -605 -12 -615 -7 -6 -13 -22 -13 -34 0 -12 -7 -28
-16 -35 -9 -7 -20 -24 -25 -36 -5 -13 -17 -26 -26 -30 -10 -3 -26 -13 -35 -21
-10 -8 -37 -24 -60 -36 -33 -16 -44 -27 -46 -49 -2 -17 4 -37 14 -48 16 -18
37 -19 486 -19 470 0 470 0 489 23 10 12 18 34 19 50 0 20 -6 30 -24 37 -13 5
-27 14 -31 19 -3 6 -16 11 -29 11 -12 0 -27 5 -33 11 -6 6 -22 17 -35 23 -12
6 -35 34 -50 61 -17 32 -28 65 -28 92 0 23 -4 45 -10 48 -7 4 -10 283 -10 804
0 760 -1 799 -18 814 -14 13 -38 17 -90 17 -39 0 -74 -4 -77 -10z M16046 4613
c-4 -4 -30 -10 -59 -14 -93 -13 -159 -30 -196 -50 -19 -10 -41 -19 -48 -19
-18 0 -150 -70 -164 -86 -6 -8 -17 -14 -23 -14 -7 0 -25 -13 -41 -30 -16 -16
-34 -30 -40 -30 -14 0 -175 -162 -175 -176 0 -6 -9 -19 -21 -30 -11 -10 -29
-37 -39 -60 -11 -22 -26 -47 -35 -54 -8 -7 -15 -21 -15 -31 0 -10 -13 -42 -30
-72 -16 -30 -30 -67 -30 -80 0 -14 -4 -29 -10 -32 -5 -3 -10 -21 -10 -40 0
-19 -4 -37 -10 -40 -6 -4 -10 -75 -10 -180 0 -105 4 -176 10 -180 6 -3 10 -21
10 -40 0 -19 5 -37 10 -40 6 -3 10 -19 10 -35 0 -16 5 -32 10 -35 6 -3 10 -15
10 -26 0 -10 5 -19 10 -19 6 0 10 -8 10 -18 0 -22 27 -79 41 -87 5 -4 18 -25
28 -48 11 -23 33 -55 50 -71 17 -17 31 -34 31 -40 0 -14 81 -96 95 -96 6 0 29
-18 50 -40 21 -22 44 -40 51 -40 6 0 17 -6 23 -14 16 -19 172 -96 193 -96 9 0
20 -4 23 -10 3 -5 17 -10 30 -10 13 0 27 -4 30 -10 3 -5 21 -10 40 -10 19 0
37 -4 40 -10 3 -5 28 -10 55 -10 27 0 52 -4 55 -10 8 -14 402 -14 410 0 3 6
28 10 55 10 27 0 52 5 55 10 3 6 21 10 40 10 19 0 37 5 40 10 3 6 17 10 30 10
13 0 27 5 30 10 3 6 14 10 24 10 22 0 175 76 191 95 7 8 18 15 25 15 6 0 20 9
30 20 10 11 23 20 29 20 6 0 54 44 107 98 92 95 139 152 139 170 0 5 7 15 15
22 18 15 85 150 85 172 0 9 5 20 10 23 6 3 10 19 10 35 0 16 5 32 10 35 6 3
10 26 10 50 0 24 5 47 10 50 6 4 10 62 10 140 0 78 -4 136 -10 140 -5 3 -10
26 -10 50 0 24 -4 47 -10 50 -5 3 -10 19 -10 35 0 16 -4 32 -10 35 -5 3 -10
14 -10 23 0 22 -87 197 -106 212 -8 7 -14 17 -14 22 0 16 -43 72 -109 141 -36
37 -70 67 -76 67 -6 0 -24 14 -40 30 -16 17 -34 30 -41 30 -6 0 -17 7 -24 15
-12 15 -148 85 -165 85 -6 0 -27 9 -46 19 -20 11 -64 23 -98 27 -34 4 -64 11
-67 15 -3 5 -27 9 -54 9 -27 0 -52 5 -55 10 -4 6 -76 10 -184 10 -98 0 -181
-3 -185 -7z m279 -213 c3 -5 14 -10 23 -10 27 0 156 -68 182 -95 13 -14 29
-25 36 -25 15 0 64 -56 64 -73 0 -7 8 -17 19 -24 10 -6 35 -45 54 -85 20 -40
48 -109 62 -153 14 -44 30 -88 35 -97 6 -10 10 -40 10 -67 0 -28 5 -53 10 -56
6 -4 10 -62 10 -140 0 -78 -4 -136 -10 -140 -5 -3 -10 -30 -10 -60 0 -30 -4
-57 -10 -60 -5 -3 -10 -19 -10 -35 0 -16 -4 -32 -10 -35 -5 -3 -10 -16 -10
-28 0 -12 -9 -37 -20 -55 -11 -18 -20 -41 -20 -52 0 -11 -4 -20 -10 -20 -5 0
-19 -21 -31 -47 -12 -26 -47 -74 -77 -105 -31 -32 -63 -58 -73 -58 -10 0 -22
-6 -26 -14 -8 -13 -48 -33 -108 -54 -16 -6 -60 -16 -97 -21 -48 -8 -86 -8
-138 0 -43 6 -100 25 -143 46 -40 19 -83 41 -96 48 -31 17 -111 95 -122 120
-5 11 -22 41 -37 67 -59 102 -71 125 -77 161 -4 21 -11 40 -16 43 -5 3 -9 20
-9 39 0 19 -4 37 -10 40 -5 3 -10 21 -10 40 0 19 -4 37 -10 40 -6 4 -10 82
-10 200 0 118 4 196 10 200 6 3 10 21 10 40 0 19 5 47 11 62 6 15 15 37 19 48
5 11 11 32 14 46 3 14 24 59 46 100 43 77 133 179 160 179 8 0 21 9 28 20 7
11 21 20 32 20 11 0 20 5 20 10 0 6 11 10 24 10 14 0 28 5 31 10 3 6 17 10 30
10 13 0 27 5 30 10 4 6 53 10 115 10 62 0 111 -4 115 -10z M20995 4610 c-3 -5
-17 -10 -30 -10 -13 0 -26 -4 -29 -9 -3 -5 -26 -12 -51 -15 -24 -4 -47 -11
-50 -17 -4 -5 -17 -9 -30 -9 -13 0 -27 -4 -30 -10 -3 -5 -15 -10 -26 -10 -10
0 -27 -4 -37 -9 -81 -41 -108 -51 -132 -51 -16 0 -32 -4 -35 -10 -3 -5 -15
-10 -26 -10 -22 0 -67 -26 -86 -49 -7 -8 -13 -27 -13 -41 0 -15 10 -36 23 -47
12 -11 44 -26 71 -34 31 -9 59 -26 78 -47 16 -19 31 -47 35 -63 3 -16 10 -32
14 -35 5 -3 9 -275 9 -604 0 -388 -4 -601 -10 -605 -5 -3 -10 -15 -10 -25 0
-22 -33 -86 -61 -115 -10 -11 -43 -31 -73 -45 -42 -18 -57 -30 -61 -50 -3 -15
-1 -39 4 -53 11 -27 11 -27 474 -27 437 0 465 1 480 18 10 10 17 28 17 40 0
12 -9 31 -20 42 -11 11 -24 20 -29 20 -14 0 -82 40 -109 64 -13 12 -30 37 -39
56 -8 19 -19 69 -25 110 -15 102 -15 909 0 975 23 104 37 153 52 170 8 9 19
26 25 38 9 19 50 49 85 63 8 3 25 10 38 15 13 5 54 9 92 9 50 0 84 -6 120 -22
27 -12 50 -27 50 -33 0 -7 9 -20 20 -30 11 -10 20 -26 20 -35 0 -30 27 -71 55
-86 32 -16 75 -19 75 -4 0 6 11 10 23 10 13 0 32 9 42 20 10 11 23 20 30 20 6
0 25 15 41 33 35 37 74 102 74 123 0 8 5 14 10 14 6 0 10 36 10 89 0 50 -4 93
-10 96 -5 3 -10 16 -10 29 0 31 -108 134 -150 142 -17 4 -33 11 -36 15 -3 5
-58 9 -122 9 -78 0 -131 -5 -160 -15 -61 -22 -136 -61 -151 -79 -8 -9 -19 -16
-26 -16 -7 0 -52 -40 -101 -90 -48 -49 -94 -90 -101 -90 -10 0 -13 26 -13 114
0 110 -1 115 -27 145 -25 28 -33 31 -85 31 -31 0 -60 -4 -63 -10z M23056 4611
c-3 -4 -38 -11 -78 -14 -71 -6 -171 -36 -192 -57 -5 -5 -20 -10 -32 -10 -13 0
-26 -4 -29 -10 -3 -5 -27 -19 -52 -30 -54 -24 -143 -81 -162 -104 -8 -9 -18
-16 -23 -16 -15 0 -146 -131 -179 -178 -16 -24 -29 -47 -29 -51 0 -5 -7 -14
-15 -21 -9 -7 -25 -32 -35 -55 -10 -23 -26 -48 -35 -55 -8 -7 -15 -19 -15 -26
0 -7 -9 -33 -19 -56 -10 -24 -25 -65 -32 -93 -7 -27 -14 -135 -17 -239 -3
-133 -1 -195 8 -210 6 -12 10 -26 9 -32 -4 -16 13 -84 22 -90 5 -3 9 -16 9
-29 0 -13 5 -27 10 -30 6 -3 10 -17 10 -29 0 -13 7 -29 16 -36 8 -8 22 -29 30
-48 8 -20 30 -55 49 -78 19 -23 35 -48 36 -56 1 -19 176 -175 234 -208 99 -56
191 -100 207 -100 9 0 20 -4 23 -10 3 -5 17 -10 31 -10 13 0 24 -4 24 -10 0
-5 15 -10 34 -10 19 0 38 -4 41 -10 3 -5 31 -10 61 -10 30 0 54 -4 54 -10 0
-6 73 -10 199 -10 123 0 202 4 206 10 3 6 26 10 51 10 24 0 44 5 44 10 0 6 20
10 44 10 25 0 48 5 51 10 3 6 15 10 25 10 11 0 35 9 55 20 20 11 44 20 55 20
10 0 21 4 25 9 3 5 19 12 35 16 17 4 35 15 40 26 6 10 20 19 31 19 11 0 22 7
25 15 3 8 14 17 25 20 10 4 31 17 47 31 117 104 152 139 152 149 0 6 14 24 30
40 17 16 30 33 30 39 0 5 7 17 15 26 8 9 35 55 59 103 25 48 48 104 52 125 4
20 10 42 14 47 14 18 22 98 27 259 2 104 0 163 -7 170 -5 5 -10 23 -10 38 0
16 -12 66 -26 111 -14 45 -30 89 -35 97 -4 8 -16 31 -26 50 -38 76 -108 169
-186 248 -45 45 -86 82 -93 82 -6 0 -21 12 -35 26 -13 14 -43 35 -67 45 -24
11 -46 26 -49 34 -3 8 -13 15 -22 15 -9 0 -21 4 -26 8 -6 5 -37 17 -70 26 -33
9 -76 24 -95 33 -19 8 -67 17 -108 20 -40 3 -75 10 -78 14 -7 12 -361 12 -368
0z m264 -211 c0 -5 14 -10 30 -10 17 0 30 -4 30 -10 0 -5 8 -10 18 -10 24 0
76 -26 92 -45 7 -8 18 -15 24 -15 14 0 123 -111 152 -155 11 -16 35 -61 54
-100 19 -38 38 -71 42 -73 5 -2 8 -17 8 -33 0 -16 5 -29 10 -29 6 0 10 -11 10
-24 0 -14 5 -28 10 -31 6 -3 10 -30 10 -60 0 -30 5 -57 10 -60 6 -4 10 -78 10
-190 0 -112 -4 -186 -10 -190 -5 -3 -10 -24 -10 -46 0 -21 -4 -48 -10 -59 -5
-11 -14 -29 -20 -40 -5 -11 -10 -26 -10 -33 0 -14 -39 -93 -71 -142 -10 -16
-22 -37 -25 -45 -10 -23 -107 -120 -120 -120 -6 0 -17 -7 -24 -15 -7 -9 -27
-22 -44 -29 -17 -8 -75 -25 -130 -37 -83 -19 -106 -20 -150 -11 -100 21 -152
38 -216 71 -72 37 -200 154 -200 183 0 10 -4 18 -10 18 -5 0 -10 9 -10 20 0
11 -4 20 -10 20 -5 0 -10 9 -10 20 0 11 -3 20 -7 20 -10 0 -33 49 -33 70 0 9
-3 20 -7 24 -9 9 -32 96 -39 146 -3 19 -10 44 -15 55 -6 12 -8 95 -6 205 3
102 8 203 11 225 4 22 11 49 15 60 5 11 14 40 21 65 7 25 29 77 48 117 26 52
56 92 111 146 42 41 102 89 134 106 32 17 71 31 87 31 16 0 32 5 35 10 3 6 52
10 111 10 63 0 104 -4 104 -10z" />
    </g>
    <g fill="#ffffff" stroke="#ffffff" stroke-width="4" stroke-linejoin="round" stroke-linecap="round">
      <path d="M3613 6291 c-10 -11 -28 -39 -40 -63 -27 -54 -75 -162 -92 -208 -34
-93 -51 -130 -70 -152 -9 -11 -28 -18 -51 -18 -20 0 -50 4 -66 9 -16 5 -60 14
-99 20 -158 23 -200 26 -235 15 -19 -6 -36 -17 -38 -23 -2 -7 13 -28 33 -47
38 -36 178 -134 192 -135 4 0 33 -17 63 -37 30 -21 56 -46 58 -56 2 -10 -11
-47 -29 -82 -17 -35 -35 -64 -39 -64 -4 0 -10 -8 -14 -17 -3 -10 -24 -49 -45
-88 -22 -38 -51 -95 -66 -125 -24 -49 -25 -55 -10 -66 9 -7 26 -9 38 -6 30 7
186 112 245 165 26 24 65 54 87 67 38 23 38 23 81 0 24 -12 44 -29 44 -37 0
-8 22 -40 48 -71 27 -31 61 -73 78 -92 16 -19 46 -52 67 -72 27 -28 46 -38 69
-38 31 0 31 0 25 63 -2 34 -16 96 -30 137 -13 41 -30 95 -38 120 -7 25 -16 50
-20 55 -12 17 -21 82 -15 103 5 14 35 32 99 57 51 20 115 47 142 60 28 13 75
35 107 49 63 28 81 57 54 85 -14 14 -45 16 -221 16 -168 0 -207 3 -219 15 -12
12 -16 55 -21 190 -3 96 -8 197 -10 224 -4 44 -16 65 -37 66 -4 0 -15 -9 -25
-19z m35 -98 c-3 -33 -7 -38 -30 -41 -27 -3 -28 -1 -28 37 0 39 1 41 31 41 29
0 30 -2 27 -37z m-22 -87 c3 -14 4 -33 2 -43 -2 -12 -12 -18 -32 -18 -16 0
-33 7 -39 16 -8 13 -6 24 6 43 10 14 26 26 37 26 12 0 22 -9 26 -24z m-11
-116 c4 -13 0 -31 -10 -46 -9 -14 -23 -28 -31 -31 -8 -3 -21 0 -29 7 -8 7 -15
24 -15 39 0 15 5 32 12 39 7 7 24 12 39 12 19 0 30 -6 34 -20z m-27 -138 c2
-18 -2 -40 -9 -48 -6 -8 -24 -14 -40 -14 -22 0 -30 6 -35 26 -4 14 -1 37 5 50
9 21 17 25 44 22 28 -3 32 -7 35 -36z m-512 -4 c4 -15 1 -25 -12 -35 -10 -7
-23 -13 -28 -13 -6 0 -17 4 -25 9 -9 6 -11 18 -7 35 5 21 12 26 36 26 21 0 31
-6 36 -22z m94 -12 c6 -8 10 -25 8 -38 -2 -19 -9 -23 -38 -23 -26 0 -36 5 -38
18 -4 20 24 57 43 57 7 0 18 -7 25 -14z m104 -45 c10 -11 16 -28 14 -38 -2 -9
-15 -22 -30 -27 -19 -7 -31 -6 -42 4 -9 7 -16 22 -16 34 0 12 5 27 12 34 7 7
19 12 28 12 9 0 25 -9 34 -19z m811 -11 c3 -6 3 -19 0 -30 -5 -15 -15 -20 -41
-20 -31 0 -34 2 -34 30 0 28 3 30 34 30 19 0 38 -5 41 -10z m-107 -9 c8 -4 12
-19 10 -32 -2 -20 -10 -25 -40 -27 -36 -3 -38 -2 -38 27 0 16 6 32 13 34 19 8
41 7 55 -2z m-590 -17 c12 -8 22 -23 22 -33 0 -10 -9 -26 -20 -36 -16 -15 -26
-17 -48 -9 -16 5 -31 21 -37 38 -8 23 -6 30 10 42 10 8 26 14 35 14 8 0 26 -7
38 -16z m476 0 c9 -4 16 -18 16 -34 0 -16 -7 -30 -16 -34 -9 -3 -29 -6 -45 -6
-26 0 -29 3 -29 34 0 19 6 37 13 39 18 8 43 8 61 1z m-106 -55 c2 -14 -4 -31
-12 -38 -8 -7 -32 -11 -53 -9 -31 2 -39 7 -41 26 -2 13 2 30 9 38 8 10 26 14
53 12 36 -3 41 -6 44 -29z m-330 -177 c2 -15 -5 -34 -19 -48 -15 -17 -32 -24
-49 -22 -20 2 -26 9 -28 36 -2 18 2 40 9 48 8 10 26 14 48 12 29 -2 37 -8 39
-26z m216 -11 c10 -11 16 -31 14 -47 -2 -15 -11 -32 -20 -37 -12 -8 -24 -7
-42 1 -20 9 -26 19 -26 45 0 18 5 38 12 45 7 7 19 12 28 12 9 0 25 -9 34 -19z
m-314 -94 c0 -25 -6 -37 -25 -47 -20 -11 -27 -11 -40 0 -8 7 -15 22 -15 34 0
12 5 27 12 34 7 7 25 12 40 12 25 0 28 -3 28 -33z m387 -41 c15 -31 15 -36 0
-50 -8 -9 -26 -16 -38 -16 -12 0 -28 8 -35 18 -14 18 -19 64 -7 75 3 4 19 7
35 7 22 0 32 -7 45 -34z m-472 -46 c0 -32 -3 -35 -32 -38 -28 -3 -33 0 -33 18
0 12 5 30 11 41 6 13 18 19 32 17 18 -2 22 -10 22 -38z m513 -68 c3 -32 2 -33
-30 -30 -22 2 -34 9 -36 21 -2 10 -1 25 2 33 4 10 16 14 33 12 24 -2 29 -8 31
-36z m-579 9 c12 -8 13 -14 3 -35 -9 -20 -19 -26 -42 -26 -26 0 -30 3 -30 28
0 16 3 32 7 35 9 10 45 8 62 -2z m629 -88 c-3 -33 -6 -38 -28 -38 -20 0 -26 6
-28 29 -4 30 10 46 41 46 15 0 18 -7 15 -37z" />
    </g>
    <g fill="#ffffff" stroke="#ffffff" stroke-width="4" stroke-linejoin="round" stroke-linecap="round">
      <path d="M4343 6843 c-27 -4 -33 -9 -33 -29 0 -21 -5 -24 -35 -24 -29 0 -35 4
-35 21 0 15 -5 19 -17 15 -10 -3 -38 -10 -63 -16 -77 -19 -105 -28 -92 -29 6
-1 12 -12 12 -26 0 -20 -5 -25 -25 -25 -14 0 -25 -4 -25 -10 0 -5 -16 -10 -35
-10 -28 0 -35 4 -35 19 0 17 -3 18 -30 8 -17 -7 -26 -13 -20 -15 5 -2 10 -15
10 -28 0 -17 -6 -24 -20 -24 -11 0 -20 -4 -20 -10 0 -5 -9 -10 -19 -10 -11 0
-21 -5 -23 -10 -2 -6 -20 -13 -41 -17 -30 -4 -37 -3 -37 11 0 13 -7 12 -40
-10 -22 -15 -40 -31 -40 -35 0 -5 -5 -9 -11 -9 -6 0 -16 -6 -23 -13 -15 -14
-27 -67 -16 -67 4 0 22 14 40 30 18 17 36 30 41 30 5 0 37 15 71 33 84 43 141
67 162 67 9 0 49 15 89 34 66 31 100 41 257 77 30 7 106 13 170 13 111 1 115
2 118 24 3 17 10 22 34 22 17 0 29 2 27 4 -2 2 -25 6 -51 8 -42 5 -48 3 -48
-13 0 -17 -8 -19 -70 -19 -63 0 -70 2 -70 20 0 11 -6 19 -12 18 -7 0 -28 -3
-45 -5z M3602 6283 c-13 -14 -41 -64 -63 -109 -21 -46 -39 -86 -39 -89 0 -3
11 -5 25 -5 18 0 26 -7 31 -25 3 -14 4 -32 0 -40 -3 -9 -18 -15 -35 -15 -25 0
-30 4 -33 28 -3 23 -6 19 -22 -28 -10 -30 -21 -61 -24 -68 -3 -9 2 -10 23 -2
14 5 36 10 47 10 17 0 20 -5 16 -30 -4 -25 -1 -29 21 -32 21 -2 27 -10 32 -38
6 -31 7 -33 14 -12 4 12 11 22 16 22 5 0 9 5 9 10 0 6 -7 10 -15 10 -10 0 -15
10 -15 28 0 15 7 36 15 46 10 13 13 32 9 58 -4 25 -3 38 5 38 7 0 11 21 11 55
0 52 1 55 24 55 21 0 25 -6 29 -37 3 -21 3 8 2 64 -2 76 -7 106 -18 118 -9 8
-22 15 -29 15 -7 0 -23 -12 -36 -27z m48 -88 c0 -20 -5 -25 -25 -25 -20 0 -25
5 -25 25 0 20 5 25 25 25 20 0 25 -5 25 -25z m-30 -115 c0 -25 -4 -30 -25 -30
-21 0 -25 5 -25 30 0 25 4 30 25 30 21 0 25 -5 25 -30z m-20 -110 c0 -27 -3
-30 -30 -30 -25 0 -30 4 -30 23 0 13 3 27 7 30 3 4 17 7 30 7 19 0 23 -5 23
-30z M2945 5900 c-16 -7 -13 -9 18 -9 35 -1 37 -2 37 -35 0 -30 -4 -35 -26
-38 -26 -3 -25 -4 19 -36 46 -32 46 -32 49 -5 2 22 9 29 31 31 22 3 27 -1 27
-17 0 -18 6 -21 50 -21 46 0 50 -2 50 -23 0 -20 -7 -25 -47 -33 l-48 -9 63
-37 c35 -21 64 -38 65 -38 1 0 0 21 -2 46 -3 46 -3 46 38 42 34 -3 41 0 43 17
2 13 13 22 33 26 28 6 27 7 -11 8 -26 1 -47 8 -57 19 -10 10 -17 31 -17 45 0
27 0 27 73 22 l72 -4 -85 13 c-47 7 -100 16 -117 20 -29 7 -33 5 -33 -12 0
-14 -9 -21 -31 -26 -17 -3 -38 -6 -45 -6 -8 0 -14 10 -14 25 0 19 5 25 23 26
35 2 -53 18 -98 18 -22 0 -49 -4 -60 -9z m295 -60 c0 -27 -3 -30 -30 -30 -27
0 -30 3 -30 30 0 27 3 30 30 30 27 0 30 -3 30 -30z m-70 -35 c0 -21 -5 -25
-30 -25 -25 0 -30 4 -30 25 0 21 5 25 30 25 25 0 30 -4 30 -25z m100 -46 c0
-27 -3 -30 -27 -27 -22 2 -29 9 -31 31 -3 24 0 27 27 27 28 0 31 -3 31 -31z
M3717 5817 c3 -5 52 -6 109 -2 104 7 104 7 104 -19 0 -21 5 -26 25 -26 20 0
25 -5 25 -25 0 -21 -5 -25 -30 -25 -26 0 -30 4 -31 28 0 15 -3 21 -6 15 -2 -7
-13 -13 -24 -13 -15 0 -19 -7 -18 -32 0 -18 3 -27 6 -20 3 7 24 12 54 12 45 0
49 -2 49 -25 0 -24 1 -24 38 -11 65 24 112 49 112 62 0 6 9 14 20 17 11 3 20
12 20 20 0 8 -7 20 -15 27 -13 11 -15 8 -15 -14 0 -21 -5 -26 -25 -26 -20 0
-25 5 -25 25 0 19 5 25 23 26 12 1 0 5 -28 10 -61 11 -375 7 -368 -4z M3262
5590 c-1 -14 -16 -49 -32 -79 -17 -30 -30 -56 -30 -58 0 -1 9 -3 20 -3 17 0
20 -7 20 -40 0 -38 -2 -40 -29 -40 -25 0 -30 5 -33 27 -2 22 -12 9 -60 -79
-32 -58 -58 -108 -58 -110 0 -2 18 -2 40 0 37 4 40 2 40 -22 0 -14 3 -26 6
-26 3 0 40 24 82 53 69 47 74 52 49 55 -15 2 -27 9 -27 16 0 8 3 28 6 45 4 21
12 31 25 31 10 0 21 5 24 10 3 6 17 10 31 10 14 0 24 6 24 14 0 8 6 16 14 19
7 3 16 17 18 31 5 23 2 26 -23 26 -25 0 -29 4 -29 28 0 26 -2 28 -34 24 -35
-4 -35 -4 -39 44 -2 27 -4 38 -5 24z m56 -177 c-2 -22 -9 -29 -30 -31 -24 -3
-28 0 -28 21 0 13 3 27 7 30 3 4 17 7 30 7 21 0 24 -4 21 -27z m-78 -88 c0
-20 -5 -25 -25 -25 -20 0 -25 5 -25 25 0 20 5 25 25 25 20 0 25 -5 25 -25z
M3571 5503 c0 -7 -8 -13 -16 -13 -9 0 -15 -9 -15 -23 0 -18 9 -25 45 -36 44
-13 45 -15 47 -55 1 -36 2 -37 5 -8 3 25 9 32 27 32 12 0 27 -5 34 -12 7 -7
12 -25 12 -40 0 -25 -4 -28 -32 -29 -24 -1 -27 -3 -10 -6 18 -4 22 -11 22 -44
0 -35 -3 -39 -25 -39 -14 0 -25 -3 -25 -7 1 -5 28 -37 60 -73 55 -60 60 -63
60 -38 0 24 5 27 45 34 38 5 45 10 45 28 0 12 -8 45 -17 72 -14 37 -18 44 -21
27 -2 -17 -10 -23 -28 -23 -19 0 -24 5 -24 24 0 13 -7 26 -15 30 -9 3 -15 19
-15 41 0 32 2 35 29 35 29 0 29 0 13 51 -17 52 -17 52 -25 15 -8 -34 -11 -36
-48 -36 -39 0 -39 0 -41 48 -1 37 -2 40 -5 14 -4 -31 -7 -33 -36 -30 -28 3
-33 8 -38 38 -4 19 -7 29 -8 23z M2750 5153 c0 -21 -5 -23 -55 -23 -30 0 -55
5 -55 10 0 6 -20 10 -45 10 -41 0 -45 -2 -45 -24 0 -19 -6 -24 -37 -30 -21 -3
-50 -6 -65 -6 -21 0 -28 5 -28 20 0 14 -6 20 -22 19 -13 0 -17 -3 -10 -6 6 -2
12 -16 12 -29 0 -18 -5 -24 -22 -24 -12 0 -18 -3 -15 -7 4 -3 51 1 104 11 233
40 368 67 378 77 7 7 -4 8 -34 3 -32 -5 -45 -3 -52 7 -6 11 -9 8 -9 -8z M2127
4960 c-26 -16 -54 -30 -62 -30 -8 0 -15 -6 -15 -12 0 -19 -75 -78 -99 -78 -11
0 -22 8 -24 18 -4 14 -6 14 -12 -5 -4 -13 -11 -23 -16 -23 -5 0 -9 -6 -9 -14
0 -8 -6 -17 -12 -19 -10 -4 -10 -6 0 -6 6 -1 12 -12 12 -26 0 -19 -5 -25 -22
-25 -20 0 -23 -5 -23 -45 0 -25 0 -45 2 -45 1 0 15 24 32 53 27 47 59 82 160
177 19 17 58 45 88 62 29 16 53 34 53 39 0 5 -1 9 -3 9 -2 0 -24 -13 -50 -30z
M3410 4579 c0 -5 -8 -9 -17 -9 -16 0 -66 -14 -108 -31 -11 -4 -32 -10 -47 -13
-19 -4 -28 -13 -28 -26 0 -13 -12 -25 -36 -35 -20 -8 -45 -15 -55 -15 -12 0
-19 7 -19 19 0 18 -2 18 -62 -4 -101 -37 -115 -44 -95 -44 11 -1 17 -9 17 -22
0 -24 -26 -48 -52 -49 -10 0 -18 -4 -18 -10 0 -5 4 -10 10 -10 5 0 26 9 47 19
50 25 198 86 248 102 22 7 47 19 56 26 8 7 21 13 27 13 7 0 20 4 30 9 84 41
112 57 112 63 0 3 10 8 23 10 20 3 20 4 -5 9 -16 4 -28 2 -28 -2z M6483 4095
c-13 -5 -23 -15 -23 -22 0 -7 -9 -13 -20 -13 -11 0 -20 -6 -20 -14 0 -8 -10
-16 -22 -18 -17 -2 -24 -11 -26 -31 -2 -16 -19 -49 -38 -74 -19 -24 -34 -51
-34 -59 0 -8 -7 -17 -15 -20 -8 -4 -15 -15 -15 -25 0 -10 3 -19 8 -19 4 0 24
16 44 35 20 19 44 35 52 35 9 0 16 7 16 16 0 11 8 15 28 14 15 -1 48 -2 75 -1
43 1 47 3 47 26 0 22 4 25 37 25 20 0 53 -5 72 -12 20 -7 60 -27 88 -46 45
-29 73 -56 111 -107 11 -16 40 -105 51 -163 6 -29 11 -74 11 -100 0 -26 -7
-82 -15 -125 -17 -88 -55 -209 -85 -267 -11 -22 -20 -42 -20 -46 0 -3 6 -1 14
5 8 7 24 37 37 69 12 31 31 72 41 90 10 18 18 41 18 52 0 11 8 44 17 75 13 42
23 57 40 61 17 5 23 13 23 35 0 18 -5 29 -14 29 -8 0 -17 7 -20 16 -3 9 -6 27
-6 40 0 13 -4 32 -9 42 -5 9 -15 46 -22 80 -7 35 -18 66 -26 69 -7 3 -13 16
-13 30 0 16 -19 43 -55 81 -31 31 -58 67 -61 80 -5 19 -13 22 -51 22 -24 0
-64 5 -89 11 -39 10 -44 15 -44 39 0 15 6 33 14 39 10 9 37 9 107 0 52 -6 97
-14 101 -17 3 -4 8 -18 10 -32 3 -22 10 -26 66 -35 47 -8 69 -16 83 -34 10
-13 19 -33 19 -45 0 -11 4 -26 8 -32 4 -6 19 -14 35 -18 15 -3 27 -12 27 -18
0 -6 6 -19 13 -27 19 -23 47 -117 47 -158 0 -43 -20 -113 -32 -113 -4 0 -8 -4
-8 -8 0 -5 14 -7 30 -4 29 4 30 3 30 -34 0 -22 -7 -79 -15 -129 -8 -49 -14
-103 -14 -120 1 -16 10 11 21 60 16 74 19 115 15 230 -4 119 -9 152 -33 220
-15 44 -44 105 -65 135 -20 30 -52 69 -70 86 -41 38 -124 94 -138 94 -6 0 -19
4 -29 9 -9 5 -48 13 -85 19 -42 7 -80 7 -100 1 -17 -5 -46 -9 -64 -9 -22 0
-33 5 -35 18 -2 14 -7 15 -25 7z m37 -110 c0 -21 -5 -25 -30 -25 -25 0 -30 4
-30 25 0 21 5 25 30 25 25 0 30 -4 30 -25z M2565 4018 c-20 -33 -48 -95 -62
-137 -14 -42 -32 -112 -39 -156 -8 -44 -14 -114 -14 -155 0 -41 6 -108 14
-147 15 -79 68 -241 74 -225 2 6 -9 45 -24 88 -25 73 -44 190 -46 279 -2 68
11 197 20 209 5 6 16 39 25 73 16 66 36 112 79 186 15 26 23 47 18 47 -5 0
-25 -28 -45 -62z M2727 2394 c-3 -3 -3 -14 0 -25 3 -12 14 -19 29 -19 17 0 24
-6 24 -20 0 -13 7 -20 20 -20 11 0 20 -7 20 -15 0 -8 7 -15 15 -15 8 0 15 -6
15 -12 1 -7 19 -25 40 -40 40 -28 40 -28 40 -3 0 20 5 25 28 26 27 0 27 0 -8
17 -19 9 -41 23 -48 29 -7 7 -24 16 -38 19 -13 3 -24 10 -24 15 0 5 -7 9 -15
9 -9 0 -26 10 -38 23 -23 25 -52 39 -60 31z" />
    </g>
    <g fill="#ffffff" stroke="#ffffff" stroke-width="4" stroke-linejoin="round" stroke-linecap="round">
      <path d="M4568 6841 c8 -4 12 -19 10 -32 -3 -21 -9 -24 -52 -27 -34 -2 -53 2
-66 13 -12 11 -19 12 -22 5 -2 -6 -24 -13 -48 -16 -25 -3 -94 -14 -155 -26
-60 -11 -134 -32 -163 -45 -30 -14 -64 -23 -78 -20 -16 3 -24 0 -24 -9 0 -8
-10 -14 -24 -14 -14 0 -28 -5 -31 -10 -8 -12 -71 -40 -92 -40 -7 0 -23 -9 -35
-20 -12 -11 -30 -20 -40 -20 -10 0 -18 -4 -18 -10 0 -5 -13 -10 -30 -10 -20 0
-30 5 -30 15 0 13 -4 14 -22 4 -14 -8 -18 -14 -10 -17 6 -2 12 -15 12 -28 0
-19 -5 -24 -25 -24 -14 0 -25 5 -25 12 0 7 -16 -3 -34 -22 -19 -18 -36 -42
-38 -54 -2 -13 -12 -22 -25 -24 -15 -2 -23 -10 -23 -23 0 -10 -7 -19 -15 -19
-8 0 -15 -5 -15 -11 0 -6 -15 -29 -34 -52 -18 -23 -37 -53 -41 -67 -4 -14 -21
-50 -36 -81 -16 -31 -29 -63 -29 -72 0 -8 -7 -28 -15 -43 -8 -16 -15 -35 -15
-41 0 -7 11 -13 23 -13 16 0 28 9 35 25 7 14 12 32 12 40 0 7 4 15 9 17 4 2
27 44 51 93 24 50 60 116 82 147 21 31 53 69 71 83 28 21 44 25 98 25 60 -1
65 -2 87 -33 13 -17 27 -38 32 -45 5 -11 20 -2 56 32 27 25 43 46 37 46 -7 0
-13 11 -13 25 0 15 9 31 24 40 13 9 40 19 60 22 30 5 36 3 37 -13 0 -11 3 -14
6 -6 2 6 12 12 21 12 10 0 42 10 72 21 95 37 203 66 268 74 60 7 62 6 62 -17
0 -20 -11 -27 -94 -55 -52 -18 -129 -53 -173 -79 -91 -56 -189 -131 -230 -177
-15 -18 -45 -58 -67 -89 -24 -35 -36 -63 -32 -73 5 -14 9 -12 28 10 19 21 36
28 93 35 39 5 87 9 108 10 32 0 37 -3 37 -23 0 -13 -14 -36 -31 -53 -17 -16
-48 -55 -69 -86 -30 -45 -35 -58 -23 -62 8 -3 42 -6 76 -6 58 -1 106 -8 169
-25 21 -5 33 0 66 29 38 35 42 36 115 35 42 0 81 2 86 6 23 13 9 25 -29 25
-36 0 -40 2 -40 25 0 20 6 27 30 32 17 3 30 10 30 16 0 10 14 23 55 52 21 15
150 65 236 91 25 8 84 32 132 54 81 38 129 72 188 133 15 15 37 27 48 27 14 0
25 -9 32 -27 10 -27 10 -27 30 4 11 17 29 62 39 100 11 37 20 71 20 75 0 4
-12 8 -27 10 -22 2 -29 9 -31 31 -3 21 -9 27 -28 27 -13 0 -24 5 -24 10 0 6
-7 10 -15 10 -8 0 -15 6 -15 13 0 13 -29 29 -110 58 -30 11 -64 24 -75 29 -28
11 -124 39 -162 46 -31 6 -33 4 -33 -20 0 -22 -4 -26 -30 -26 -25 0 -30 4 -30
25 0 20 5 25 28 26 21 1 19 3 -13 10 -22 4 -58 8 -80 8 -26 1 -35 -2 -27 -8z
m482 -278 c0 -19 -14 -40 -48 -72 -26 -25 -80 -66 -119 -89 -40 -24 -107 -55
-150 -68 -66 -21 -229 -52 -380 -71 -40 -5 -43 -4 -43 19 0 22 9 27 103 56 56
17 122 36 147 43 25 6 53 15 62 20 10 5 27 9 38 9 11 0 20 5 20 10 0 6 11 10
25 10 14 0 33 4 43 9 9 4 53 26 96 47 44 22 98 53 120 71 23 18 51 32 64 32
17 1 22 -5 22 -26z M3562 6233 c-22 -43 -22 -43 2 -43 23 0 36 -16 36 -46 0
-8 -9 -23 -20 -34 -16 -16 -19 -28 -14 -58 5 -30 2 -41 -15 -56 -12 -11 -21
-22 -21 -26 0 -4 9 -17 20 -30 20 -23 21 -23 40 -5 17 16 20 26 14 61 -5 33
-2 47 10 59 9 9 16 23 16 30 0 8 -4 17 -10 20 -5 3 -10 17 -10 29 0 15 7 26
20 29 15 4 20 14 20 36 0 28 -3 31 -29 31 -23 0 -30 5 -33 23 -3 19 -7 16 -26
-20z M3023 5863 c-7 -2 -13 -17 -13 -33 0 -22 -5 -30 -22 -33 -22 -3 -22 -4
-3 -12 11 -5 23 -13 27 -19 4 -6 8 1 8 15 0 22 6 28 31 33 17 3 37 6 45 6 7 0
14 -10 16 -22 2 -19 10 -24 45 -26 30 -2 46 -9 53 -23 8 -14 21 -19 55 -19 33
0 45 -4 48 -17 3 -12 5 -8 6 9 1 21 7 28 29 31 18 3 12 5 -18 6 -33 1 -48 6
-58 21 -9 14 -23 20 -50 20 -26 0 -42 6 -52 20 -11 16 -21 18 -52 13 -31 -4
-42 -2 -57 16 -10 11 -20 21 -22 20 -2 0 -10 -3 -16 -6z M4514 5660 c-21 -16
-45 -30 -51 -30 -7 0 -13 -4 -13 -8 0 -4 -20 -13 -45 -20 -57 -15 -126 -47
-191 -88 -50 -32 -104 -86 -104 -105 0 -5 7 -9 15 -9 9 0 15 -9 15 -25 0 -14
3 -25 6 -25 3 0 30 7 59 16 30 8 66 25 81 37 15 12 52 38 82 58 29 19 68 56
85 81 18 25 50 66 71 92 21 26 37 49 34 51 -2 3 -22 -8 -44 -25z M2933 5243
c-3 -11 -30 -27 -71 -42 -37 -13 -93 -28 -124 -34 -32 -6 -58 -16 -58 -22 0
-26 -28 -44 -77 -50 -53 -7 -53 -7 -53 24 0 27 -3 31 -27 30 -18 -1 -22 -3
-10 -6 13 -3 17 -12 15 -31 -3 -25 -7 -27 -73 -35 -38 -5 -81 -15 -95 -22 -27
-15 -94 -40 -147 -56 -18 -6 -33 -14 -33 -19 0 -4 -24 -22 -53 -38 -30 -17
-68 -43 -84 -59 -17 -15 -49 -45 -71 -65 -43 -41 -81 -50 -83 -20 0 12 -2 13
-6 3 -3 -7 -14 -22 -24 -32 -10 -10 -22 -31 -25 -46 -4 -16 -10 -30 -13 -33
-4 -3 -12 -17 -18 -32 -8 -17 -9 -28 -3 -28 6 0 10 -13 10 -30 0 -16 -4 -30
-10 -30 -5 0 -10 -9 -10 -20 0 -11 -9 -29 -19 -39 -12 -12 -21 -41 -26 -80 -4
-34 -4 -61 -1 -61 3 0 12 15 20 34 8 18 37 72 65 119 29 47 73 104 98 127 36
32 54 41 77 39 17 -1 38 -1 47 0 9 0 28 19 43 40 17 23 65 64 122 101 72 46
123 71 215 101 66 21 138 39 161 39 22 0 69 5 104 12 40 7 64 16 64 24 0 18
70 64 97 64 16 0 23 6 23 20 0 11 9 29 21 41 23 23 62 129 47 129 -6 0 -12 -8
-15 -17z M3141 5014 c-40 -20 -105 -47 -145 -60 -68 -23 -206 -49 -399 -74
-49 -6 -112 -20 -140 -31 -76 -29 -189 -85 -212 -104 -20 -16 -20 -16 5 -12
14 3 51 12 83 21 41 11 105 16 225 17 131 1 160 3 135 11 -25 8 -33 17 -33 34
0 20 5 24 33 24 17 0 58 -6 90 -14 48 -11 64 -11 97 0 22 8 66 17 97 20 32 4
72 13 88 22 17 8 49 30 73 49 30 24 42 42 42 60 0 16 11 35 28 49 15 13 23 24
17 24 -5 0 -43 -16 -84 -36z M3895 4941 c-3 -6 -14 -11 -24 -11 -9 0 -63 -47
-120 -105 -56 -58 -105 -105 -109 -105 -12 -1 -52 -38 -52 -48 0 -5 -14 -12
-31 -16 -17 -3 -43 -15 -59 -26 -15 -11 -34 -20 -42 -20 -8 0 -18 -4 -24 -9
-11 -11 -80 -35 -189 -67 -68 -19 -75 -23 -42 -23 32 -1 37 -4 37 -24 0 -17
-9 -25 -42 -35 -49 -15 -194 -75 -251 -103 -21 -10 -42 -19 -47 -19 -4 0 -22
-13 -38 -30 -18 -18 -41 -30 -56 -30 -16 0 -26 -6 -26 -14 0 -8 -13 -19 -30
-25 -16 -5 -30 -17 -30 -25 0 -9 -6 -16 -14 -16 -8 0 -18 -10 -21 -22 -9 -29
-44 -68 -62 -68 -7 0 -13 -7 -13 -15 0 -8 -20 -54 -44 -102 -24 -48 -49 -114
-56 -146 -8 -32 -17 -60 -22 -63 -4 -3 -8 -18 -8 -33 0 -15 -3 -31 -7 -35 -4
-4 -8 -37 -9 -74 -2 -93 14 -272 25 -286 5 -6 19 -40 31 -76 11 -36 27 -79 35
-96 8 -16 17 -49 21 -71 5 -33 3 -42 -10 -45 -14 -2 -11 -10 14 -40 18 -21 39
-38 49 -38 10 0 27 -8 39 -18 11 -10 24 -31 28 -46 3 -15 14 -30 23 -34 9 -3
22 -13 28 -23 11 -15 43 -37 123 -88 8 -5 42 -22 75 -36 33 -15 82 -38 109
-52 26 -13 50 -22 52 -20 3 2 -19 22 -48 45 -29 22 -74 65 -99 94 -75 87 -154
199 -187 263 -45 90 -91 214 -107 291 -8 38 -15 115 -15 172 0 102 0 102 -25
102 -19 0 -25 5 -25 21 0 31 48 164 90 251 21 42 52 92 69 110 17 18 31 38 32
43 0 6 1 26 2 45 2 30 6 35 30 38 20 2 27 -1 27 -13 0 -14 3 -14 28 3 15 11
37 30 50 42 12 11 35 27 50 33 15 7 56 28 92 47 36 18 110 49 165 67 55 19
104 38 110 44 5 5 17 9 27 9 10 0 18 3 18 8 0 4 19 13 43 20 23 7 60 24 83 37
35 21 40 28 37 52 -4 23 1 31 25 46 17 9 46 17 64 17 22 0 42 7 53 20 9 10 20
34 24 52 4 24 15 37 37 48 17 8 45 36 63 61 17 25 45 83 61 129 17 45 29 85
26 87 -2 2 -7 0 -11 -6z M3974 4599 c-20 -39 -99 -133 -165 -196 -72 -68 -175
-129 -354 -208 -91 -40 -145 -68 -145 -75 0 -5 -8 -11 -17 -13 -11 -3 -7 -5
10 -6 16 -1 27 -7 27 -15 0 -8 9 -24 19 -37 19 -24 19 -24 63 0 23 13 53 29
65 35 13 6 23 14 23 19 0 4 7 7 15 7 9 0 48 15 88 34 76 36 175 106 190 133 6
10 5 18 -3 23 -6 4 -10 20 -8 36 2 23 9 30 31 32 22 3 27 -1 27 -18 0 -18 2
-19 13 -8 7 7 30 37 51 67 22 29 52 90 68 134 15 44 26 82 24 85 -3 2 -12 -11
-22 -29z M2600 4593 c-92 -6 -190 -25 -256 -49 -37 -13 -70 -26 -72 -29 -3 -3
2 -5 11 -5 11 0 17 -8 17 -24 0 -18 -12 -32 -50 -55 -57 -35 -260 -235 -260
-257 0 -8 -4 -14 -10 -14 -5 0 -10 -5 -10 -11 0 -6 -13 -29 -28 -52 -15 -23
-36 -62 -47 -87 -10 -25 -25 -52 -32 -61 -7 -8 -13 -23 -13 -32 0 -9 -4 -17
-9 -17 -4 0 -11 -25 -14 -56 -3 -30 -10 -61 -15 -67 -11 -13 -22 -98 -22 -159
0 -20 -4 -39 -8 -42 -8 -5 -8 -59 1 -217 2 -31 7 -60 10 -66 4 -6 10 -47 14
-90 3 -43 9 -80 13 -83 3 -3 14 -34 24 -70 18 -63 49 -140 85 -210 38 -75 86
-165 91 -170 3 -3 11 -15 18 -27 6 -13 18 -33 25 -45 6 -13 15 -25 18 -28 3
-3 18 -23 32 -45 15 -22 27 -34 27 -27 0 8 -13 32 -29 55 -34 49 -60 95 -112
196 -39 74 -48 111 -29 111 6 0 10 9 10 20 0 17 6 20 43 19 23 -1 54 -4 69 -8
16 -3 39 -24 57 -48 17 -24 31 -47 31 -51 0 -5 12 -22 26 -37 14 -15 66 -79
115 -141 50 -63 95 -114 100 -114 6 0 -16 33 -48 73 -81 100 -163 213 -163
224 0 5 -8 18 -18 29 -25 27 -82 128 -82 146 0 8 -11 29 -25 48 -14 19 -25 43
-25 54 0 11 -6 27 -13 35 -8 9 -26 51 -42 94 -29 82 -58 269 -57 372 0 71 19
232 31 260 5 11 17 47 27 79 10 33 29 75 41 93 13 19 23 41 23 49 0 8 7 17 15
20 8 4 15 15 15 25 0 10 6 19 14 19 8 0 16 10 18 23 2 18 9 22 38 22 27 1 36
5 38 21 2 11 13 24 25 29 13 6 23 21 25 38 2 18 9 27 21 27 10 0 32 16 49 35
18 19 32 39 32 45 0 5 9 10 20 10 11 0 20 7 20 15 0 8 7 15 16 15 20 0 82 36
107 62 17 17 17 18 -8 18 -23 0 -26 4 -23 28 2 22 8 28 35 30 27 3 32 0 35
-21 3 -25 3 -25 48 -4 25 12 47 25 48 29 2 4 12 8 22 8 10 0 22 5 25 10 3 6 1
10 -5 10 -6 0 -18 7 -26 15 -9 8 -18 14 -22 13 -4 -1 -27 -3 -52 -5z m-210
-157 c0 -16 -12 -32 -38 -50 -21 -14 -48 -26 -60 -26 -18 0 -22 6 -22 30 0 23
7 35 33 50 17 11 44 20 60 20 22 0 27 -5 27 -24z M6706 4064 c-5 -13 -16 -15
-59 -10 -41 5 -57 4 -66 -8 -7 -8 -31 -17 -54 -21 -23 -4 -54 -12 -69 -18 -15
-6 -32 -22 -39 -34 -8 -14 -22 -23 -36 -23 -18 0 -23 5 -23 27 0 26 0 26 -20
3 -11 -13 -20 -31 -20 -40 0 -10 -7 -20 -15 -24 -8 -3 -15 -16 -15 -30 0 -13
-4 -26 -8 -28 -5 -1 -12 -25 -15 -53 -5 -39 -4 -46 4 -31 17 28 70 73 109 93
19 9 69 20 110 24 54 4 69 8 53 14 -18 6 -23 15 -23 41 0 30 3 34 27 34 15 0
64 -8 108 -17 44 -9 87 -24 95 -34 92 -102 100 -113 100 -140 0 -22 6 -32 25
-39 23 -9 25 -15 25 -72 0 -51 4 -65 19 -75 15 -9 21 -29 26 -89 5 -49 4 -79
-3 -83 -5 -3 -15 -25 -21 -48 -6 -23 -19 -47 -29 -52 -10 -6 -12 -11 -4 -11 6
0 12 -9 12 -20 0 -11 -8 -34 -18 -52 -10 -18 -29 -59 -42 -91 -12 -32 -31 -64
-42 -70 -10 -7 -18 -21 -18 -33 0 -11 -11 -31 -25 -44 -14 -13 -25 -32 -25
-42 0 -10 -5 -18 -11 -18 -5 0 -16 -15 -24 -33 -17 -42 -120 -173 -146 -187
-10 -6 -19 -17 -19 -25 0 -15 -158 -164 -264 -248 -38 -31 -93 -68 -123 -82
-29 -15 -53 -31 -53 -36 0 -5 -7 -9 -15 -9 -8 0 -15 -4 -15 -10 0 -5 -4 -10
-10 -10 -5 0 -30 -15 -55 -34 -24 -19 -54 -38 -66 -41 -12 -4 -44 -20 -71 -36
-27 -16 -58 -29 -68 -29 -11 0 -20 -4 -20 -8 0 -10 -65 -42 -86 -42 -9 0 -27
-9 -40 -19 -14 -11 -43 -23 -66 -26 -23 -4 -49 -11 -58 -16 -17 -9 -107 -41
-161 -58 -19 -6 -47 -11 -62 -11 -14 0 -29 -4 -32 -10 -3 -5 -17 -10 -30 -10
-13 0 -27 -4 -30 -10 -3 -5 -19 -10 -35 -10 -16 0 -39 -4 -52 -9 -13 -5 -70
-15 -128 -21 -58 -7 -115 -17 -127 -22 -12 -6 -35 -8 -52 -5 -17 4 -33 2 -36
-4 -4 -5 -32 -10 -63 -10 -31 0 -124 -1 -207 -1 -184 -2 -367 8 -392 20 -10 6
-83 20 -163 31 -191 28 -309 52 -316 62 -3 5 -16 9 -28 9 -32 0 -208 59 -227
76 -8 8 -28 14 -43 14 -16 0 -45 8 -65 19 -48 24 -80 38 -111 47 -14 4 -36 14
-50 23 -14 10 -59 32 -100 50 -41 19 -80 40 -86 47 -6 8 -17 14 -24 14 -8 0
-23 9 -34 19 -12 10 -37 28 -56 39 -21 11 -43 16 -54 12 -16 -5 -13 -11 25
-41 24 -18 46 -37 47 -41 2 -5 8 -8 13 -8 11 0 61 -35 98 -69 14 -12 44 -32
66 -43 39 -20 79 -49 122 -88 12 -11 29 -20 37 -20 7 0 16 -7 20 -15 3 -8 14
-15 25 -15 11 0 53 -19 93 -43 40 -23 106 -58 146 -77 39 -18 72 -37 72 -42 0
-4 11 -8 25 -8 13 0 48 -11 77 -25 76 -35 184 -75 202 -75 9 0 16 -4 16 -10 0
-5 15 -10 33 -10 18 0 50 -9 72 -20 22 -11 52 -20 67 -20 16 0 36 -4 46 -9 9
-6 69 -19 132 -31 63 -12 131 -25 150 -30 19 -5 73 -12 120 -16 142 -11 529
-10 635 3 55 6 131 19 170 27 38 9 81 16 95 16 15 0 30 4 35 8 6 5 37 14 70
21 56 12 71 17 128 40 12 5 51 19 87 31 36 12 93 35 127 51 34 16 67 29 73 29
7 0 24 8 38 19 15 10 38 22 52 26 14 4 32 13 40 20 8 6 35 23 60 36 25 13 49
27 55 32 15 11 165 110 187 123 10 6 24 18 31 26 7 8 44 39 82 70 75 60 144
128 131 128 -5 0 -35 -25 -67 -55 -33 -30 -81 -69 -107 -87 -26 -17 -51 -37
-57 -43 -5 -7 -30 -27 -55 -47 -48 -36 -171 -114 -230 -143 -19 -10 -37 -21
-40 -24 -9 -11 -132 -71 -145 -71 -7 0 -32 -11 -56 -24 -24 -14 -82 -37 -129
-52 -47 -15 -89 -31 -95 -35 -5 -4 -38 -13 -73 -19 -34 -7 -65 -17 -68 -21 -3
-5 -20 -9 -39 -9 -19 0 -37 -4 -40 -10 -3 -5 -26 -10 -50 -10 -24 0 -46 -4
-49 -9 -3 -4 -40 -11 -83 -14 -206 -17 -282 -25 -292 -32 -11 -6 -110 0 -416
26 -71 6 -147 15 -167 20 -29 7 -38 15 -38 31 0 19 -4 20 -55 13 -31 -3 -69
-4 -85 0 -24 5 -30 12 -30 32 0 13 10 33 23 44 12 10 36 18 53 19 17 0 53 -3
79 -7 35 -4 49 -11 53 -25 5 -21 37 -24 45 -4 5 12 48 14 238 15 128 1 243 4
256 6 77 16 75 15 63 30 -7 8 -25 15 -41 15 -24 0 -29 4 -29 24 0 22 6 24 81
36 44 7 109 10 145 7 49 -3 64 -2 64 9 0 7 35 24 88 40 107 33 171 42 182 24
4 -7 16 -9 26 -6 11 3 24 16 29 28 7 17 20 24 48 26 36 3 37 2 37 -31 0 -23 6
-37 17 -41 9 -4 38 5 67 20 28 14 58 32 66 39 8 7 42 21 75 30 33 10 76 26 95
36 43 23 80 54 80 67 0 11 33 22 66 22 11 0 40 15 65 33 35 25 43 37 41 58 -2
15 5 32 18 44 11 10 20 26 20 35 0 10 6 23 14 29 8 7 30 11 48 9 27 -2 34 -8
38 -32 5 -29 5 -29 58 15 30 24 68 54 85 67 41 30 66 54 153 143 39 41 80 90
92 109 11 19 35 46 52 58 17 13 51 55 75 93 25 38 49 69 53 69 5 0 15 12 22
28 8 15 21 35 29 45 8 9 26 17 40 17 15 0 34 -9 44 -20 9 -11 17 -29 17 -39 0
-10 -11 -35 -25 -55 -14 -20 -25 -39 -25 -42 0 -3 -8 -22 -17 -41 -9 -20 -27
-46 -39 -58 -13 -13 -26 -36 -30 -52 -4 -15 -25 -53 -48 -83 -22 -30 -76 -97
-119 -148 -43 -52 -76 -96 -73 -99 3 -3 18 10 33 28 15 19 42 48 58 65 39 42
149 191 168 229 8 17 27 44 41 60 14 17 26 35 26 42 0 7 10 29 21 50 12 21 35
65 51 98 17 33 34 68 39 77 5 10 9 26 9 35 0 10 7 27 15 37 8 11 15 34 15 51
0 17 7 40 15 51 8 10 15 33 15 51 0 17 4 33 9 35 5 2 13 63 17 135 6 118 5
133 -10 139 -10 4 -16 18 -16 36 0 21 6 31 20 35 11 3 20 14 20 24 0 11 -4 19
-10 19 -5 0 -10 11 -10 25 0 14 -4 25 -10 25 -5 0 -10 22 -10 49 0 40 -3 50
-20 54 -13 3 -20 14 -20 31 0 21 -6 26 -35 32 -28 5 -35 11 -35 30 0 15 -16
40 -39 63 -26 26 -53 42 -78 47 -21 4 -46 17 -56 31 -12 15 -29 23 -48 23 -22
0 -29 5 -29 20 0 11 -4 20 -9 20 -5 0 -12 -7 -15 -16z m-198 -136 c3 -27 1
-28 -37 -28 -36 0 -41 3 -41 23 0 13 3 27 7 31 4 4 21 6 38 4 24 -2 31 -8 33
-30z M3013 3818 c-12 -24 -27 -61 -34 -83 -7 -22 -17 -44 -21 -49 -4 -6 -8
-23 -8 -39 0 -16 4 -26 10 -22 6 3 10 17 10 31 0 20 5 24 30 24 26 0 30 -4 30
-27 0 -16 4 -23 9 -18 4 6 26 45 49 87 l40 76 -33 -5 c-32 -5 -34 -4 -40 31
-4 20 -10 36 -14 36 -3 0 -16 -19 -28 -42z M4526 3356 c-21 -8 -45 -21 -53
-29 -13 -13 -10 -26 22 -108 49 -123 69 -181 110 -314 18 -60 39 -123 46 -140
l12 -30 6 30 c6 28 10 30 54 33 47 3 47 3 48 -35 0 -21 5 -47 10 -58 6 -13 8
43 5 160 -4 145 -10 203 -32 300 -14 66 -28 130 -31 142 -3 12 -14 30 -24 39
-26 24 -122 29 -173 10z M4850 3362 c-19 -2 -38 -7 -43 -11 -4 -4 -1 -37 8
-73 21 -90 42 -300 51 -491 4 -93 10 -153 15 -145 5 7 9 32 9 56 0 38 2 42 25
42 14 0 25 -4 25 -10 0 -5 7 -10 15 -10 8 0 15 -4 15 -10 0 -5 5 -10 10 -10 6
0 10 8 10 18 0 10 4 22 10 28 16 16 40 208 46 368 4 95 2 161 -4 177 -7 16
-27 34 -54 47 -24 11 -56 22 -73 24 -16 2 -46 2 -65 0z M4267 3276 c-21 -8
-47 -22 -59 -33 -28 -25 -50 -71 -42 -86 4 -7 33 -52 64 -102 79 -124 190
-312 190 -320 0 -3 11 -21 25 -39 14 -18 25 -36 25 -40 0 -4 7 -14 15 -22 13
-14 15 -12 15 16 0 32 0 32 45 28 26 -2 45 1 45 7 0 5 -7 37 -15 71 -23 98
-99 311 -150 422 -32 67 -53 102 -64 102 -9 0 -25 2 -36 5 -11 3 -37 -2 -58
-9z M5127 3144 c-4 -71 -13 -167 -21 -214 -17 -96 -43 -242 -52 -282 -4 -18
-2 -28 5 -28 6 0 11 7 11 15 0 8 5 15 10 15 6 0 10 12 10 26 0 24 3 26 33 22
17 -3 40 -8 49 -12 14 -6 23 5 48 61 37 81 83 232 99 326 11 62 10 72 -7 100
-10 18 -38 44 -63 60 -25 15 -61 30 -81 33 l-35 6 -6 -128z M4023 3089 c-18
-11 -41 -35 -53 -53 -12 -21 -20 -50 -19 -77 0 -43 4 -48 145 -193 l144 -150
39 22 c21 12 49 22 61 22 13 0 24 -8 27 -20 3 -11 9 -20 14 -20 5 0 9 -7 9
-16 0 -17 28 -49 36 -41 3 2 -5 22 -17 43 -12 22 -29 53 -37 69 -41 86 -64
125 -161 271 -85 128 -111 160 -131 162 -14 1 -39 -7 -57 -19z M5406 3070 c-3
-8 -15 -51 -26 -95 -12 -43 -46 -139 -76 -212 -30 -73 -54 -135 -54 -138 0 -3
5 -5 12 -5 7 0 27 -14 45 -32 28 -27 34 -30 49 -17 20 16 112 156 144 219 13
25 23 60 23 80 -1 66 -23 121 -68 169 -32 34 -45 42 -49 31z M3899 2793 c-6
-15 -8 -49 -5 -75 2 -26 14 -64 25 -86 21 -40 109 -127 148 -145 19 -8 26 -5
50 23 15 18 34 42 41 52 12 16 11 23 -1 42 -21 32 -215 210 -233 214 -8 2 -19
-9 -25 -25z" />
    </g>
    <g fill="#ffffff" stroke="#ffffff" stroke-width="4" stroke-linejoin="round" stroke-linecap="round">
      <path d="M5520 7365 c0 -19 -5 -25 -22 -26 -14 0 -17 -2 -8 -6 8 -2 24 -8 35
-13 11 -4 58 -23 105 -41 47 -18 119 -51 160 -72 41 -22 85 -45 97 -51 13 -6
23 -14 23 -18 0 -5 7 -8 15 -8 8 0 15 -4 15 -9 0 -5 14 -12 30 -16 17 -4 30
-12 30 -18 0 -7 5 -4 11 7 7 11 8 21 2 25 -96 67 -134 91 -142 91 -6 0 -11 5
-11 10 0 6 -6 10 -14 10 -8 0 -16 3 -18 8 -3 6 -54 34 -163 89 -96 49 -127 63
-136 63 -5 0 -9 -11 -9 -25z M5075 6417 c-17 -17 -47 -47 -69 -64 -40 -35
-179 -104 -255 -127 -86 -26 -215 -76 -236 -91 -40 -29 -55 -42 -55 -51 0 -5
-20 -16 -44 -23 -25 -7 -52 -21 -62 -32 -9 -10 -23 -19 -31 -19 -7 0 -13 -6
-13 -13 0 -7 -15 -27 -33 -45 -24 -23 -42 -32 -67 -32 -30 -1 -32 -2 -17 -11
29 -17 77 -28 93 -22 8 3 14 11 14 18 0 8 23 14 63 18 80 8 377 90 444 123 49
23 51 27 47 57 -5 31 -3 33 77 72 45 22 104 59 130 83 27 24 69 70 94 103 25
34 45 64 45 68 0 4 -13 6 -30 3 -18 -3 -30 0 -30 7 0 22 -36 10 -65 -22z
M4345 6317 c-47 -19 -94 -46 -170 -97 -70 -48 -70 -48 -192 -55 -121 -7 -121
-7 -125 21 -3 28 -3 28 -31 -13 -27 -39 -28 -43 -21 -132 l7 -91 42 0 c23 0
64 -2 91 -5 27 -3 43 -3 37 1 -7 3 -13 14 -13 25 0 11 11 36 24 57 13 20 41
54 62 74 22 20 80 58 129 84 50 27 124 58 165 70 41 13 69 23 63 23 -7 1 -13
12 -13 26 0 14 -6 25 -12 24 -7 0 -26 -6 -43 -12z M3370 5153 c-41 -30 -113
-74 -160 -96 -73 -35 -81 -41 -57 -45 22 -3 27 -8 27 -32 0 -22 -10 -37 -42
-63 -24 -19 -57 -42 -75 -51 -18 -9 -44 -16 -58 -16 -14 0 -58 -7 -97 -16 -61
-14 -82 -15 -144 -4 -40 7 -84 10 -97 6 -18 -4 -27 -15 -32 -36 -7 -30 -7 -30
-111 -30 -104 0 -104 0 -104 35 0 19 -5 35 -11 35 -6 0 -39 -13 -73 -29 -63
-31 -135 -85 -126 -94 3 -3 39 4 80 15 62 18 104 22 235 22 88 1 223 -3 300
-8 114 -7 156 -6 224 7 54 11 116 32 170 59 69 34 103 59 171 127 49 50 97
110 114 142 l29 56 -27 36 c-16 21 -36 37 -45 37 -9 -1 -50 -26 -91 -57z
M2538 4595 c-3 -3 -32 -9 -64 -14 -47 -7 -52 -9 -21 -10 33 -1 37 -4 37 -26 0
-14 -7 -28 -15 -31 -8 -4 -15 -14 -15 -24 0 -34 -12 -50 -36 -50 -14 0 -27 7
-30 15 -4 8 -13 15 -21 15 -21 0 -75 -29 -105 -57 -26 -24 -26 -25 -7 -44 10
-10 28 -19 39 -19 15 0 20 -7 20 -27 0 -28 0 -28 28 2 16 17 45 41 65 55 20
14 37 28 37 33 0 4 7 7 17 7 9 0 31 11 50 25 46 36 167 92 233 108 30 8 55 18
55 23 0 5 -29 12 -65 15 -84 9 -195 10 -202 4z M3430 4198 c-45 -21 -45 -21
-15 -27 23 -5 31 -12 33 -33 2 -20 -4 -31 -22 -44 -14 -9 -26 -25 -26 -36 0
-15 -6 -19 -27 -16 -26 3 -28 7 -33 56 l-5 54 -75 -49 c-41 -28 -103 -80 -137
-116 -34 -37 -80 -98 -103 -136 -23 -39 -53 -105 -67 -148 -17 -52 -27 -110
-31 -176 -5 -98 4 -164 33 -253 19 -57 67 -154 77 -154 4 0 8 3 8 6 0 3 -5 14
-10 24 -6 11 -15 65 -20 121 -7 67 -6 126 0 173 6 39 16 91 22 116 13 53 76
184 117 243 31 45 123 136 181 179 40 29 105 65 240 133 92 47 94 48 65 57
-19 5 -40 4 -57 -3 -16 -6 -28 -15 -28 -20 0 -5 -11 -9 -25 -9 -22 0 -25 4
-25 40 0 26 -4 40 -12 39 -7 0 -33 -10 -58 -21z m-366 -464 c3 -9 6 -24 6 -35
0 -14 -7 -19 -29 -19 -29 0 -41 14 -41 51 0 14 7 19 29 19 17 0 31 -6 35 -16z
M6864 2958 c-11 -13 -26 -35 -34 -50 -7 -16 -17 -28 -22 -28 -4 0 -28 -31 -53
-69 -24 -38 -58 -80 -75 -93 -18 -13 -43 -41 -56 -64 -13 -22 -41 -57 -62 -76
-20 -20 -64 -63 -96 -97 -32 -34 -63 -61 -67 -61 -5 0 -31 -20 -59 -45 -31
-27 -60 -45 -75 -45 -14 0 -25 5 -25 10 0 6 -11 15 -25 22 -21 9 -30 7 -60
-13 -19 -13 -35 -32 -35 -41 0 -12 -8 -18 -25 -18 -14 0 -25 -4 -25 -10 0 -5
-7 -10 -15 -10 -18 0 -57 -20 -67 -35 -4 -5 -8 -25 -8 -42 0 -23 -5 -33 -15
-33 -8 0 -15 -4 -15 -10 0 -5 -7 -10 -15 -10 -8 0 -15 -6 -15 -13 0 -28 -88
-87 -130 -87 -17 0 -20 6 -20 40 0 31 -3 38 -15 34 -9 -4 -15 -19 -15 -40 0
-19 -5 -34 -11 -34 -6 0 -20 -11 -30 -24 -24 -31 -104 -76 -134 -76 -18 0 -24
7 -29 40 -4 27 -11 40 -22 40 -20 0 -87 -30 -95 -43 -4 -6 -20 -7 -37 -4 -19
4 -68 -6 -143 -28 -63 -19 -122 -35 -131 -35 -10 0 -18 -4 -18 -10 0 -6 -28
-10 -62 -10 -87 -1 -231 -23 -235 -37 -2 -6 5 -14 16 -18 15 -5 21 -15 21 -36
l0 -31 -292 6 c-161 3 -318 8 -349 11 -43 5 -58 3 -68 -9 -8 -9 -20 -16 -27
-16 -8 0 -14 -7 -14 -15 0 -8 -7 -15 -15 -15 -8 0 -15 -4 -15 -8 0 -11 82 -32
123 -32 18 0 52 -9 76 -21 30 -14 84 -24 179 -34 76 -7 205 -18 287 -24 95 -7
162 -8 182 -2 18 5 73 9 122 8 51 0 95 4 103 10 7 6 37 11 67 12 30 0 59 5 64
10 6 6 26 11 45 11 37 0 121 19 137 30 6 4 37 13 70 20 33 7 65 15 70 19 6 4
48 20 95 35 47 15 105 38 129 52 24 13 49 24 56 24 13 0 136 60 145 71 3 3 21
14 40 24 59 29 182 107 230 143 25 20 50 40 55 47 6 6 31 25 56 43 26 17 71
53 100 81 30 27 63 50 73 52 10 2 22 11 26 19 16 35 30 54 131 180 60 73 109
145 113 161 3 16 16 40 29 53 13 13 31 39 40 59 9 19 17 38 17 41 0 3 11 22
25 42 14 20 25 49 25 63 0 19 -9 32 -29 44 -16 9 -33 17 -38 17 -5 0 -18 -10
-29 -22z M4792 2867 l-2 -69 -80 4 c-44 2 -80 0 -80 -3 0 -3 6 -28 14 -55 15
-51 46 -206 46 -230 0 -8 -10 -14 -22 -14 -21 0 -25 10 -47 108 -13 59 -28
114 -32 122 -7 13 -8 13 -9 0 0 -19 -50 -50 -79 -50 -12 0 -21 6 -21 15 0 9
-10 15 -26 15 -19 0 -28 7 -35 30 -11 31 -29 41 -29 15 0 -8 -9 -15 -19 -15
-15 0 -21 -8 -23 -32 -2 -26 -11 -37 -43 -55 -22 -13 -50 -23 -63 -23 -13 0
-31 7 -40 16 -10 11 -17 13 -20 5 -2 -6 -15 -11 -29 -11 -25 0 -25 -1 -10 -18
10 -10 17 -28 17 -40 0 -12 -14 -37 -30 -56 -17 -19 -41 -36 -53 -38 -16 -2
13 -23 108 -79 123 -72 287 -159 299 -159 3 0 6 7 6 15 0 9 9 15 23 15 13 0
33 -14 50 -35 15 -19 32 -35 37 -35 6 0 10 7 10 15 0 9 9 15 25 15 16 0 25 -6
25 -15 0 -8 7 -15 16 -15 12 0 14 7 10 28 -3 15 -8 51 -11 80 -7 51 -6 52 18
52 23 0 26 -5 32 -52 3 -29 8 -65 11 -80 5 -25 10 -28 49 -28 24 0 47 5 51 11
4 7 21 9 41 6 28 -5 38 -1 56 19 19 22 28 25 59 20 33 -6 44 0 120 56 46 34
118 98 161 142 43 45 83 89 88 99 8 14 5 17 -18 17 -28 1 -76 35 -85 61 -3 9
-12 0 -23 -23 -14 -29 -25 -38 -43 -38 -22 0 -24 3 -19 33 4 17 9 41 12 53 6
19 0 23 -54 35 -53 11 -61 16 -61 36 0 18 -6 23 -24 23 -13 0 -27 6 -29 13 -3
7 -6 5 -6 -5 -1 -14 -10 -18 -45 -18 -25 0 -48 5 -51 10 -3 6 -15 10 -25 10
-10 0 -20 5 -22 12 -3 7 -10 -78 -16 -188 -7 -111 -17 -235 -24 -277 -11 -70
-14 -77 -35 -77 -14 0 -23 6 -23 15 0 9 7 75 15 148 10 88 15 199 13 332 -2
110 -4 169 -6 132z m268 -131 c0 -23 -29 -132 -62 -238 -28 -87 -34 -98 -55
-98 -13 0 -23 6 -23 14 0 8 15 68 34 133 19 65 39 137 45 161 10 35 16 42 36
42 15 0 25 -6 25 -14z m-803 -138 c13 -12 23 -32 23 -45 0 -17 -6 -23 -22 -23
-12 0 -32 10 -45 22 -13 12 -23 32 -23 45 0 17 6 23 22 23 12 0 32 -10 45 -22z
M1940 2901 c0 -2 6 -22 12 -45 17 -56 97 -209 157 -301 14 -22 31 -48 36 -56
6 -9 28 -39 50 -66 22 -28 49 -63 60 -78 11 -16 34 -44 52 -63 18 -19 35 -43
38 -53 4 -10 10 -19 16 -19 5 0 39 -31 76 -70 37 -38 71 -70 76 -70 5 0 -5 16
-22 35 -17 20 -31 46 -31 60 0 18 -6 24 -27 27 -22 2 -29 9 -31 31 -3 24 0 27
27 27 17 0 31 -5 31 -11 0 -9 20 -10 70 -5 65 6 71 4 94 -19 14 -14 32 -25 40
-25 8 0 16 -10 18 -22 2 -18 10 -24 40 -26 25 -2 50 -15 80 -41 48 -42 136
-96 144 -89 3 3 -17 19 -43 36 -27 17 -63 44 -80 59 -17 15 -47 40 -65 55 -18
16 -51 43 -72 60 -21 18 -86 78 -142 133 -57 55 -104 106 -104 113 0 7 -7 15
-15 18 -8 4 -56 58 -107 122 -50 63 -100 124 -110 134 -10 10 -22 27 -26 36
-4 9 -22 40 -41 67 -34 50 -34 50 -117 50 -46 0 -84 -2 -84 -4z M7050 2850 c0
-13 -57 -130 -95 -195 -16 -27 -33 -51 -37 -53 -4 -2 -8 -8 -8 -13 0 -11 -109
-174 -136 -204 -11 -12 -30 -36 -43 -55 -14 -19 -30 -39 -38 -43 -7 -4 -13
-17 -13 -27 0 -11 3 -20 7 -20 4 0 20 12 35 27 15 15 28 33 28 40 0 7 6 13 13
13 7 0 37 32 67 71 30 39 60 76 66 83 6 6 43 59 82 118 67 99 94 144 129 208
12 23 11 25 -12 28 -14 2 -25 10 -25 18 0 8 -4 14 -10 14 -5 0 -10 -5 -10 -10z" />
    </g>
    <g fill="#ffffff">
      <path d="M2434 6706 c-82 -80 -171 -172 -199 -206 -27 -33 -60 -72 -72 -86
-12 -13 -37 -45 -54 -71 -18 -27 -35 -50 -39 -53 -7 -7 -122 -179 -136 -205
-5 -11 -27 -50 -47 -86 l-37 -66 1 -234 c0 -130 4 -223 9 -209 4 14 26 71 49
128 47 118 116 258 172 350 21 35 39 68 39 73 0 5 5 9 10 9 6 0 10 5 10 11 0
6 28 52 62 102 35 51 65 94 68 97 3 3 17 21 30 40 13 19 29 40 35 45 7 6 34
37 61 70 56 69 257 273 325 331 63 53 80 66 109 87 24 16 20 17 -112 17 l-136
0 -148 -144z M3826 6843 c-10 -3 -34 -14 -53 -24 -18 -10 -50 -28 -70 -40 -78
-44 -154 -102 -228 -171 -43 -40 -91 -93 -108 -118 -17 -25 -38 -53 -47 -62
-9 -10 -37 -57 -63 -105 -41 -80 -74 -165 -106 -279 l-11 -41 -113 -5 c-79 -3
-123 -10 -149 -22 -23 -11 -43 -31 -53 -52 -12 -25 -15 -47 -10 -76 5 -30 19
-53 54 -87 62 -62 109 -101 121 -101 5 0 10 -3 10 -8 0 -4 14 -13 31 -21 17
-7 33 -19 36 -27 9 -25 -40 -107 -100 -166 -32 -32 -66 -58 -76 -58 -9 0 -21
-4 -26 -9 -6 -5 -37 -18 -71 -30 -44 -15 -84 -21 -151 -21 -63 0 -94 4 -102
13 -6 8 -23 12 -43 9 -18 -2 -38 -8 -43 -13 -6 -4 -33 -10 -60 -13 -28 -3 -70
-8 -95 -12 -25 -3 -96 -31 -159 -61 -100 -48 -124 -65 -202 -142 l-89 -88 0
-109 0 -109 34 51 c19 28 66 80 105 115 75 67 200 138 286 163 28 8 78 20 113
26 35 6 123 15 197 20 86 6 155 16 196 29 34 12 67 21 72 21 5 0 38 20 74 45
35 25 66 45 68 45 3 0 5 -9 5 -20 0 -11 -3 -20 -8 -20 -4 0 -15 -18 -25 -40
-9 -22 -17 -56 -17 -76 0 -20 8 -49 18 -66 17 -29 17 -30 -6 -49 -13 -10 -61
-30 -105 -45 -45 -14 -138 -32 -206 -39 -75 -9 -163 -27 -224 -46 -66 -20
-129 -48 -181 -81 -45 -28 -110 -81 -146 -117 -36 -36 -81 -74 -100 -82 -19
-9 -52 -24 -72 -33 -21 -9 -38 -22 -38 -29 0 -8 -9 -26 -21 -41 l-20 -26 170
0 c162 0 173 1 228 26 32 14 92 37 133 51 70 23 89 25 269 25 125 0 197 -4
204 -11 6 -6 8 -13 5 -17 -4 -3 -40 -14 -81 -25 -41 -10 -89 -25 -108 -33 -31
-14 -17 -15 183 -16 119 0 227 4 240 9 13 5 41 14 63 19 22 6 87 26 145 44
106 32 213 83 306 145 29 18 71 52 95 76 25 23 68 68 96 100 29 31 60 57 70
57 10 0 27 7 37 15 10 8 23 12 27 9 5 -2 -6 -44 -23 -92 -16 -48 -37 -100 -45
-115 -8 -16 -41 -66 -74 -112 -32 -46 -78 -99 -101 -119 l-42 -36 116 0 116 0
31 35 c17 19 49 69 72 110 22 41 45 75 50 75 5 0 9 -4 9 -9 0 -10 -45 -166
-55 -193 -6 -16 1 -18 73 -18 52 0 83 4 89 13 16 22 31 79 47 182 9 55 21 128
27 162 6 33 9 96 8 140 -2 43 0 84 5 91 4 6 14 12 23 12 8 0 44 14 79 31 l64
30 0 145 c0 79 -2 144 -4 144 -2 0 -33 -20 -70 -45 -37 -25 -93 -52 -124 -61
-31 -9 -78 -27 -104 -40 -26 -13 -54 -24 -63 -24 -8 0 -15 8 -15 18 0 21 88
157 122 189 36 34 137 92 201 115 l57 21 0 138 c0 113 -3 139 -14 139 -8 0
-35 -9 -61 -20 -26 -11 -54 -20 -63 -20 -8 0 -23 7 -32 15 -8 8 -42 21 -75 30
-33 9 -122 19 -197 22 -75 3 -141 9 -146 12 -6 3 -13 49 -17 101 l-7 95 54 75
c30 41 88 104 130 140 41 36 113 87 159 115 46 27 123 63 172 81 49 18 91 35
95 39 13 14 -103 -4 -193 -29 -49 -15 -131 -47 -181 -71 -56 -28 -120 -71
-165 -110 -71 -62 -75 -64 -89 -45 -8 10 -23 30 -33 44 -9 14 -33 29 -52 35
-23 6 -48 6 -72 -1 -22 -6 -52 -27 -75 -51 -37 -40 -73 -107 -144 -266 -19
-42 -38 -83 -43 -91 -9 -17 -79 -26 -94 -11 -6 6 0 34 19 83 35 92 98 220 137
278 17 25 71 87 121 139 50 51 129 119 176 150 78 52 210 122 285 149 40 15
164 50 195 55 14 2 -58 4 -160 4 -102 1 -194 -2 -204 -4z m-144 -530 c9 -10
18 -43 22 -73 3 -30 6 -122 8 -205 1 -82 5 -159 8 -170 7 -19 16 -20 206 -20
183 0 201 -2 226 -20 16 -11 31 -30 34 -43 4 -15 0 -30 -12 -44 -22 -23 -185
-107 -259 -132 -27 -10 -70 -27 -95 -39 -29 -14 -46 -30 -48 -43 -2 -11 22
-96 53 -189 34 -104 55 -186 55 -213 0 -28 -6 -52 -17 -64 -9 -10 -25 -18 -35
-18 -10 0 -31 6 -46 14 -29 15 -141 135 -225 240 -27 34 -55 65 -63 69 -8 5
-28 1 -46 -8 -18 -8 -49 -30 -69 -48 -61 -53 -74 -63 -168 -126 -68 -46 -99
-61 -125 -61 -25 0 -38 6 -46 19 -5 11 -10 30 -10 43 0 13 16 51 36 83 19 33
49 86 67 120 17 33 49 87 69 119 21 33 38 67 38 77 0 18 -13 28 -175 130 -74
47 -150 111 -166 141 -6 12 -6 25 1 37 5 11 26 25 46 31 23 8 60 10 98 6 34
-3 122 -16 198 -28 106 -17 140 -19 151 -10 7 6 26 44 41 84 16 40 37 92 47
115 10 24 19 45 19 49 0 3 14 34 31 70 17 35 44 78 59 94 16 18 38 30 52 30
14 0 32 -8 40 -17z m305 -810 c-3 -10 -16 -47 -29 -82 -13 -36 -28 -66 -34
-68 -5 -2 -18 21 -27 50 -9 30 -17 57 -17 60 0 7 89 56 104 57 4 0 6 -8 3 -17z
m-473 -319 l36 -47 -27 -51 c-15 -28 -70 -94 -123 -147 -73 -75 -112 -105
-170 -134 -40 -20 -97 -45 -125 -54 -41 -13 -84 -15 -250 -12 -110 2 -263 5
-340 5 -125 0 -150 -2 -238 -28 -54 -16 -100 -26 -103 -23 -3 2 17 25 43 51
26 25 72 57 102 71 30 15 86 37 125 50 40 13 155 35 261 49 118 16 224 37 280
55 50 15 140 55 201 88 61 32 146 85 188 116 43 31 84 57 91 57 7 0 29 -21 49
-46z M3534 5855 c-4 -8 -3 -23 0 -32 6 -15 8 -15 23 -1 9 9 13 24 10 32 -4 9
-11 16 -17 16 -6 0 -13 -7 -16 -15z M3683 5695 c-3 -9 -3 -19 1 -22 3 -3 17
-1 32 5 14 7 22 17 19 22 -10 16 -45 12 -52 -5z M4331 6289 c-24 -11 -41 -22
-38 -25 3 -4 29 0 56 7 29 7 51 19 51 26 0 7 -6 13 -12 12 -7 0 -33 -9 -57
-20z" />
    </g>
  </g>
</svg>
