<?xml version="1.0" encoding="iso-8859-1"?>
<!-- Uploaded to: SVG Repo, www.svgrepo.com, Generator: SVG Repo Mixer Tools -->
<svg version="1.1" id="Capa_1" xmlns="http://www.w3.org/2000/svg" xmlns:xlink="http://www.w3.org/1999/xlink" 
	 viewBox="0 0 470.008 470.008" xml:space="preserve">
<g>
	<path style="fill:#C40200;" d="M135.415,182.266l46.851-46.851L64.12,17.269c-3.034-3.034-7.973-3.035-11.008,0L17.269,53.112
		c-3.035,3.035-3.035,7.973,0,11.008L135.415,182.266z"/>
	<path style="fill:#C40200;" d="M389.261,436.112c3.035,3.035,7.974,3.035,11.008,0l35.316-35.316
		c0.01-0.01,0.527-0.527,0.527-0.527c3.035-3.035,3.035-7.973,0-11.008l-43.599-43.599l-30.942,30.941
		c-1.464,1.464-3.384,2.197-5.303,2.197c-1.919,0-3.839-0.732-5.303-2.197c-0.003-0.003-10.609,10.604-10.609,10.604
		L389.261,436.112z"/>
	
		<rect x="417.194" y="426.517" transform="matrix(0.7071 -0.7071 0.7071 0.7071 -179.8933 434.3012)" style="fill:#F53635;" width="34.214" height="15.567"/>
	<path style="fill:#F53635;" d="M219.097,161.641c-2.929,2.928-7.677,2.928-10.606-0.001l-15.618-15.618l-46.851,46.851
		l15.618,15.618c2.929,2.929,2.929,7.678,0,10.606c0,0,10.607,10.607,10.607,10.607l57.456-57.456L219.097,161.641z"/>
	<path style="fill:#F53635;" d="M261.524,308.375l78.832,78.832l10.607-10.607c-2.926-2.929-2.926-7.676,0.003-10.604l30.942-30.941
		l-73.531-73.531c-2.928-2.928-2.929-7.675-0.002-10.604l-10.607-10.606l-57.451,57.45l10.606,10.607
		C253.851,305.447,258.597,305.448,261.524,308.375z"/>
	
		<rect x="28.864" y="416.261" transform="matrix(0.7071 0.7071 -0.7071 0.7071 313.3111 91.6945)" style="fill:#C3F2AA;" width="34.214" height="15.568"/>
	<path style="fill:#3F993A;" d="M134.61,382.256l-30.941-30.941c-2.929-2.929-2.929-7.677-0.001-10.606l-10.606-10.608
		L44.16,379.004c-1.458,1.458-2.261,3.413-2.261,5.504s0.803,4.046,2.261,5.504l35.316,35.317c0.01,0.01,0.527,0.527,0.527,0.527
		c1.458,1.458,3.413,2.261,5.503,2.261c2.091,0,4.046-0.803,5.504-2.262L134.61,382.256z"/>
	<polygon style="fill:#62B3B1;" points="367.899,136.405 421.301,72.013 398.002,48.714 333.611,102.117 	"/>
	<path style="fill:#C3F2AA;" d="M103.669,340.709c2.929-2.929,7.678-2.929,10.606,0l30.941,30.941l218.358-218.356l-46.334-46.334
		c-0.017-0.017-0.518-0.518-0.518-0.518l-223.66,223.66L103.669,340.709z"/>
	<path style="fill:#3F993A;" d="M425.961,55.46l13.522-13.522c4.331-4.331,6.109-10.466,4.911-16.318
		c-5.853-1.2-11.986,0.58-16.317,4.911l-13.522,13.522L425.961,55.46z"/>
	<path style="fill:#570100;" d="M379.484,158.597c2.929-2.929,2.929-7.678,0-10.606l-0.932-0.932l58.658-70.729
		c2.472-2.98,2.269-7.353-0.47-10.091l-0.171-0.171l13.522-13.522c9.394-9.394,12.238-23.42,7.246-35.733
		c-0.762-1.879-2.252-3.37-4.132-4.132c-12.313-4.994-26.34-2.15-35.733,7.245l-13.522,13.522l-0.171-0.171
		c-2.738-2.739-7.111-2.942-10.091-0.47l-70.728,58.658l-0.932-0.932c-1.406-1.407-3.314-2.197-5.303-2.197s-3.896,0.79-5.303,2.197
		l-81.717,81.717l-57.456,57.456L33.554,368.398c-4.292,4.291-6.655,10.013-6.655,16.11c0,3.761,0.905,7.375,2.601,10.602
		l-17.038,17.038c-1.407,1.406-2.197,3.314-2.197,5.303s0.79,3.897,2.197,5.303l34.799,34.799c1.464,1.464,3.384,2.197,5.303,2.197
		s3.839-0.732,5.303-2.197l17.038-17.038c3.227,1.696,6.842,2.601,10.602,2.601c6.098,0,11.82-2.364,16.111-6.655l48.894-48.894
		c0.016-0.016,89.804-89.803,89.804-89.803l57.451-57.45L379.484,158.597z M39.379,406.444l24.193,24.193l-11.008,11.008
		l-24.193-24.192L39.379,406.444z M80.003,425.856l-0.517-0.517c-0.01-0.01-35.326-35.326-35.326-35.326
		c-1.458-1.458-2.261-3.413-2.261-5.504s0.803-4.046,2.261-5.504l48.903-48.903l223.66-223.66l0.5,0.5
		c0.017,0.017,46.351,46.352,46.351,46.352L145.217,371.65l-30.941-30.941c-2.929-2.929-7.678-2.929-10.606,0
		c-2.929,2.929-2.929,7.678,0,10.606l30.941,30.941l-43.599,43.599c-1.458,1.458-3.413,2.262-5.504,2.262
		C83.416,428.117,81.461,427.314,80.003,425.856z M444.394,25.621c1.198,5.852-0.58,11.987-4.911,16.318L425.961,55.46
		l-11.406-11.406l13.522-13.522C432.408,26.201,438.542,24.421,444.394,25.621z M398.002,48.714l23.299,23.299l-53.402,64.392
		l-34.288-34.289L398.002,48.714z"/>
	<path style="fill:#570100;" d="M467.811,422.405l-17.038-17.038c1.696-3.227,2.601-6.842,2.601-10.602
		c0-6.098-2.363-11.819-6.655-16.11L318.982,250.918c-2.929-2.929-7.678-2.929-10.606,0c-2.929,2.931-2.928,7.678,0,10.606
		l73.531,73.531l-30.942,30.941c-2.928,2.928-2.929,7.675-0.003,10.604c1.467,1.468,3.386,2.2,5.306,2.2
		c1.919,0,3.839-0.732,5.303-2.197l30.942-30.941l43.599,43.599c3.035,3.035,3.035,7.973,0,11.008l-0.517,0.517
		c-0.01,0.01-35.326,35.325-35.326,35.325c-3.034,3.035-7.973,3.036-11.008,0L261.524,308.375
		c-2.927-2.927-7.673-2.928-10.602-0.004c-2.933,2.932-2.933,7.682-0.004,10.61l127.737,127.737
		c4.442,4.441,10.276,6.662,16.11,6.662c3.648,0,7.297-0.869,10.605-2.606l17.036,17.036c1.406,1.407,3.314,2.197,5.303,2.197
		s3.897-0.79,5.303-2.197l34.799-34.799C470.74,430.083,470.74,425.334,467.811,422.405z M416.701,440.893l24.193-24.193
		l11.008,11.008l-24.192,24.193L416.701,440.893z"/>
	<path style="fill:#570100;" d="M161.64,208.491l-15.618-15.618l46.851-46.851l15.618,15.618c2.928,2.928,7.677,2.929,10.606,0.001
		c2.93-2.93,2.93-7.679,0.001-10.607l-20.917-20.918C198.172,130.108,74.727,6.663,74.727,6.663c-8.882-8.884-23.337-8.883-32.221,0
		L6.662,42.506c-8.883,8.883-8.883,23.337,0,32.221l8.23,8.23c-11.196,12.372-9.401,33.027,4.319,46.746l76.523,76.52
		c1.464,1.465,3.384,2.197,5.303,2.197s3.839-0.732,5.303-2.197c2.929-2.929,2.929-7.678,0-10.606l-76.523-76.52
		c-7.684-7.683-9.461-18.992-4.281-25.495l104.571,104.571c0.01,0.01,20.926,20.926,20.926,20.926
		c1.464,1.464,3.384,2.197,5.303,2.197c1.919,0,3.839-0.732,5.303-2.197C164.569,216.169,164.569,211.42,161.64,208.491z
		 M17.269,53.112l35.843-35.843c3.035-3.035,7.974-3.035,11.008,0l118.146,118.146l-46.851,46.851L17.269,64.12
		C14.234,61.085,14.234,56.147,17.269,53.112z"/>
</g>
</svg>