<svg xmlns="http://www.w3.org/2000/svg" width="920" height="260" viewBox="0 0 920 260" role="img" aria-label="LidoPro runtime architecture">
  <defs>
    <style>
      .label { font-family: Inter, ui-sans-serif, system-ui, -apple-system, BlinkMacSystemFont, "Segoe UI", sans-serif; }
      .headline { font-size: 22px; font-weight: 860; }
      .title { font-size: 16px; font-weight: 860; }
      .body { font-size: 12px; font-weight: 660; }
      .mono { font-family: ui-monospace, SFMono-Regular, Menlo, Monaco, Consolas, "Liberation Mono", monospace; font-size: 11px; font-weight: 760; }
      .section { font-size: 10.5px; font-weight: 850; letter-spacing: 1.5px; }
    </style>
  </defs>

  <g class="label">
    <text x="78" y="34" class="headline" fill="#5eead4">One product application, multiple runtime shells.</text>
    <text x="78" y="56" class="body" fill="#cbd5e1">Tauri and Capacitor wrap the same Svelte/Vite source in src/.</text>
  </g>

  <g class="label" transform="translate(78 92)">
    <text x="0" y="-14" class="section" fill="#94a3b8">PRODUCT SOURCE</text>
    <g transform="translate(0 0)">
      <rect width="42" height="42" rx="12" fill="#fff7ed"/>
      <path transform="translate(8 7) scale(1.08)" fill="#ff3e00" d="M10.354 21.125a4.44 4.44 0 0 1-4.765-1.767 4.109 4.109 0 0 1-.703-3.107 3.898 3.898 0 0 1 .134-.522l.105-.321.287.21a7.21 7.21 0 0 0 2.186 1.092l.208.063-.02.208a1.253 1.253 0 0 0 .226.83 1.337 1.337 0 0 0 1.435.533 1.231 1.231 0 0 0 .343-.15l5.59-3.562a1.164 1.164 0 0 0 .524-.778 1.242 1.242 0 0 0-.211-.937 1.338 1.338 0 0 0-1.435-.533 1.23 1.23 0 0 0-.343.15l-2.133 1.36a4.078 4.078 0 0 1-1.135.499 4.44 4.44 0 0 1-4.765-1.766 4.108 4.108 0 0 1-.702-3.108 3.855 3.855 0 0 1 1.742-2.582l5.589-3.563a4.072 4.072 0 0 1 1.135-.499 4.44 4.44 0 0 1 4.765 1.767 4.109 4.109 0 0 1 .703 3.107 3.943 3.943 0 0 1-.134.522l-.105.321-.286-.21a7.204 7.204 0 0 0-2.187-1.093l-.208-.063.02-.207a1.255 1.255 0 0 0-.226-.831 1.337 1.337 0 0 0-1.435-.532 1.231 1.231 0 0 0-.343.15L8.62 9.368a1.162 1.162 0 0 0-.524.778 1.24 1.24 0 0 0 .211.937 1.338 1.338 0 0 0 1.435.533 1.235 1.235 0 0 0 .344-.151l2.132-1.36a4.067 4.067 0 0 1 1.135-.498 4.44 4.44 0 0 1 4.765 1.766 4.108 4.108 0 0 1 .702 3.108 3.857 3.857 0 0 1-1.742 2.583l-5.589 3.562a4.072 4.072 0 0 1-1.135.499m10.358-17.95C18.484-.015 14.082-.96 10.9 1.068L5.31 4.63a6.412 6.412 0 0 0-2.896 4.295 6.753 6.753 0 0 0 .666 4.336 6.43 6.43 0 0 0-.96 2.396 6.833 6.833 0 0 0 1.168 5.167c2.229 3.19 6.63 4.135 9.812 2.108l5.59-3.562a6.41 6.41 0 0 0 2.896-4.295 6.756 6.756 0 0 0-.665-4.336 6.429 6.429 0 0 0 .958-2.396 6.831 6.831 0 0 0-1.167-5.168Z"/>
    </g>
    <g transform="translate(54 0)">
      <rect width="42" height="42" rx="12" fill="#f5f3ff"/>
      <path transform="translate(9 9) scale(1)" fill="#646cff" d="M13.056 23.238a.57.57 0 0 1-1.02-.355v-5.202c0-.63-.512-1.143-1.144-1.143H5.148a.57.57 0 0 1-.464-.903l3.777-5.29c.54-.753 0-1.804-.93-1.804H.57a.574.574 0 0 1-.543-.746.6.6 0 0 1 .08-.157L5.008.78a.57.57 0 0 1 .467-.24h14.589a.57.57 0 0 1 .466.903l-3.778 5.29c-.54.755 0 1.806.93 1.806h5.745c.238 0 .424.138.513.322a.56.56 0 0 1-.063.603z"/>
    </g>
    <text x="120" y="18" class="title" fill="#f8fafc">Svelte / Vite</text>
    <text x="120" y="38" class="mono" fill="#99f6e4">product application</text>
  </g>

  <path d="M362 112 H488" stroke="#64748b" stroke-width="1.8" stroke-linecap="round" opacity="0.72"/>
  <path d="M479 104 L491 112 L479 120" fill="none" stroke="#94a3b8" stroke-width="1.8" stroke-linecap="round" stroke-linejoin="round"/>

  <g class="label" transform="translate(524 80)">
    <text x="0" y="-2" class="section" fill="#94a3b8">RUNTIME TARGETS</text>

    <g transform="translate(0 20)">
      <rect width="30" height="30" rx="10" fill="#ecfeff"/>
      <path transform="translate(5 5) scale(0.82)" fill="#24c8db" d="M13.912 0a8.72 8.72 0 0 0-8.308 6.139c1.05-.515 2.18-.845 3.342-.976 2.415-3.363 7.4-3.412 9.88-.097 2.48 3.315 1.025 8.084-2.883 9.45a6.131 6.131 0 0 1-.3 2.762 8.72 8.72 0 0 0 3.01-1.225A8.72 8.72 0 0 0 13.913 0zm.082 6.451a2.284 2.284 0 1 0-.15 4.566 2.284 2.284 0 0 0 .15-4.566zm-5.629.27a8.72 8.72 0 0 0-3.031 1.235 8.72 8.72 0 1 0 13.06 9.9131 10.173 10.174 0 0 1-3.343.965 6.125 6.125 0 1 1-7.028-9.343 6.114 6.115 0 0 1 .342-2.772zm1.713 6.27a2.284 2.284 0 0 0-2.284 2.283 2.284 2.284 0 0 0 2.284 2.284 2.284 2.284 0 0 0 2.284-2.284 2.284 2.284 0 0 0-2.284-2.284z"/>
      <text x="44" y="14" class="title" fill="#f8fafc">Tauri Desktop</text>
      <text x="44" y="33" class="body" fill="#a5f3fc">macOS / Linux</text>
    </g>

    <g transform="translate(0 62)">
      <rect width="30" height="30" rx="10" fill="#ecfdf5"/>
      <path transform="translate(5 5) scale(0.82)" fill="#119eff" d="M24 3.7l-5.766 5.766 5.725 5.736-3.713 3.712L5.073 3.742 8.786.03l5.736 5.726L20.284 0 24 3.7zM.029 8.785l3.713-3.713 15.173 15.173-3.713 3.714-5.732-5.726L3.7 24 0 20.285l5.754-5.764L.029 8.785z"/>
      <text x="44" y="14" class="title" fill="#f8fafc">Capacitor Android</text>
      <text x="44" y="33" class="body" fill="#bbf7d0">Android tablet / phone</text>
    </g>

    <g transform="translate(0 104)">
      <rect width="30" height="30" rx="10" fill="#f8fafc"/>
      <path transform="translate(5 5) scale(0.82)" fill="#119eff" d="M24 3.7l-5.766 5.766 5.725 5.736-3.713 3.712L5.073 3.742 8.786.03l5.736 5.726L20.284 0 24 3.7zM.029 8.785l3.713-3.713 15.173 15.173-3.713 3.714-5.732-5.726L3.7 24 0 20.285l5.754-5.764L.029 8.785z"/>
      <text x="44" y="14" class="title" fill="#f8fafc">Capacitor iOS</text>
      <text x="44" y="33" class="body" fill="#70a0da">iPad / iPhone</text>
    </g>

    <g transform="translate(0 146)">
      <rect width="30" height="30" rx="10" fill="#eff6ff"/>
      <path transform="translate(5 5) scale(0.82)" fill="#4285f4" d="M12 0C8.21 0 4.831 1.757 2.632 4.501l3.953 6.848A5.454 5.454 0 0 1 12 6.545h10.691A12 12 0 0 0 12 0zM1.931 5.47A11.943 11.943 0 0 0 0 12c0 6.012 4.42 10.991 10.189 11.864l3.953-6.847a5.45 5.45 0 0 1-6.865-2.29zm13.342 2.166a5.446 5.446 0 0 1 1.45 7.09l.002.001h-.002l-5.344 9.257c.206.01.413.016.621.016 6.627 0 12-5.373 12-12 0-1.54-.29-3.011-.818-4.364zM12 16.364a4.364 4.364 0 1 1 0-8.728 4.364 4.364 0 0 1 0 8.728Z"/>
      <text x="44" y="14" class="title" fill="#f8fafc">Browser preview</text>
      <text x="44" y="33" class="body" fill="#cbd5e1">development only</text>
    </g>
  </g>
</svg>
