<svg xmlns="http://www.w3.org/2000/svg" width="920" height="92" viewBox="0 0 920 92" role="img" aria-label="LidoPro commercial boundary summary">
  <defs>
    <style>
      .label { font-family: Inter, ui-sans-serif, system-ui, -apple-system, BlinkMacSystemFont, "Segoe UI", sans-serif; }
      .key { font-size: 10.5px; font-weight: 820; letter-spacing: 1.55px; }
      .value { font-size: 15px; font-weight: 860; }
    </style>
  </defs>

  <g class="label">
    <g transform="translate(58 24)">
      <rect width="154" height="44" rx="12" fill="#0f766e" opacity="0.14"/>
      <rect x="0.75" y="0.75" width="152.5" height="42.5" rx="11.25" fill="none" stroke="#2dd4bf" stroke-width="1.5"/>
      <text x="18" y="18" class="key" fill="#5eead4">LICENSE</text>
      <text x="18" y="34" class="value" fill="#f8fafc">Proprietary</text>
    </g>

    <path d="M244 46 H318" stroke="#64748b" stroke-width="2" stroke-linecap="round" opacity="0.78"/>
    <path d="M310 38 L320 46 L310 54" fill="none" stroke="#64748b" stroke-width="2" stroke-linecap="round" stroke-linejoin="round" opacity="0.78"/>

    <g transform="translate(350 24)">
      <rect width="184" height="44" rx="12" fill="#2563eb" opacity="0.13"/>
      <rect x="0.75" y="0.75" width="182.5" height="42.5" rx="11.25" fill="none" stroke="#60a5fa" stroke-width="1.5"/>
      <text x="18" y="18" class="key" fill="#93c5fd">REPOSITORY</text>
      <text x="18" y="34" class="value" fill="#f8fafc">Source-available</text>
    </g>

    <path d="M566 46 H640" stroke="#64748b" stroke-width="2" stroke-linecap="round" opacity="0.78"/>
    <path d="M632 38 L642 46 L632 54" fill="none" stroke="#64748b" stroke-width="2" stroke-linecap="round" stroke-linejoin="round" opacity="0.78"/>

    <g transform="translate(672 24)">
      <rect width="190" height="44" rx="12" fill="#f97316" opacity="0.13"/>
      <rect x="0.75" y="0.75" width="188.5" height="42.5" rx="11.25" fill="none" stroke="#fb923c" stroke-width="1.5"/>
      <text x="18" y="18" class="key" fill="#fdba74">RELEASE-GATED</text>
      <text x="18" y="34" class="value" fill="#f8fafc">Cloud / Pay / Portal</text>
    </g>
  </g>
</svg>
