<svg xmlns="http://www.w3.org/2000/svg" width="920" height="260" viewBox="0 0 920 260" role="img" aria-label="LidoPro operational layout flow">
  <defs>
    <style>
      .label { font-family: Inter, ui-sans-serif, system-ui, -apple-system, BlinkMacSystemFont, "Segoe UI", sans-serif; }
      .headline { font-size: 23px; font-weight: 860; }
      .title { font-size: 18px; font-weight: 860; }
      .meta { font-size: 13px; font-weight: 720; letter-spacing: 0.4px; }
      .index { font-size: 12px; font-weight: 850; letter-spacing: 1.2px; }
    </style>
  </defs>

  <g class="label">
    <text x="132" y="38" class="headline" fill="#5eead4">From beach design to daily operations.</text>
  </g>

  <path d="M162 82 V214" stroke="#64748b" stroke-width="2" stroke-linecap="round" opacity="0.72"/>
  <path d="M154 124 L162 136 L170 124" fill="none" stroke="#94a3b8" stroke-width="2" stroke-linecap="round" stroke-linejoin="round"/>
  <path d="M154 176 L162 188 L170 176" fill="none" stroke="#94a3b8" stroke-width="2" stroke-linecap="round" stroke-linejoin="round"/>

  <g class="label" transform="translate(132 62)">
    <rect x="78" y="0" width="582" height="58" rx="16" fill="#0f766e" opacity="0.14"/>
    <rect x="78.75" y="0.75" width="580.5" height="56.5" rx="15.25" fill="none" stroke="#2dd4bf" stroke-width="1.5" opacity="0.9"/>
    <circle cx="30" cy="29" r="23" fill="#0f766e" opacity="0.2" stroke="#2dd4bf" stroke-width="1.6"/>
    <text x="22" y="33" class="index" fill="#99f6e4">01</text>
    <g transform="translate(104 13)">
      <rect x="0" y="0" width="32" height="32" rx="9" fill="#ecfdf5" stroke="#2dd4bf" stroke-width="1.6"/>
      <path d="M9 10 H23 M9 16 H23 M9 22 H23 M10 8 V24 M16 8 V24 M22 8 V24" stroke="#0f766e" stroke-width="1.25" stroke-linecap="round"/>
    </g>
    <text x="154" y="24" class="title" fill="#f8fafc">Design the beach</text>
    <text x="154" y="43" class="meta" fill="#99f6e4">Parametric studio</text>
  </g>

  <g class="label" transform="translate(132 126)">
    <rect x="78" y="0" width="582" height="58" rx="16" fill="#0e7490" opacity="0.14"/>
    <rect x="78.75" y="0.75" width="580.5" height="56.5" rx="15.25" fill="none" stroke="#67e8f9" stroke-width="1.5" opacity="0.82"/>
    <circle cx="30" cy="29" r="23" fill="#0e7490" opacity="0.2" stroke="#67e8f9" stroke-width="1.6"/>
    <text x="22" y="33" class="index" fill="#a5f3fc">02</text>
    <g transform="translate(104 13)">
      <rect x="0" y="0" width="32" height="32" rx="9" fill="#ecfeff" stroke="#22d3ee" stroke-width="1.6"/>
      <path d="M16 7 L24 10 V17 C24 22 21 25 16 27 C11 25 8 22 8 17 V10Z" fill="none" stroke="#0e7490" stroke-width="1.45" stroke-linejoin="round"/>
      <path d="M12 17 L15 20 L21 13" fill="none" stroke="#0f766e" stroke-width="1.7" stroke-linecap="round" stroke-linejoin="round"/>
    </g>
    <text x="154" y="24" class="title" fill="#f8fafc">Publish the layout</text>
    <text x="154" y="43" class="meta" fill="#a5f3fc">Controlled review</text>
  </g>

  <g class="label" transform="translate(132 190)">
    <rect x="78" y="0" width="582" height="58" rx="16" fill="#b45309" opacity="0.15"/>
    <rect x="78.75" y="0.75" width="580.5" height="56.5" rx="15.25" fill="none" stroke="#fbbf24" stroke-width="1.5" opacity="0.86"/>
    <circle cx="30" cy="29" r="23" fill="#b45309" opacity="0.2" stroke="#fbbf24" stroke-width="1.6"/>
    <text x="22" y="33" class="index" fill="#fde68a">03</text>
    <g transform="translate(104 13)">
      <rect x="0" y="0" width="32" height="32" rx="9" fill="#fffbeb" stroke="#f59e0b" stroke-width="1.6"/>
      <path d="M16 6 C11 6 8 10 8 15 C8 22 16 27 16 27 C16 27 24 22 24 15 C24 10 21 6 16 6Z" fill="none" stroke="#b45309" stroke-width="1.5"/>
      <circle cx="16" cy="15" r="3" fill="#0f766e"/>
    </g>
    <text x="154" y="24" class="title" fill="#f8fafc">Run the lido</text>
    <text x="154" y="43" class="meta" fill="#fde68a">Operational map</text>
  </g>
</svg>
