<svg xmlns="http://www.w3.org/2000/svg" width="920" height="92" viewBox="0 0 920 92" role="img" aria-label="LidoPro product pillars">
  <defs>
    <style>
      .label { font-family: Inter, ui-sans-serif, system-ui, -apple-system, BlinkMacSystemFont, "Segoe UI", sans-serif; }
      .title { font-size: 15px; font-weight: 850; }
      .meta { font-size: 10.5px; font-weight: 760; letter-spacing: 1.5px; }
    </style>
  </defs>

  <path d="M92 46 H828" fill="none" stroke="#94a3b8" stroke-width="2" stroke-linecap="round" opacity="0.78"/>

  <g class="label">
    <g transform="translate(52 18)">
      <circle cx="28" cy="28" r="23" fill="#ecfdf5" stroke="#2dd4bf" stroke-width="2.5"/>
      <circle cx="28" cy="28" r="5.5" fill="#0f766e"/>
      <text x="62" y="25" class="title" fill="#2dd4bf">Studio</text>
      <text x="62" y="43" class="meta" fill="#cbd5e1">DESIGN</text>
    </g>

    <g transform="translate(230 18)">
      <path d="M28 5 L51 28 L28 51 L5 28 Z" fill="#eff6ff" stroke="#3b82f6" stroke-width="2.5"/>
      <circle cx="28" cy="28" r="5" fill="#2563eb"/>
      <text x="62" y="25" class="title" fill="#60a5fa">Map</text>
      <text x="62" y="43" class="meta" fill="#cbd5e1">OPERATE</text>
    </g>

    <g transform="translate(392 18)">
      <rect x="5" y="5" width="46" height="46" rx="11" fill="#faf5ff" stroke="#8b5cf6" stroke-width="2.5"/>
      <path d="M18 28 H38 M28 18 V38" stroke="#7c3aed" stroke-width="2.3" stroke-linecap="round"/>
      <text x="62" y="25" class="title" fill="#a78bfa">Booking</text>
      <text x="62" y="43" class="meta" fill="#cbd5e1">CUSTOMERS</text>
    </g>

    <g transform="translate(580 18)">
      <path d="M9 46 L28 9 L47 46 Z" fill="#fff7ed" stroke="#f59e0b" stroke-width="2.5" stroke-linejoin="round"/>
      <path d="M21 34 H35" stroke="#ea580c" stroke-width="2.3" stroke-linecap="round"/>
      <text x="62" y="25" class="title" fill="#fbbf24">Accounts</text>
      <text x="62" y="43" class="meta" fill="#cbd5e1">PRICING</text>
    </g>

    <g transform="translate(766 18)">
      <rect x="5" y="14" width="46" height="28" rx="14" fill="#ecfeff" stroke="#22d3ee" stroke-width="2.5"/>
      <circle cx="22" cy="28" r="4.5" fill="#0891b2"/>
      <circle cx="35" cy="28" r="4.5" fill="#0891b2"/>
      <text x="62" y="25" class="title" fill="#22d3ee">Services</text>
      <text x="62" y="43" class="meta" fill="#cbd5e1">PLATFORM</text>
    </g>
  </g>
</svg>
